<?xml version="1.0" encoding="utf-8" standalone="no"?>
<!DOCTYPE svg PUBLIC "-//W3C//DTD SVG 1.1//EN"
  "http://www.w3.org/Graphics/SVG/1.1/DTD/svg11.dtd">
<svg xmlns:xlink="http://www.w3.org/1999/xlink" width="216pt" height="216pt" viewBox="0 0 216 216" xmlns="http://www.w3.org/2000/svg" version="1.1">
 <metadata>
  <rdf:RDF xmlns:dc="http://purl.org/dc/elements/1.1/" xmlns:cc="http://creativecommons.org/ns#" xmlns:rdf="http://www.w3.org/1999/02/22-rdf-syntax-ns#">
   <cc:Work>
    <dc:type rdf:resource="http://purl.org/dc/dcmitype/StillImage"/>
    <dc:date>2023-08-15T10:24:04.825586</dc:date>
    <dc:format>image/svg+xml</dc:format>
    <dc:creator>
     <cc:Agent>
      <dc:title>Matplotlib v3.7.2, https://matplotlib.org/</dc:title>
     </cc:Agent>
    </dc:creator>
   </cc:Work>
  </rdf:RDF>
 </metadata>
 <defs>
  <style type="text/css">*{stroke-linejoin: round; stroke-linecap: butt}</style>
 </defs>
 <g id="figure_1">
  <g id="patch_1">
   <path d="M 0 216 
L 216 216 
L 216 0 
L 0 0 
z
" style="fill: #ffffff"/>
  </g>
  <g id="axes_1">
   <g id="patch_2">
    <path d="M 27 192.24 
L 194.4 192.24 
L 194.4 25.92 
L 27 25.92 
z
" style="fill: #ffffff"/>
   </g>
   <g id="matplotlib.axis_1"/>
   <g id="matplotlib.axis_2"/>
   <g id="line2d_1">
    <path d="M 27 184.677735 
L 50.914286 184.68 
L 51.249086 134.889373 
L 51.392571 125.523165 
L 51.488229 103.730471 
L 51.679543 42.90811 
L 52.014343 36.566387 
L 52.349143 34.030077 
L 52.588286 33.501232 
L 52.731771 33.503249 
L 52.923086 33.762238 
L 53.257886 34.674877 
L 54.023143 37.656154 
L 54.7884 40.251201 
L 55.314514 41.327979 
L 55.7928 41.859526 
L 56.271086 42.0796 
L 56.7972 42.07918 
L 57.514629 41.836007 
L 58.853829 41.086776 
L 61.006114 39.925126 
L 62.584457 39.339364 
L 64.1628 38.991671 
L 65.884629 38.846376 
L 67.797771 38.918128 
L 69.950057 39.231218 
L 72.389314 39.819618 
L 75.115543 40.709777 
L 78.176571 41.945803 
L 81.5724 43.560698 
L 85.2552 45.561038 
L 89.177143 47.945138 
L 93.2904 50.707864 
L 97.451486 53.772652 
L 101.516914 57.043137 
L 105.391029 60.442821 
L 109.073829 63.968612 
L 112.421829 67.481608 
L 115.3872 70.912868 
L 117.969943 74.236837 
L 120.217886 77.489074 
L 122.226686 80.788294 
L 124.092 84.278453 
L 126.052971 88.439351 
L 128.348743 93.868678 
L 131.7924 102.657507 
L 136.910057 116.338512 
L 140.401543 126.248613 
L 142.936457 134.1017 
L 145.232229 141.935738 
L 147.336686 149.899419 
L 149.154171 157.64142 
L 151.067314 166.844111 
L 152.980457 175.862912 
L 153.841371 178.914269 
L 154.606629 180.846473 
L 155.324057 182.059823 
L 156.041486 182.83586 
L 156.806743 183.338136 
L 157.763314 183.682439 
L 159.102514 183.899091 
L 161.493943 184.018672 
L 170.342229 184.113566 
L 194.447829 184.277614 
L 194.447829 184.277614 
" clip-path="url(#pfe8dcf2838)" style="fill: none; stroke: #000000; stroke-width: 2; stroke-linecap: square"/>
   </g>
   <g id="patch_3">
    <path d="M 27 192.24 
L 27 25.92 
" style="fill: none; stroke: #000000; stroke-width: 0.8; stroke-linejoin: miter; stroke-linecap: square"/>
   </g>
   <g id="patch_4">
    <path d="M 27 192.24 
L 194.4 192.24 
" style="fill: none; stroke: #000000; stroke-width: 0.8; stroke-linejoin: miter; stroke-linecap: square"/>
   </g>
  </g>
 </g>
 <defs>
  <clipPath id="pfe8dcf2838">
   <rect x="27" y="25.92" width="167.4" height="166.32"/>
  </clipPath>
 </defs>
</svg>
