<?xml version="1.0" encoding="utf-8" standalone="no"?>
<!DOCTYPE svg PUBLIC "-//W3C//DTD SVG 1.1//EN"
  "http://www.w3.org/Graphics/SVG/1.1/DTD/svg11.dtd">
<svg xmlns:xlink="http://www.w3.org/1999/xlink" width="552.22625pt" height="192.7795pt" viewBox="0 0 552.22625 192.7795" xmlns="http://www.w3.org/2000/svg" version="1.1">
 <metadata>
  <rdf:RDF xmlns:dc="http://purl.org/dc/elements/1.1/" xmlns:cc="http://creativecommons.org/ns#" xmlns:rdf="http://www.w3.org/1999/02/22-rdf-syntax-ns#">
   <cc:Work>
    <dc:type rdf:resource="http://purl.org/dc/dcmitype/StillImage"/>
    <dc:date>2024-01-23T14:48:38.696030</dc:date>
    <dc:format>image/svg+xml</dc:format>
    <dc:creator>
     <cc:Agent>
      <dc:title>Matplotlib v3.8.2, https://matplotlib.org/</dc:title>
     </cc:Agent>
    </dc:creator>
   </cc:Work>
  </rdf:RDF>
 </metadata>
 <defs>
  <style type="text/css">*{stroke-linejoin: round; stroke-linecap: butt}</style>
 </defs>
 <g id="figure_1">
  <g id="patch_1">
   <path d="M 0 192.7795 
L 552.22625 192.7795 
L 552.22625 -0 
L 0 -0 
z
" style="fill: #ffffff"/>
  </g>
  <g id="axes_1">
   <g id="patch_2">
    <path d="M 42.82625 86.4945 
L 199.76375 86.4945 
L 199.76375 20.4945 
L 42.82625 20.4945 
z
" style="fill: #ffffff"/>
   </g>
   <g id="matplotlib.axis_1">
    <g id="xtick_1">
     <g id="line2d_1">
      <defs>
       <path id="md9a2f4d9b8" d="M 0 0 
L 0 3.5 
" style="stroke: #000000; stroke-width: 0.8"/>
      </defs>
      <g>
       <use xlink:href="#md9a2f4d9b8" x="42.82625" y="86.4945" style="stroke: #000000; stroke-width: 0.8"/>
      </g>
     </g>
    </g>
    <g id="xtick_2">
     <g id="line2d_2">
      <g>
       <use xlink:href="#md9a2f4d9b8" x="77.70125" y="86.4945" style="stroke: #000000; stroke-width: 0.8"/>
      </g>
     </g>
    </g>
    <g id="xtick_3">
     <g id="line2d_3">
      <g>
       <use xlink:href="#md9a2f4d9b8" x="112.57625" y="86.4945" style="stroke: #000000; stroke-width: 0.8"/>
      </g>
     </g>
    </g>
    <g id="xtick_4">
     <g id="line2d_4">
      <g>
       <use xlink:href="#md9a2f4d9b8" x="147.45125" y="86.4945" style="stroke: #000000; stroke-width: 0.8"/>
      </g>
     </g>
    </g>
    <g id="xtick_5">
     <g id="line2d_5">
      <g>
       <use xlink:href="#md9a2f4d9b8" x="182.32625" y="86.4945" style="stroke: #000000; stroke-width: 0.8"/>
      </g>
     </g>
    </g>
   </g>
   <g id="matplotlib.axis_2">
    <g id="ytick_1">
     <g id="line2d_6">
      <defs>
       <path id="md142f09a46" d="M 0 0 
L -3.5 0 
" style="stroke: #000000; stroke-width: 0.8"/>
      </defs>
      <g>
       <use xlink:href="#md142f09a46" x="42.82625" y="64.554142" style="stroke: #000000; stroke-width: 0.8"/>
      </g>
     </g>
     <g id="text_1">
      <!-- −50 -->
      <g transform="translate(18.9425 67.593517) scale(0.08 -0.08)">
       <defs>
        <path id="DejaVuSans-2212" d="M 678 2272 
L 4684 2272 
L 4684 1741 
L 678 1741 
L 678 2272 
z
" transform="scale(0.015625)"/>
        <path id="DejaVuSans-35" d="M 691 4666 
L 3169 4666 
L 3169 4134 
L 1269 4134 
L 1269 2991 
Q 1406 3038 1543 3061 
Q 1681 3084 1819 3084 
Q 2600 3084 3056 2656 
Q 3513 2228 3513 1497 
Q 3513 744 3044 326 
Q 2575 -91 1722 -91 
Q 1428 -91 1123 -41 
Q 819 9 494 109 
L 494 744 
Q 775 591 1075 516 
Q 1375 441 1709 441 
Q 2250 441 2565 725 
Q 2881 1009 2881 1497 
Q 2881 1984 2565 2268 
Q 2250 2553 1709 2553 
Q 1456 2553 1204 2497 
Q 953 2441 691 2322 
L 691 4666 
z
" transform="scale(0.015625)"/>
        <path id="DejaVuSans-30" d="M 2034 4250 
Q 1547 4250 1301 3770 
Q 1056 3291 1056 2328 
Q 1056 1369 1301 889 
Q 1547 409 2034 409 
Q 2525 409 2770 889 
Q 3016 1369 3016 2328 
Q 3016 3291 2770 3770 
Q 2525 4250 2034 4250 
z
M 2034 4750 
Q 2819 4750 3233 4129 
Q 3647 3509 3647 2328 
Q 3647 1150 3233 529 
Q 2819 -91 2034 -91 
Q 1250 -91 836 529 
Q 422 1150 422 2328 
Q 422 3509 836 4129 
Q 1250 4750 2034 4750 
z
" transform="scale(0.015625)"/>
       </defs>
       <use xlink:href="#DejaVuSans-2212"/>
       <use xlink:href="#DejaVuSans-35" x="83.789062"/>
       <use xlink:href="#DejaVuSans-30" x="147.412109"/>
      </g>
     </g>
    </g>
    <g id="ytick_2">
     <g id="line2d_7">
      <g>
       <use xlink:href="#md142f09a46" x="42.82625" y="41.181579" style="stroke: #000000; stroke-width: 0.8"/>
      </g>
     </g>
     <g id="text_2">
      <!-- 0 -->
      <g transform="translate(30.73625 44.220954) scale(0.08 -0.08)">
       <use xlink:href="#DejaVuSans-30"/>
      </g>
     </g>
    </g>
    <g id="text_3">
     <!-- Voltage (mV) -->
     <g transform="translate(13.27875 79.5245) rotate(-90) scale(0.08 -0.08)">
      <defs>
       <path id="DejaVuSans-56" d="M 1831 0 
L 50 4666 
L 709 4666 
L 2188 738 
L 3669 4666 
L 4325 4666 
L 2547 0 
L 1831 0 
z
" transform="scale(0.015625)"/>
       <path id="DejaVuSans-6f" d="M 1959 3097 
Q 1497 3097 1228 2736 
Q 959 2375 959 1747 
Q 959 1119 1226 758 
Q 1494 397 1959 397 
Q 2419 397 2687 759 
Q 2956 1122 2956 1747 
Q 2956 2369 2687 2733 
Q 2419 3097 1959 3097 
z
M 1959 3584 
Q 2709 3584 3137 3096 
Q 3566 2609 3566 1747 
Q 3566 888 3137 398 
Q 2709 -91 1959 -91 
Q 1206 -91 779 398 
Q 353 888 353 1747 
Q 353 2609 779 3096 
Q 1206 3584 1959 3584 
z
" transform="scale(0.015625)"/>
       <path id="DejaVuSans-6c" d="M 603 4863 
L 1178 4863 
L 1178 0 
L 603 0 
L 603 4863 
z
" transform="scale(0.015625)"/>
       <path id="DejaVuSans-74" d="M 1172 4494 
L 1172 3500 
L 2356 3500 
L 2356 3053 
L 1172 3053 
L 1172 1153 
Q 1172 725 1289 603 
Q 1406 481 1766 481 
L 2356 481 
L 2356 0 
L 1766 0 
Q 1100 0 847 248 
Q 594 497 594 1153 
L 594 3053 
L 172 3053 
L 172 3500 
L 594 3500 
L 594 4494 
L 1172 4494 
z
" transform="scale(0.015625)"/>
       <path id="DejaVuSans-61" d="M 2194 1759 
Q 1497 1759 1228 1600 
Q 959 1441 959 1056 
Q 959 750 1161 570 
Q 1363 391 1709 391 
Q 2188 391 2477 730 
Q 2766 1069 2766 1631 
L 2766 1759 
L 2194 1759 
z
M 3341 1997 
L 3341 0 
L 2766 0 
L 2766 531 
Q 2569 213 2275 61 
Q 1981 -91 1556 -91 
Q 1019 -91 701 211 
Q 384 513 384 1019 
Q 384 1609 779 1909 
Q 1175 2209 1959 2209 
L 2766 2209 
L 2766 2266 
Q 2766 2663 2505 2880 
Q 2244 3097 1772 3097 
Q 1472 3097 1187 3025 
Q 903 2953 641 2809 
L 641 3341 
Q 956 3463 1253 3523 
Q 1550 3584 1831 3584 
Q 2591 3584 2966 3190 
Q 3341 2797 3341 1997 
z
" transform="scale(0.015625)"/>
       <path id="DejaVuSans-67" d="M 2906 1791 
Q 2906 2416 2648 2759 
Q 2391 3103 1925 3103 
Q 1463 3103 1205 2759 
Q 947 2416 947 1791 
Q 947 1169 1205 825 
Q 1463 481 1925 481 
Q 2391 481 2648 825 
Q 2906 1169 2906 1791 
z
M 3481 434 
Q 3481 -459 3084 -895 
Q 2688 -1331 1869 -1331 
Q 1566 -1331 1297 -1286 
Q 1028 -1241 775 -1147 
L 775 -588 
Q 1028 -725 1275 -790 
Q 1522 -856 1778 -856 
Q 2344 -856 2625 -561 
Q 2906 -266 2906 331 
L 2906 616 
Q 2728 306 2450 153 
Q 2172 0 1784 0 
Q 1141 0 747 490 
Q 353 981 353 1791 
Q 353 2603 747 3093 
Q 1141 3584 1784 3584 
Q 2172 3584 2450 3431 
Q 2728 3278 2906 2969 
L 2906 3500 
L 3481 3500 
L 3481 434 
z
" transform="scale(0.015625)"/>
       <path id="DejaVuSans-65" d="M 3597 1894 
L 3597 1613 
L 953 1613 
Q 991 1019 1311 708 
Q 1631 397 2203 397 
Q 2534 397 2845 478 
Q 3156 559 3463 722 
L 3463 178 
Q 3153 47 2828 -22 
Q 2503 -91 2169 -91 
Q 1331 -91 842 396 
Q 353 884 353 1716 
Q 353 2575 817 3079 
Q 1281 3584 2069 3584 
Q 2775 3584 3186 3129 
Q 3597 2675 3597 1894 
z
M 3022 2063 
Q 3016 2534 2758 2815 
Q 2500 3097 2075 3097 
Q 1594 3097 1305 2825 
Q 1016 2553 972 2059 
L 3022 2063 
z
" transform="scale(0.015625)"/>
       <path id="DejaVuSans-20" transform="scale(0.015625)"/>
       <path id="DejaVuSans-28" d="M 1984 4856 
Q 1566 4138 1362 3434 
Q 1159 2731 1159 2009 
Q 1159 1288 1364 580 
Q 1569 -128 1984 -844 
L 1484 -844 
Q 1016 -109 783 600 
Q 550 1309 550 2009 
Q 550 2706 781 3412 
Q 1013 4119 1484 4856 
L 1984 4856 
z
" transform="scale(0.015625)"/>
       <path id="DejaVuSans-6d" d="M 3328 2828 
Q 3544 3216 3844 3400 
Q 4144 3584 4550 3584 
Q 5097 3584 5394 3201 
Q 5691 2819 5691 2113 
L 5691 0 
L 5113 0 
L 5113 2094 
Q 5113 2597 4934 2840 
Q 4756 3084 4391 3084 
Q 3944 3084 3684 2787 
Q 3425 2491 3425 1978 
L 3425 0 
L 2847 0 
L 2847 2094 
Q 2847 2600 2669 2842 
Q 2491 3084 2119 3084 
Q 1678 3084 1418 2786 
Q 1159 2488 1159 1978 
L 1159 0 
L 581 0 
L 581 3500 
L 1159 3500 
L 1159 2956 
Q 1356 3278 1631 3431 
Q 1906 3584 2284 3584 
Q 2666 3584 2933 3390 
Q 3200 3197 3328 2828 
z
" transform="scale(0.015625)"/>
       <path id="DejaVuSans-29" d="M 513 4856 
L 1013 4856 
Q 1481 4119 1714 3412 
Q 1947 2706 1947 2009 
Q 1947 1309 1714 600 
Q 1481 -109 1013 -844 
L 513 -844 
Q 928 -128 1133 580 
Q 1338 1288 1338 2009 
Q 1338 2731 1133 3434 
Q 928 4138 513 4856 
z
" transform="scale(0.015625)"/>
      </defs>
      <use xlink:href="#DejaVuSans-56"/>
      <use xlink:href="#DejaVuSans-6f" x="60.658203"/>
      <use xlink:href="#DejaVuSans-6c" x="121.839844"/>
      <use xlink:href="#DejaVuSans-74" x="149.623047"/>
      <use xlink:href="#DejaVuSans-61" x="188.832031"/>
      <use xlink:href="#DejaVuSans-67" x="250.111328"/>
      <use xlink:href="#DejaVuSans-65" x="313.587891"/>
      <use xlink:href="#DejaVuSans-20" x="375.111328"/>
      <use xlink:href="#DejaVuSans-28" x="406.898438"/>
      <use xlink:href="#DejaVuSans-6d" x="445.912109"/>
      <use xlink:href="#DejaVuSans-56" x="543.324219"/>
      <use xlink:href="#DejaVuSans-29" x="611.732422"/>
     </g>
    </g>
   </g>
   <g id="line2d_8">
    <path d="M 42.82625 79.361707 
L 60.26375 79.362817 
L 60.473 47.4326 
L 60.6125 23.391232 
L 60.647375 23.336664 
L 60.68225 23.467492 
L 61.031 26.155471 
L 61.554125 29.482624 
L 61.972625 30.8506 
L 62.35625 31.410802 
L 62.739875 31.582623 
L 63.19325 31.521596 
L 64.03025 31.130938 
L 65.739125 30.345 
L 66.855125 30.08103 
L 67.901375 30.062023 
L 69.087125 30.284585 
L 72.225875 30.963442 
L 82.793 32.832477 
L 88.931 34.253544 
L 96.185 36.167142 
L 103.8575 38.41882 
L 110.169875 40.49193 
L 114.94775 42.286701 
L 118.71425 43.931832 
L 121.887875 45.55456 
L 124.7825 47.284395 
L 127.607375 49.23704 
L 130.43225 51.46327 
L 132.978125 53.745215 
L 135.349625 56.169354 
L 137.68625 58.879725 
L 139.813625 61.683409 
L 141.73175 64.580785 
L 143.580125 67.790624 
L 147.86975 75.502118 
L 148.881125 76.682613 
L 149.857625 77.48246 
L 150.903875 78.043278 
L 152.1245 78.432946 
L 153.72875 78.697031 
L 156.3095 78.868246 
L 162.482375 78.991683 
L 185.499875 79.168757 
L 199.798625 79.224458 
L 199.798625 79.224458 
" clip-path="url(#p5dbcd57722)" style="fill: none; stroke-dasharray: 5.55,2.4; stroke-dashoffset: 0; stroke: #000000; stroke-width: 1.5"/>
   </g>
   <g id="line2d_9">
    <path d="M 42.82625 79.383141 
L 60.26375 79.383935 
L 60.473 47.475052 
L 60.6125 23.351569 
L 60.647375 23.298759 
L 60.68225 23.430999 
L 61.031 26.138091 
L 61.554125 29.516808 
L 61.972625 30.934427 
L 62.35625 31.541794 
L 62.739875 31.761241 
L 63.19325 31.756751 
L 64.03025 31.470184 
L 65.774 30.870677 
L 67.064375 30.680283 
L 68.389625 30.710544 
L 69.88925 30.974783 
L 71.807375 31.555033 
L 75.05075 32.802548 
L 79.79375 34.858666 
L 83.734625 36.800614 
L 86.978 38.639356 
L 89.6285 40.392152 
L 91.79075 42.082481 
L 93.639125 43.807332 
L 95.27825 45.639578 
L 96.847625 47.727738 
L 98.521625 50.333821 
L 100.43975 53.743889 
L 102.81125 58.448045 
L 105.775625 64.8257 
L 109.92575 73.871283 
L 110.972 75.499347 
L 111.913625 76.563025 
L 112.85525 77.293528 
L 113.9015 77.815163 
L 115.157 78.18272 
L 116.90075 78.4453 
L 119.9 78.63912 
L 127.328375 78.837149 
L 144.975125 79.06687 
L 177.374 79.240181 
L 199.798625 79.29364 
L 199.798625 79.29364 
" clip-path="url(#p5dbcd57722)" style="fill: none; stroke: #000000; stroke-width: 1.5; stroke-linecap: square"/>
   </g>
   <g id="line2d_10">
    <path d="M 42.82625 79.361387 
L 60.26375 79.362718 
L 60.473 47.430852 
L 60.6125 23.392771 
L 60.647375 23.338217 
L 60.68225 23.469103 
L 61.031 26.158949 
L 61.554125 29.490459 
L 61.972625 30.862042 
L 62.35625 31.425567 
L 62.739875 31.600832 
L 63.19325 31.544104 
L 64.03025 31.161969 
L 65.739125 30.393794 
L 66.89 30.134349 
L 67.93625 30.124791 
L 69.122 30.350446 
L 72.6095 31.126688 
L 82.130375 32.918648 
L 88.30325 34.389423 
L 95.41775 36.317575 
L 102.776375 38.537844 
L 108.8795 40.598994 
L 113.587625 42.413856 
L 117.354125 44.095952 
L 120.5975 45.783691 
L 123.59675 47.594975 
L 126.630875 49.692135 
L 129.699875 52.083495 
L 132.455 54.508514 
L 135.070625 57.11147 
L 137.581625 59.925079 
L 139.77875 62.719471 
L 141.696875 65.515392 
L 143.615 68.716079 
L 147.346625 75.091786 
L 148.42775 76.391129 
L 149.439125 77.264069 
L 150.485375 77.872325 
L 151.671125 78.300443 
L 153.205625 78.602676 
L 155.4725 78.799678 
L 160.076 78.930627 
L 177.095 79.0999 
L 199.798625 79.209331 
L 199.798625 79.209331 
" clip-path="url(#p5dbcd57722)" style="fill: none; stroke: #ff0000; stroke-width: 1.5; stroke-linecap: square"/>
   </g>
   <g id="patch_3">
    <path d="M 42.82625 86.4945 
L 42.82625 20.4945 
" style="fill: none; stroke: #000000; stroke-width: 0.8; stroke-linejoin: miter; stroke-linecap: square"/>
   </g>
   <g id="patch_4">
    <path d="M 199.76375 86.4945 
L 199.76375 20.4945 
" style="fill: none; stroke: #000000; stroke-width: 0.8; stroke-linejoin: miter; stroke-linecap: square"/>
   </g>
   <g id="patch_5">
    <path d="M 42.82625 86.4945 
L 199.76375 86.4945 
" style="fill: none; stroke: #000000; stroke-width: 0.8; stroke-linejoin: miter; stroke-linecap: square"/>
   </g>
   <g id="patch_6">
    <path d="M 42.82625 20.4945 
L 199.76375 20.4945 
" style="fill: none; stroke: #000000; stroke-width: 0.8; stroke-linejoin: miter; stroke-linecap: square"/>
   </g>
   <g id="text_4">
    <!-- Grandi-Li -->
    <g transform="translate(99.4985 14.4945) scale(0.096 -0.096)">
     <defs>
      <path id="DejaVuSans-47" d="M 3809 666 
L 3809 1919 
L 2778 1919 
L 2778 2438 
L 4434 2438 
L 4434 434 
Q 4069 175 3628 42 
Q 3188 -91 2688 -91 
Q 1594 -91 976 548 
Q 359 1188 359 2328 
Q 359 3472 976 4111 
Q 1594 4750 2688 4750 
Q 3144 4750 3555 4637 
Q 3966 4525 4313 4306 
L 4313 3634 
Q 3963 3931 3569 4081 
Q 3175 4231 2741 4231 
Q 1884 4231 1454 3753 
Q 1025 3275 1025 2328 
Q 1025 1384 1454 906 
Q 1884 428 2741 428 
Q 3075 428 3337 486 
Q 3600 544 3809 666 
z
" transform="scale(0.015625)"/>
      <path id="DejaVuSans-72" d="M 2631 2963 
Q 2534 3019 2420 3045 
Q 2306 3072 2169 3072 
Q 1681 3072 1420 2755 
Q 1159 2438 1159 1844 
L 1159 0 
L 581 0 
L 581 3500 
L 1159 3500 
L 1159 2956 
Q 1341 3275 1631 3429 
Q 1922 3584 2338 3584 
Q 2397 3584 2469 3576 
Q 2541 3569 2628 3553 
L 2631 2963 
z
" transform="scale(0.015625)"/>
      <path id="DejaVuSans-6e" d="M 3513 2113 
L 3513 0 
L 2938 0 
L 2938 2094 
Q 2938 2591 2744 2837 
Q 2550 3084 2163 3084 
Q 1697 3084 1428 2787 
Q 1159 2491 1159 1978 
L 1159 0 
L 581 0 
L 581 3500 
L 1159 3500 
L 1159 2956 
Q 1366 3272 1645 3428 
Q 1925 3584 2291 3584 
Q 2894 3584 3203 3211 
Q 3513 2838 3513 2113 
z
" transform="scale(0.015625)"/>
      <path id="DejaVuSans-64" d="M 2906 2969 
L 2906 4863 
L 3481 4863 
L 3481 0 
L 2906 0 
L 2906 525 
Q 2725 213 2448 61 
Q 2172 -91 1784 -91 
Q 1150 -91 751 415 
Q 353 922 353 1747 
Q 353 2572 751 3078 
Q 1150 3584 1784 3584 
Q 2172 3584 2448 3432 
Q 2725 3281 2906 2969 
z
M 947 1747 
Q 947 1113 1208 752 
Q 1469 391 1925 391 
Q 2381 391 2643 752 
Q 2906 1113 2906 1747 
Q 2906 2381 2643 2742 
Q 2381 3103 1925 3103 
Q 1469 3103 1208 2742 
Q 947 2381 947 1747 
z
" transform="scale(0.015625)"/>
      <path id="DejaVuSans-69" d="M 603 3500 
L 1178 3500 
L 1178 0 
L 603 0 
L 603 3500 
z
M 603 4863 
L 1178 4863 
L 1178 4134 
L 603 4134 
L 603 4863 
z
" transform="scale(0.015625)"/>
      <path id="DejaVuSans-2d" d="M 313 2009 
L 1997 2009 
L 1997 1497 
L 313 1497 
L 313 2009 
z
" transform="scale(0.015625)"/>
      <path id="DejaVuSans-4c" d="M 628 4666 
L 1259 4666 
L 1259 531 
L 3531 531 
L 3531 0 
L 628 0 
L 628 4666 
z
" transform="scale(0.015625)"/>
     </defs>
     <use xlink:href="#DejaVuSans-47"/>
     <use xlink:href="#DejaVuSans-72" x="77.490234"/>
     <use xlink:href="#DejaVuSans-61" x="118.603516"/>
     <use xlink:href="#DejaVuSans-6e" x="179.882812"/>
     <use xlink:href="#DejaVuSans-64" x="243.261719"/>
     <use xlink:href="#DejaVuSans-69" x="306.738281"/>
     <use xlink:href="#DejaVuSans-2d" x="334.521484"/>
     <use xlink:href="#DejaVuSans-4c" x="370.605469"/>
     <use xlink:href="#DejaVuSans-69" x="426.318359"/>
    </g>
   </g>
  </g>
  <g id="axes_2">
   <g id="patch_7">
    <path d="M 42.82625 159.0945 
L 199.76375 159.0945 
L 199.76375 93.0945 
L 42.82625 93.0945 
z
" style="fill: #ffffff"/>
   </g>
   <g id="matplotlib.axis_3">
    <g id="xtick_6">
     <g id="line2d_11">
      <g>
       <use xlink:href="#md9a2f4d9b8" x="42.82625" y="159.0945" style="stroke: #000000; stroke-width: 0.8"/>
      </g>
     </g>
     <g id="text_5">
      <!-- 0 -->
      <g transform="translate(40.28125 172.17325) scale(0.08 -0.08)">
       <use xlink:href="#DejaVuSans-30"/>
      </g>
     </g>
    </g>
    <g id="xtick_7">
     <g id="line2d_12">
      <g>
       <use xlink:href="#md9a2f4d9b8" x="77.70125" y="159.0945" style="stroke: #000000; stroke-width: 0.8"/>
      </g>
     </g>
     <g id="text_6">
      <!-- 100 -->
      <g transform="translate(70.06625 172.17325) scale(0.08 -0.08)">
       <defs>
        <path id="DejaVuSans-31" d="M 794 531 
L 1825 531 
L 1825 4091 
L 703 3866 
L 703 4441 
L 1819 4666 
L 2450 4666 
L 2450 531 
L 3481 531 
L 3481 0 
L 794 0 
L 794 531 
z
" transform="scale(0.015625)"/>
       </defs>
       <use xlink:href="#DejaVuSans-31"/>
       <use xlink:href="#DejaVuSans-30" x="63.623047"/>
       <use xlink:href="#DejaVuSans-30" x="127.246094"/>
      </g>
     </g>
    </g>
    <g id="xtick_8">
     <g id="line2d_13">
      <g>
       <use xlink:href="#md9a2f4d9b8" x="112.57625" y="159.0945" style="stroke: #000000; stroke-width: 0.8"/>
      </g>
     </g>
     <g id="text_7">
      <!-- 200 -->
      <g transform="translate(104.94125 172.17325) scale(0.08 -0.08)">
       <defs>
        <path id="DejaVuSans-32" d="M 1228 531 
L 3431 531 
L 3431 0 
L 469 0 
L 469 531 
Q 828 903 1448 1529 
Q 2069 2156 2228 2338 
Q 2531 2678 2651 2914 
Q 2772 3150 2772 3378 
Q 2772 3750 2511 3984 
Q 2250 4219 1831 4219 
Q 1534 4219 1204 4116 
Q 875 4013 500 3803 
L 500 4441 
Q 881 4594 1212 4672 
Q 1544 4750 1819 4750 
Q 2544 4750 2975 4387 
Q 3406 4025 3406 3419 
Q 3406 3131 3298 2873 
Q 3191 2616 2906 2266 
Q 2828 2175 2409 1742 
Q 1991 1309 1228 531 
z
" transform="scale(0.015625)"/>
       </defs>
       <use xlink:href="#DejaVuSans-32"/>
       <use xlink:href="#DejaVuSans-30" x="63.623047"/>
       <use xlink:href="#DejaVuSans-30" x="127.246094"/>
      </g>
     </g>
    </g>
    <g id="xtick_9">
     <g id="line2d_14">
      <g>
       <use xlink:href="#md9a2f4d9b8" x="147.45125" y="159.0945" style="stroke: #000000; stroke-width: 0.8"/>
      </g>
     </g>
     <g id="text_8">
      <!-- 300 -->
      <g transform="translate(139.81625 172.17325) scale(0.08 -0.08)">
       <defs>
        <path id="DejaVuSans-33" d="M 2597 2516 
Q 3050 2419 3304 2112 
Q 3559 1806 3559 1356 
Q 3559 666 3084 287 
Q 2609 -91 1734 -91 
Q 1441 -91 1130 -33 
Q 819 25 488 141 
L 488 750 
Q 750 597 1062 519 
Q 1375 441 1716 441 
Q 2309 441 2620 675 
Q 2931 909 2931 1356 
Q 2931 1769 2642 2001 
Q 2353 2234 1838 2234 
L 1294 2234 
L 1294 2753 
L 1863 2753 
Q 2328 2753 2575 2939 
Q 2822 3125 2822 3475 
Q 2822 3834 2567 4026 
Q 2313 4219 1838 4219 
Q 1578 4219 1281 4162 
Q 984 4106 628 3988 
L 628 4550 
Q 988 4650 1302 4700 
Q 1616 4750 1894 4750 
Q 2613 4750 3031 4423 
Q 3450 4097 3450 3541 
Q 3450 3153 3228 2886 
Q 3006 2619 2597 2516 
z
" transform="scale(0.015625)"/>
       </defs>
       <use xlink:href="#DejaVuSans-33"/>
       <use xlink:href="#DejaVuSans-30" x="63.623047"/>
       <use xlink:href="#DejaVuSans-30" x="127.246094"/>
      </g>
     </g>
    </g>
    <g id="xtick_10">
     <g id="line2d_15">
      <g>
       <use xlink:href="#md9a2f4d9b8" x="182.32625" y="159.0945" style="stroke: #000000; stroke-width: 0.8"/>
      </g>
     </g>
     <g id="text_9">
      <!-- 400 -->
      <g transform="translate(174.69125 172.17325) scale(0.08 -0.08)">
       <defs>
        <path id="DejaVuSans-34" d="M 2419 4116 
L 825 1625 
L 2419 1625 
L 2419 4116 
z
M 2253 4666 
L 3047 4666 
L 3047 1625 
L 3713 1625 
L 3713 1100 
L 3047 1100 
L 3047 0 
L 2419 0 
L 2419 1100 
L 313 1100 
L 313 1709 
L 2253 4666 
z
" transform="scale(0.015625)"/>
       </defs>
       <use xlink:href="#DejaVuSans-34"/>
       <use xlink:href="#DejaVuSans-30" x="63.623047"/>
       <use xlink:href="#DejaVuSans-30" x="127.246094"/>
      </g>
     </g>
    </g>
    <g id="text_10">
     <!-- Time (ms) -->
     <g transform="translate(101.135625 183.91575) scale(0.08 -0.08)">
      <defs>
       <path id="DejaVuSans-54" d="M -19 4666 
L 3928 4666 
L 3928 4134 
L 2272 4134 
L 2272 0 
L 1638 0 
L 1638 4134 
L -19 4134 
L -19 4666 
z
" transform="scale(0.015625)"/>
       <path id="DejaVuSans-73" d="M 2834 3397 
L 2834 2853 
Q 2591 2978 2328 3040 
Q 2066 3103 1784 3103 
Q 1356 3103 1142 2972 
Q 928 2841 928 2578 
Q 928 2378 1081 2264 
Q 1234 2150 1697 2047 
L 1894 2003 
Q 2506 1872 2764 1633 
Q 3022 1394 3022 966 
Q 3022 478 2636 193 
Q 2250 -91 1575 -91 
Q 1294 -91 989 -36 
Q 684 19 347 128 
L 347 722 
Q 666 556 975 473 
Q 1284 391 1588 391 
Q 1994 391 2212 530 
Q 2431 669 2431 922 
Q 2431 1156 2273 1281 
Q 2116 1406 1581 1522 
L 1381 1569 
Q 847 1681 609 1914 
Q 372 2147 372 2553 
Q 372 3047 722 3315 
Q 1072 3584 1716 3584 
Q 2034 3584 2315 3537 
Q 2597 3491 2834 3397 
z
" transform="scale(0.015625)"/>
      </defs>
      <use xlink:href="#DejaVuSans-54"/>
      <use xlink:href="#DejaVuSans-69" x="57.958984"/>
      <use xlink:href="#DejaVuSans-6d" x="85.742188"/>
      <use xlink:href="#DejaVuSans-65" x="183.154297"/>
      <use xlink:href="#DejaVuSans-20" x="244.677734"/>
      <use xlink:href="#DejaVuSans-28" x="276.464844"/>
      <use xlink:href="#DejaVuSans-6d" x="315.478516"/>
      <use xlink:href="#DejaVuSans-73" x="412.890625"/>
      <use xlink:href="#DejaVuSans-29" x="464.990234"/>
     </g>
    </g>
   </g>
   <g id="matplotlib.axis_4">
    <g id="ytick_3">
     <g id="line2d_16">
      <g>
       <use xlink:href="#md142f09a46" x="42.82625" y="156.094602" style="stroke: #000000; stroke-width: 0.8"/>
      </g>
     </g>
     <g id="text_11">
      <!-- 0.0 -->
      <g transform="translate(23.10375 159.133977) scale(0.08 -0.08)">
       <defs>
        <path id="DejaVuSans-2e" d="M 684 794 
L 1344 794 
L 1344 0 
L 684 0 
L 684 794 
z
" transform="scale(0.015625)"/>
       </defs>
       <use xlink:href="#DejaVuSans-30"/>
       <use xlink:href="#DejaVuSans-2e" x="63.623047"/>
       <use xlink:href="#DejaVuSans-30" x="95.410156"/>
      </g>
     </g>
    </g>
    <g id="ytick_4">
     <g id="line2d_17">
      <g>
       <use xlink:href="#md142f09a46" x="42.82625" y="133.004992" style="stroke: #000000; stroke-width: 0.8"/>
      </g>
     </g>
     <g id="text_12">
      <!-- 0.5 -->
      <g transform="translate(23.10375 136.044367) scale(0.08 -0.08)">
       <use xlink:href="#DejaVuSans-30"/>
       <use xlink:href="#DejaVuSans-2e" x="63.623047"/>
       <use xlink:href="#DejaVuSans-35" x="95.410156"/>
      </g>
     </g>
    </g>
    <g id="ytick_5">
     <g id="line2d_18">
      <g>
       <use xlink:href="#md142f09a46" x="42.82625" y="109.915383" style="stroke: #000000; stroke-width: 0.8"/>
      </g>
     </g>
     <g id="text_13">
      <!-- 1.0 -->
      <g transform="translate(23.10375 112.954758) scale(0.08 -0.08)">
       <use xlink:href="#DejaVuSans-31"/>
       <use xlink:href="#DejaVuSans-2e" x="63.623047"/>
       <use xlink:href="#DejaVuSans-30" x="95.410156"/>
      </g>
     </g>
    </g>
    <g id="text_14">
     <!-- Current (A/F) -->
     <g transform="translate(17.44 151.892625) rotate(-90) scale(0.08 -0.08)">
      <defs>
       <path id="DejaVuSans-43" d="M 4122 4306 
L 4122 3641 
Q 3803 3938 3442 4084 
Q 3081 4231 2675 4231 
Q 1875 4231 1450 3742 
Q 1025 3253 1025 2328 
Q 1025 1406 1450 917 
Q 1875 428 2675 428 
Q 3081 428 3442 575 
Q 3803 722 4122 1019 
L 4122 359 
Q 3791 134 3420 21 
Q 3050 -91 2638 -91 
Q 1578 -91 968 557 
Q 359 1206 359 2328 
Q 359 3453 968 4101 
Q 1578 4750 2638 4750 
Q 3056 4750 3426 4639 
Q 3797 4528 4122 4306 
z
" transform="scale(0.015625)"/>
       <path id="DejaVuSans-75" d="M 544 1381 
L 544 3500 
L 1119 3500 
L 1119 1403 
Q 1119 906 1312 657 
Q 1506 409 1894 409 
Q 2359 409 2629 706 
Q 2900 1003 2900 1516 
L 2900 3500 
L 3475 3500 
L 3475 0 
L 2900 0 
L 2900 538 
Q 2691 219 2414 64 
Q 2138 -91 1772 -91 
Q 1169 -91 856 284 
Q 544 659 544 1381 
z
M 1991 3584 
L 1991 3584 
z
" transform="scale(0.015625)"/>
       <path id="DejaVuSans-41" d="M 2188 4044 
L 1331 1722 
L 3047 1722 
L 2188 4044 
z
M 1831 4666 
L 2547 4666 
L 4325 0 
L 3669 0 
L 3244 1197 
L 1141 1197 
L 716 0 
L 50 0 
L 1831 4666 
z
" transform="scale(0.015625)"/>
       <path id="DejaVuSans-2f" d="M 1625 4666 
L 2156 4666 
L 531 -594 
L 0 -594 
L 1625 4666 
z
" transform="scale(0.015625)"/>
       <path id="DejaVuSans-46" d="M 628 4666 
L 3309 4666 
L 3309 4134 
L 1259 4134 
L 1259 2759 
L 3109 2759 
L 3109 2228 
L 1259 2228 
L 1259 0 
L 628 0 
L 628 4666 
z
" transform="scale(0.015625)"/>
      </defs>
      <use xlink:href="#DejaVuSans-43"/>
      <use xlink:href="#DejaVuSans-75" x="69.824219"/>
      <use xlink:href="#DejaVuSans-72" x="133.203125"/>
      <use xlink:href="#DejaVuSans-72" x="172.566406"/>
      <use xlink:href="#DejaVuSans-65" x="211.429688"/>
      <use xlink:href="#DejaVuSans-6e" x="272.953125"/>
      <use xlink:href="#DejaVuSans-74" x="336.332031"/>
      <use xlink:href="#DejaVuSans-20" x="375.541016"/>
      <use xlink:href="#DejaVuSans-28" x="407.328125"/>
      <use xlink:href="#DejaVuSans-41" x="446.341797"/>
      <use xlink:href="#DejaVuSans-2f" x="514.75"/>
      <use xlink:href="#DejaVuSans-46" x="548.441406"/>
      <use xlink:href="#DejaVuSans-29" x="605.960938"/>
     </g>
    </g>
   </g>
   <g id="line2d_19">
    <path d="M 42.82625 156.072948 
L 60.298625 155.979971 
L 60.40325 155.871172 
L 60.438125 155.892497 
L 60.6125 156.046093 
L 62.35625 155.691552 
L 65.669375 155.475183 
L 114.7385 152.083571 
L 121.120625 151.346396 
L 125.96825 150.56833 
L 130.6415 149.587919 
L 140.4065 147.422508 
L 141.836375 147.442418 
L 142.98725 147.676207 
L 143.998625 148.110432 
L 144.975125 148.781726 
L 146.05625 149.817351 
L 149.54375 153.4263 
L 150.624875 154.067712 
L 151.810625 154.510042 
L 153.31025 154.821144 
L 155.577125 155.039113 
L 160.250375 155.2161 
L 174.688625 155.481252 
L 199.798625 155.723444 
L 199.798625 155.723444 
" clip-path="url(#p37298d86bc)" style="fill: none; stroke-dasharray: 5.55,2.4; stroke-dashoffset: 0; stroke: #000000; stroke-width: 1.5"/>
   </g>
   <g id="line2d_20">
    <path d="M 42.82625 156.092929 
L 60.473 155.99699 
L 60.647375 155.641432 
L 60.96125 153.812268 
L 61.93775 147.946546 
L 62.809625 144.209501 
L 63.855875 140.675583 
L 64.971875 137.659367 
L 66.1925 135.000283 
L 67.552625 132.576034 
L 69.19175 130.119147 
L 71.319125 127.348174 
L 73.7255 124.57616 
L 76.16675 122.101094 
L 78.887 119.66601 
L 82.235 116.981879 
L 87.431375 113.141613 
L 94.6505 107.759319 
L 97.23125 105.943958 
L 98.521625 105.290558 
L 99.46325 105.042324 
L 100.265375 105.052394 
L 100.99775 105.287742 
L 101.69525 105.750664 
L 102.39275 106.482053 
L 103.125125 107.577611 
L 103.892375 109.129549 
L 104.729375 111.35012 
L 105.60125 114.313641 
L 106.542875 118.321975 
L 107.658875 124.13254 
L 111.146375 143.287318 
L 112.01825 146.362916 
L 112.820375 148.417089 
L 113.6225 149.88038 
L 114.4595 150.950451 
L 115.36625 151.754755 
L 116.447375 152.41263 
L 117.842375 152.987804 
L 119.795375 153.535189 
L 122.69 154.098055 
L 126.7355 154.647212 
L 131.96675 155.123366 
L 138.7325 155.504632 
L 148.00925 155.789649 
L 162.063875 155.977804 
L 188.534 156.072839 
L 199.798625 156.083125 
L 199.798625 156.083125 
" clip-path="url(#p37298d86bc)" style="fill: none; stroke: #000000; stroke-width: 1.5; stroke-linecap: square"/>
   </g>
   <g id="line2d_21">
    <path d="M 42.82625 156.094424 
L 60.752 155.997267 
L 63.018875 154.810975 
L 64.832375 154.263085 
L 67.23875 153.782722 
L 71.667875 153.170904 
L 76.376 152.752789 
L 83.874125 152.334275 
L 98.451875 151.782575 
L 129.211625 150.851919 
L 133.954625 150.948354 
L 137.3375 151.230917 
L 139.91825 151.661392 
L 141.975875 152.221502 
L 143.859125 152.96573 
L 149.229875 155.30276 
L 150.93875 155.609657 
L 153.38 155.798631 
L 158.5415 155.923014 
L 175.246625 156.043364 
L 199.798625 156.084708 
L 199.798625 156.084708 
" clip-path="url(#p37298d86bc)" style="fill: none; stroke: #ff0000; stroke-width: 1.5; stroke-linecap: square"/>
   </g>
   <g id="patch_8">
    <path d="M 42.82625 159.0945 
L 42.82625 93.0945 
" style="fill: none; stroke: #000000; stroke-width: 0.8; stroke-linejoin: miter; stroke-linecap: square"/>
   </g>
   <g id="patch_9">
    <path d="M 199.76375 159.0945 
L 199.76375 93.0945 
" style="fill: none; stroke: #000000; stroke-width: 0.8; stroke-linejoin: miter; stroke-linecap: square"/>
   </g>
   <g id="patch_10">
    <path d="M 42.82625 159.0945 
L 199.76375 159.0945 
" style="fill: none; stroke: #000000; stroke-width: 0.8; stroke-linejoin: miter; stroke-linecap: square"/>
   </g>
   <g id="patch_11">
    <path d="M 42.82625 93.0945 
L 199.76375 93.0945 
" style="fill: none; stroke: #000000; stroke-width: 0.8; stroke-linejoin: miter; stroke-linecap: square"/>
   </g>
   <g id="legend_1">
    <g id="patch_12">
     <path d="M 125.4275 143.68025 
L 194.16375 143.68025 
Q 195.76375 143.68025 195.76375 142.08025 
L 195.76375 98.6945 
Q 195.76375 97.0945 194.16375 97.0945 
L 125.4275 97.0945 
Q 123.8275 97.0945 123.8275 98.6945 
L 123.8275 142.08025 
Q 123.8275 143.68025 125.4275 143.68025 
z
" style="fill: #ffffff; opacity: 0.8; stroke: #cccccc; stroke-linejoin: miter"/>
    </g>
    <g id="line2d_22">
     <path d="M 127.0275 103.57325 
L 133.0275 103.57325 
L 139.0275 103.57325 
" style="fill: none; stroke-dasharray: 5.55,2.4; stroke-dashoffset: 0; stroke: #000000; stroke-width: 1.5"/>
    </g>
    <g id="text_15">
     <!-- AP model -->
     <g transform="translate(145.4275 106.37325) scale(0.08 -0.08)">
      <defs>
       <path id="DejaVuSans-50" d="M 1259 4147 
L 1259 2394 
L 2053 2394 
Q 2494 2394 2734 2622 
Q 2975 2850 2975 3272 
Q 2975 3691 2734 3919 
Q 2494 4147 2053 4147 
L 1259 4147 
z
M 628 4666 
L 2053 4666 
Q 2838 4666 3239 4311 
Q 3641 3956 3641 3272 
Q 3641 2581 3239 2228 
Q 2838 1875 2053 1875 
L 1259 1875 
L 1259 0 
L 628 0 
L 628 4666 
z
" transform="scale(0.015625)"/>
      </defs>
      <use xlink:href="#DejaVuSans-41"/>
      <use xlink:href="#DejaVuSans-50" x="68.408203"/>
      <use xlink:href="#DejaVuSans-20" x="128.710938"/>
      <use xlink:href="#DejaVuSans-6d" x="160.498047"/>
      <use xlink:href="#DejaVuSans-6f" x="257.910156"/>
      <use xlink:href="#DejaVuSans-64" x="319.091797"/>
      <use xlink:href="#DejaVuSans-65" x="382.568359"/>
      <use xlink:href="#DejaVuSans-6c" x="444.091797"/>
     </g>
    </g>
    <g id="line2d_23">
     <path d="M 127.0275 115.31575 
L 133.0275 115.31575 
L 139.0275 115.31575 
" style="fill: none; stroke: #000000; stroke-width: 1.5; stroke-linecap: square"/>
    </g>
    <g id="text_16">
     <!-- AP-Li model -->
     <g transform="translate(145.4275 118.11575) scale(0.08 -0.08)">
      <use xlink:href="#DejaVuSans-41"/>
      <use xlink:href="#DejaVuSans-50" x="68.408203"/>
      <use xlink:href="#DejaVuSans-2d" x="126.460938"/>
      <use xlink:href="#DejaVuSans-4c" x="162.544922"/>
      <use xlink:href="#DejaVuSans-69" x="218.257812"/>
      <use xlink:href="#DejaVuSans-20" x="246.041016"/>
      <use xlink:href="#DejaVuSans-6d" x="277.828125"/>
      <use xlink:href="#DejaVuSans-6f" x="375.240234"/>
      <use xlink:href="#DejaVuSans-64" x="436.421875"/>
      <use xlink:href="#DejaVuSans-65" x="499.898438"/>
      <use xlink:href="#DejaVuSans-6c" x="561.421875"/>
     </g>
    </g>
    <g id="line2d_24">
     <path d="M 127.0275 132.36925 
L 133.0275 132.36925 
L 139.0275 132.36925 
" style="fill: none; stroke: #ff0000; stroke-width: 1.5; stroke-linecap: square"/>
    </g>
    <g id="text_17">
     <!-- calibrated  -->
     <g transform="translate(145.4275 129.85825) scale(0.08 -0.08)">
      <defs>
       <path id="DejaVuSans-63" d="M 3122 3366 
L 3122 2828 
Q 2878 2963 2633 3030 
Q 2388 3097 2138 3097 
Q 1578 3097 1268 2742 
Q 959 2388 959 1747 
Q 959 1106 1268 751 
Q 1578 397 2138 397 
Q 2388 397 2633 464 
Q 2878 531 3122 666 
L 3122 134 
Q 2881 22 2623 -34 
Q 2366 -91 2075 -91 
Q 1284 -91 818 406 
Q 353 903 353 1747 
Q 353 2603 823 3093 
Q 1294 3584 2113 3584 
Q 2378 3584 2631 3529 
Q 2884 3475 3122 3366 
z
" transform="scale(0.015625)"/>
       <path id="DejaVuSans-62" d="M 3116 1747 
Q 3116 2381 2855 2742 
Q 2594 3103 2138 3103 
Q 1681 3103 1420 2742 
Q 1159 2381 1159 1747 
Q 1159 1113 1420 752 
Q 1681 391 2138 391 
Q 2594 391 2855 752 
Q 3116 1113 3116 1747 
z
M 1159 2969 
Q 1341 3281 1617 3432 
Q 1894 3584 2278 3584 
Q 2916 3584 3314 3078 
Q 3713 2572 3713 1747 
Q 3713 922 3314 415 
Q 2916 -91 2278 -91 
Q 1894 -91 1617 61 
Q 1341 213 1159 525 
L 1159 0 
L 581 0 
L 581 4863 
L 1159 4863 
L 1159 2969 
z
" transform="scale(0.015625)"/>
      </defs>
      <use xlink:href="#DejaVuSans-63"/>
      <use xlink:href="#DejaVuSans-61" x="54.980469"/>
      <use xlink:href="#DejaVuSans-6c" x="116.259766"/>
      <use xlink:href="#DejaVuSans-69" x="144.042969"/>
      <use xlink:href="#DejaVuSans-62" x="171.826172"/>
      <use xlink:href="#DejaVuSans-72" x="235.302734"/>
      <use xlink:href="#DejaVuSans-61" x="276.416016"/>
      <use xlink:href="#DejaVuSans-74" x="337.695312"/>
      <use xlink:href="#DejaVuSans-65" x="376.904297"/>
      <use xlink:href="#DejaVuSans-64" x="438.427734"/>
      <use xlink:href="#DejaVuSans-20" x="501.904297"/>
     </g>
     <!-- AP-Li model -->
     <g transform="translate(145.4275 138.8165) scale(0.08 -0.08)">
      <use xlink:href="#DejaVuSans-41"/>
      <use xlink:href="#DejaVuSans-50" x="68.408203"/>
      <use xlink:href="#DejaVuSans-2d" x="126.460938"/>
      <use xlink:href="#DejaVuSans-4c" x="162.544922"/>
      <use xlink:href="#DejaVuSans-69" x="218.257812"/>
      <use xlink:href="#DejaVuSans-20" x="246.041016"/>
      <use xlink:href="#DejaVuSans-6d" x="277.828125"/>
      <use xlink:href="#DejaVuSans-6f" x="375.240234"/>
      <use xlink:href="#DejaVuSans-64" x="436.421875"/>
      <use xlink:href="#DejaVuSans-65" x="499.898438"/>
      <use xlink:href="#DejaVuSans-6c" x="561.421875"/>
     </g>
    </g>
   </g>
  </g>
  <g id="axes_3">
   <g id="patch_13">
    <path d="M 215.4575 86.4945 
L 372.395 86.4945 
L 372.395 20.4945 
L 215.4575 20.4945 
z
" style="fill: #ffffff"/>
   </g>
   <g id="matplotlib.axis_5">
    <g id="xtick_11">
     <g id="line2d_25">
      <g>
       <use xlink:href="#md9a2f4d9b8" x="215.4575" y="86.4945" style="stroke: #000000; stroke-width: 0.8"/>
      </g>
     </g>
    </g>
    <g id="xtick_12">
     <g id="line2d_26">
      <g>
       <use xlink:href="#md9a2f4d9b8" x="250.3325" y="86.4945" style="stroke: #000000; stroke-width: 0.8"/>
      </g>
     </g>
    </g>
    <g id="xtick_13">
     <g id="line2d_27">
      <g>
       <use xlink:href="#md9a2f4d9b8" x="285.2075" y="86.4945" style="stroke: #000000; stroke-width: 0.8"/>
      </g>
     </g>
    </g>
    <g id="xtick_14">
     <g id="line2d_28">
      <g>
       <use xlink:href="#md9a2f4d9b8" x="320.0825" y="86.4945" style="stroke: #000000; stroke-width: 0.8"/>
      </g>
     </g>
    </g>
    <g id="xtick_15">
     <g id="line2d_29">
      <g>
       <use xlink:href="#md9a2f4d9b8" x="354.9575" y="86.4945" style="stroke: #000000; stroke-width: 0.8"/>
      </g>
     </g>
    </g>
   </g>
   <g id="matplotlib.axis_6">
    <g id="ytick_6">
     <g id="line2d_30">
      <g>
       <use xlink:href="#md142f09a46" x="215.4575" y="64.554142" style="stroke: #000000; stroke-width: 0.8"/>
      </g>
     </g>
    </g>
    <g id="ytick_7">
     <g id="line2d_31">
      <g>
       <use xlink:href="#md142f09a46" x="215.4575" y="41.181579" style="stroke: #000000; stroke-width: 0.8"/>
      </g>
     </g>
    </g>
   </g>
   <g id="line2d_32">
    <path d="M 215.4575 81.093184 
L 232.895 81.095524 
L 233.174 68.792083 
L 233.3135 67.226333 
L 233.418125 62.765309 
L 233.66225 24.787214 
L 233.766875 25.450636 
L 234.35975 30.027014 
L 235.161875 32.754805 
L 235.5455 33.490734 
L 235.929125 33.788473 
L 236.347625 33.840736 
L 236.9405 33.669226 
L 238.161125 33.022305 
L 241.33475 31.340412 
L 243.671375 30.332624 
L 245.275625 29.909856 
L 247.158875 29.649356 
L 249.669875 29.539735 
L 253.6805 29.61199 
L 260.6555 29.97974 
L 268.607 30.616771 
L 276.593375 31.479985 
L 284.30075 32.533274 
L 291.206 33.695538 
L 297.099875 34.90614 
L 302.087 36.150082 
L 306.376625 37.444378 
L 310.10825 38.799539 
L 313.421375 40.235107 
L 316.4555 41.787816 
L 319.17575 43.424633 
L 321.4775 45.06376 
L 323.4305 46.726636 
L 325.139375 48.472635 
L 326.743625 50.430823 
L 328.347875 52.747218 
L 330.021875 55.568959 
L 331.695875 58.832745 
L 333.1955 62.232291 
L 334.555625 65.871156 
L 336.2645 71.187446 
L 337.52 74.795391 
L 338.391875 76.645972 
L 339.194 77.83837 
L 339.996125 78.645737 
L 340.902875 79.237178 
L 341.984 79.661754 
L 343.379 79.957766 
L 345.54125 80.164618 
L 350.109875 80.327092 
L 367.338125 80.631085 
L 372.429875 80.695278 
L 372.429875 80.695278 
" clip-path="url(#p6f5ad1f165)" style="fill: none; stroke-dasharray: 5.55,2.4; stroke-dashoffset: 0; stroke: #000000; stroke-width: 1.5"/>
   </g>
   <g id="line2d_33">
    <path d="M 215.4575 81.122937 
L 232.895 81.124867 
L 233.139125 45.839495 
L 233.278625 24.63707 
L 233.3135 24.573155 
L 233.348375 24.719103 
L 233.732 28.173275 
L 234.08075 30.09604 
L 235.022375 32.800898 
L 235.440875 33.380013 
L 235.859375 33.606362 
L 236.3825 33.63346 
L 237.254375 33.416246 
L 241.61375 32.094359 
L 243.56675 31.718481 
L 245.624375 31.56828 
L 248.414375 31.606282 
L 253.47125 31.936298 
L 261.70175 32.690935 
L 268.1885 33.502987 
L 273.83825 34.43022 
L 278.7905 35.462877 
L 283.080125 36.579724 
L 286.776875 37.768154 
L 289.985375 39.029626 
L 292.845125 40.39176 
L 295.425875 41.867461 
L 297.69275 43.415736 
L 299.610875 44.985873 
L 301.284875 46.643309 
L 302.749625 48.40411 
L 304.144625 50.429184 
L 305.5745 52.906551 
L 307.143875 56.084016 
L 308.9225 60.199648 
L 310.631375 64.702672 
L 312.968 71.632646 
L 314.118875 74.593787 
L 314.99075 76.263133 
L 315.82775 77.409466 
L 316.699625 78.233174 
L 317.676125 78.844152 
L 318.827 79.295772 
L 320.326625 79.635241 
L 322.558625 79.890954 
L 326.743625 80.106567 
L 338.915 80.442752 
L 357.782375 80.752957 
L 372.429875 80.884152 
L 372.429875 80.884152 
" clip-path="url(#p6f5ad1f165)" style="fill: none; stroke: #000000; stroke-width: 1.5; stroke-linecap: square"/>
   </g>
   <g id="line2d_34">
    <path d="M 215.4575 81.095424 
L 232.895 81.09773 
L 233.139125 45.687807 
L 233.278625 24.644279 
L 233.3135 24.582986 
L 233.348375 24.730307 
L 233.732 28.18627 
L 234.08075 30.105107 
L 235.161875 33.230801 
L 235.5455 33.585397 
L 235.964 33.685251 
L 236.556875 33.568885 
L 237.672875 33.066065 
L 241.05575 31.496318 
L 243.42725 30.627461 
L 245.136125 30.270095 
L 247.228625 30.071477 
L 250.193 30.034296 
L 255.389375 30.223431 
L 263.201375 30.730903 
L 270.943625 31.455055 
L 278.5115 32.385334 
L 285.521375 33.466039 
L 291.69425 34.636835 
L 296.99525 35.863283 
L 301.529 37.134266 
L 305.50475 38.475625 
L 309.062 39.907192 
L 312.375125 41.478766 
L 315.40925 43.159559 
L 317.99 44.833478 
L 320.15225 46.492195 
L 322.070375 48.242822 
L 323.883875 50.206243 
L 325.73225 52.548542 
L 327.755 55.48384 
L 329.952125 59.067834 
L 331.87025 62.610166 
L 333.4745 66.039812 
L 335.4275 70.818329 
L 336.927125 74.249608 
L 337.9385 76.01501 
L 338.880125 77.212043 
L 339.82175 78.056674 
L 340.868 78.697701 
L 342.1235 79.19588 
L 343.72775 79.578048 
L 345.994625 79.871318 
L 349.86575 80.11768 
L 358.65425 80.407458 
L 372.429875 80.673898 
L 372.429875 80.673898 
" clip-path="url(#p6f5ad1f165)" style="fill: none; stroke: #ff0000; stroke-width: 1.5; stroke-linecap: square"/>
   </g>
   <g id="patch_14">
    <path d="M 215.4575 86.4945 
L 215.4575 20.4945 
" style="fill: none; stroke: #000000; stroke-width: 0.8; stroke-linejoin: miter; stroke-linecap: square"/>
   </g>
   <g id="patch_15">
    <path d="M 372.395 86.4945 
L 372.395 20.4945 
" style="fill: none; stroke: #000000; stroke-width: 0.8; stroke-linejoin: miter; stroke-linecap: square"/>
   </g>
   <g id="patch_16">
    <path d="M 215.4575 86.4945 
L 372.395 86.4945 
" style="fill: none; stroke: #000000; stroke-width: 0.8; stroke-linejoin: miter; stroke-linecap: square"/>
   </g>
   <g id="patch_17">
    <path d="M 215.4575 20.4945 
L 372.395 20.4945 
" style="fill: none; stroke: #000000; stroke-width: 0.8; stroke-linejoin: miter; stroke-linecap: square"/>
   </g>
   <g id="text_18">
    <!-- ten Tusscher-Li -->
    <g transform="translate(258.233 14.4945) scale(0.096 -0.096)">
     <defs>
      <path id="DejaVuSans-68" d="M 3513 2113 
L 3513 0 
L 2938 0 
L 2938 2094 
Q 2938 2591 2744 2837 
Q 2550 3084 2163 3084 
Q 1697 3084 1428 2787 
Q 1159 2491 1159 1978 
L 1159 0 
L 581 0 
L 581 4863 
L 1159 4863 
L 1159 2956 
Q 1366 3272 1645 3428 
Q 1925 3584 2291 3584 
Q 2894 3584 3203 3211 
Q 3513 2838 3513 2113 
z
" transform="scale(0.015625)"/>
     </defs>
     <use xlink:href="#DejaVuSans-74"/>
     <use xlink:href="#DejaVuSans-65" x="39.208984"/>
     <use xlink:href="#DejaVuSans-6e" x="100.732422"/>
     <use xlink:href="#DejaVuSans-20" x="164.111328"/>
     <use xlink:href="#DejaVuSans-54" x="195.898438"/>
     <use xlink:href="#DejaVuSans-75" x="241.857422"/>
     <use xlink:href="#DejaVuSans-73" x="305.236328"/>
     <use xlink:href="#DejaVuSans-73" x="357.335938"/>
     <use xlink:href="#DejaVuSans-63" x="409.435547"/>
     <use xlink:href="#DejaVuSans-68" x="464.416016"/>
     <use xlink:href="#DejaVuSans-65" x="527.794922"/>
     <use xlink:href="#DejaVuSans-72" x="589.318359"/>
     <use xlink:href="#DejaVuSans-2d" x="624.056641"/>
     <use xlink:href="#DejaVuSans-4c" x="660.140625"/>
     <use xlink:href="#DejaVuSans-69" x="715.853516"/>
    </g>
   </g>
  </g>
  <g id="axes_4">
   <g id="patch_18">
    <path d="M 215.4575 159.0945 
L 372.395 159.0945 
L 372.395 93.0945 
L 215.4575 93.0945 
z
" style="fill: #ffffff"/>
   </g>
   <g id="matplotlib.axis_7">
    <g id="xtick_16">
     <g id="line2d_35">
      <g>
       <use xlink:href="#md9a2f4d9b8" x="215.4575" y="159.0945" style="stroke: #000000; stroke-width: 0.8"/>
      </g>
     </g>
     <g id="text_19">
      <!-- 0 -->
      <g transform="translate(212.9125 172.17325) scale(0.08 -0.08)">
       <use xlink:href="#DejaVuSans-30"/>
      </g>
     </g>
    </g>
    <g id="xtick_17">
     <g id="line2d_36">
      <g>
       <use xlink:href="#md9a2f4d9b8" x="250.3325" y="159.0945" style="stroke: #000000; stroke-width: 0.8"/>
      </g>
     </g>
     <g id="text_20">
      <!-- 100 -->
      <g transform="translate(242.6975 172.17325) scale(0.08 -0.08)">
       <use xlink:href="#DejaVuSans-31"/>
       <use xlink:href="#DejaVuSans-30" x="63.623047"/>
       <use xlink:href="#DejaVuSans-30" x="127.246094"/>
      </g>
     </g>
    </g>
    <g id="xtick_18">
     <g id="line2d_37">
      <g>
       <use xlink:href="#md9a2f4d9b8" x="285.2075" y="159.0945" style="stroke: #000000; stroke-width: 0.8"/>
      </g>
     </g>
     <g id="text_21">
      <!-- 200 -->
      <g transform="translate(277.5725 172.17325) scale(0.08 -0.08)">
       <use xlink:href="#DejaVuSans-32"/>
       <use xlink:href="#DejaVuSans-30" x="63.623047"/>
       <use xlink:href="#DejaVuSans-30" x="127.246094"/>
      </g>
     </g>
    </g>
    <g id="xtick_19">
     <g id="line2d_38">
      <g>
       <use xlink:href="#md9a2f4d9b8" x="320.0825" y="159.0945" style="stroke: #000000; stroke-width: 0.8"/>
      </g>
     </g>
     <g id="text_22">
      <!-- 300 -->
      <g transform="translate(312.4475 172.17325) scale(0.08 -0.08)">
       <use xlink:href="#DejaVuSans-33"/>
       <use xlink:href="#DejaVuSans-30" x="63.623047"/>
       <use xlink:href="#DejaVuSans-30" x="127.246094"/>
      </g>
     </g>
    </g>
    <g id="xtick_20">
     <g id="line2d_39">
      <g>
       <use xlink:href="#md9a2f4d9b8" x="354.9575" y="159.0945" style="stroke: #000000; stroke-width: 0.8"/>
      </g>
     </g>
     <g id="text_23">
      <!-- 400 -->
      <g transform="translate(347.3225 172.17325) scale(0.08 -0.08)">
       <use xlink:href="#DejaVuSans-34"/>
       <use xlink:href="#DejaVuSans-30" x="63.623047"/>
       <use xlink:href="#DejaVuSans-30" x="127.246094"/>
      </g>
     </g>
    </g>
    <g id="text_24">
     <!-- Time (ms) -->
     <g transform="translate(273.766875 183.91575) scale(0.08 -0.08)">
      <use xlink:href="#DejaVuSans-54"/>
      <use xlink:href="#DejaVuSans-69" x="57.958984"/>
      <use xlink:href="#DejaVuSans-6d" x="85.742188"/>
      <use xlink:href="#DejaVuSans-65" x="183.154297"/>
      <use xlink:href="#DejaVuSans-20" x="244.677734"/>
      <use xlink:href="#DejaVuSans-28" x="276.464844"/>
      <use xlink:href="#DejaVuSans-6d" x="315.478516"/>
      <use xlink:href="#DejaVuSans-73" x="412.890625"/>
      <use xlink:href="#DejaVuSans-29" x="464.990234"/>
     </g>
    </g>
   </g>
   <g id="matplotlib.axis_8">
    <g id="ytick_8">
     <g id="line2d_40">
      <g>
       <use xlink:href="#md142f09a46" x="215.4575" y="156.094602" style="stroke: #000000; stroke-width: 0.8"/>
      </g>
     </g>
    </g>
    <g id="ytick_9">
     <g id="line2d_41">
      <g>
       <use xlink:href="#md142f09a46" x="215.4575" y="133.004992" style="stroke: #000000; stroke-width: 0.8"/>
      </g>
     </g>
    </g>
    <g id="ytick_10">
     <g id="line2d_42">
      <g>
       <use xlink:href="#md142f09a46" x="215.4575" y="109.915383" style="stroke: #000000; stroke-width: 0.8"/>
      </g>
     </g>
    </g>
   </g>
   <g id="line2d_43">
    <path d="M 215.4575 156.094125 
L 233.487875 156.039191 
L 233.52275 155.789762 
L 233.66225 148.279878 
L 233.906375 140.062566 
L 234.08075 139.083761 
L 234.185375 139.291763 
L 234.464375 140.844266 
L 235.719875 148.508816 
L 236.277875 150.209993 
L 236.835875 151.218911 
L 237.393875 151.796148 
L 238.021625 152.129099 
L 238.788875 152.270396 
L 239.87 152.217374 
L 241.89275 151.847199 
L 248.17025 150.653966 
L 252.91325 149.960324 
L 258.07475 149.444366 
L 266.270375 148.882294 
L 282.801125 147.754695 
L 291.3455 146.936617 
L 297.97175 146.087408 
L 303.237875 145.197275 
L 307.5275 144.255257 
L 311.119625 143.245835 
L 314.2235 142.146924 
L 316.94375 140.953529 
L 319.385 139.642573 
L 321.512375 138.249494 
L 323.325875 136.802051 
L 324.930125 135.241192 
L 326.394875 133.506517 
L 327.789875 131.509204 
L 329.21975 129.063405 
L 330.858875 125.784665 
L 333.927875 119.504695 
L 334.555625 118.738112 
L 334.974125 118.510889 
L 335.322875 118.561967 
L 335.63675 118.839605 
L 336.020375 119.529902 
L 336.47375 120.902426 
L 337.03175 123.428694 
L 337.833875 128.283064 
L 339.507875 138.565553 
L 340.344875 142.237166 
L 341.147 144.777047 
L 341.949125 146.581737 
L 342.786125 147.913641 
L 343.692875 148.936291 
L 344.739125 149.779069 
L 346.064375 150.549838 
L 347.843 151.314335 
L 350.354 152.139189 
L 353.667125 152.986087 
L 357.608 153.758427 
L 362.14175 154.414805 
L 367.477625 154.95595 
L 372.429875 155.300153 
L 372.429875 155.300153 
" clip-path="url(#pe6d34b2efd)" style="fill: none; stroke-dasharray: 5.55,2.4; stroke-dashoffset: 0; stroke: #000000; stroke-width: 1.5"/>
   </g>
   <g id="line2d_44">
    <path d="M 215.4575 156.094156 
L 233.208875 155.995914 
L 233.348375 155.562603 
L 233.766875 152.998938 
L 234.63875 147.99615 
L 235.650125 143.870024 
L 236.87075 139.834003 
L 238.161125 136.31112 
L 239.486375 133.31745 
L 240.811625 130.850054 
L 242.136875 128.835123 
L 243.56675 127.069457 
L 245.24075 125.357193 
L 247.089125 123.783103 
L 249.111875 122.354117 
L 251.274125 121.101342 
L 253.645625 119.990087 
L 256.331 118.984722 
L 259.574375 118.017677 
L 264.0035 116.946649 
L 280.046 113.257972 
L 284.475125 111.916961 
L 288.311375 110.526687 
L 291.764 109.041197 
L 295.112 107.356978 
L 298.739 105.274305 
L 304.005125 102.217072 
L 305.121125 101.869378 
L 305.958125 101.83527 
L 306.655625 102.02581 
L 307.31825 102.450252 
L 307.946 103.125512 
L 308.608625 104.189878 
L 309.27125 105.689578 
L 309.96875 107.835448 
L 310.701125 110.840625 
L 311.50325 115.159485 
L 312.444875 121.591442 
L 314.886125 139.016994 
L 315.723125 143.066846 
L 316.52525 145.887852 
L 317.327375 147.907697 
L 318.1295 149.353012 
L 319.001375 150.476754 
L 319.977875 151.370181 
L 321.12875 152.113081 
L 322.558625 152.762845 
L 324.47675 153.379136 
L 327.162125 153.994839 
L 330.789125 154.58689 
L 335.322875 155.093895 
L 340.972625 155.493415 
L 348.435875 155.785896 
L 359.49125 155.976658 
L 372.429875 156.054508 
L 372.429875 156.054508 
" clip-path="url(#pe6d34b2efd)" style="fill: none; stroke: #000000; stroke-width: 1.5; stroke-linecap: square"/>
   </g>
   <g id="line2d_45">
    <path d="M 215.4575 156.094409 
L 233.278625 155.995799 
L 233.557625 155.424971 
L 234.7085 152.842815 
L 235.8245 151.126877 
L 237.184625 149.453782 
L 238.649375 148.003925 
L 240.149 146.831167 
L 241.718375 145.890022 
L 243.42725 145.13483 
L 245.763875 144.363633 
L 248.763125 143.614255 
L 252.2855 142.967422 
L 256.505375 142.427407 
L 262.294625 141.928575 
L 274.187 141.184921 
L 287.9975 140.235713 
L 297.169625 139.387045 
L 304.493375 138.493133 
L 310.980125 137.479193 
L 319.03625 135.970499 
L 324.162875 135.086724 
L 326.185625 134.959648 
L 327.68525 135.076966 
L 328.975625 135.397857 
L 330.1265 135.915928 
L 331.17275 136.634687 
L 332.14925 137.582788 
L 333.056 138.772698 
L 333.96275 140.330959 
L 334.974125 142.534361 
L 338.322125 150.283849 
L 339.26375 151.649216 
L 340.205375 152.630025 
L 341.21675 153.368825 
L 342.4025 153.956903 
L 343.902125 154.438985 
L 345.924875 154.840956 
L 348.993875 155.204701 
L 353.91125 155.544048 
L 361.30475 155.817422 
L 372.429875 155.992236 
L 372.429875 155.992236 
" clip-path="url(#pe6d34b2efd)" style="fill: none; stroke: #ff0000; stroke-width: 1.5; stroke-linecap: square"/>
   </g>
   <g id="patch_19">
    <path d="M 215.4575 159.0945 
L 215.4575 93.0945 
" style="fill: none; stroke: #000000; stroke-width: 0.8; stroke-linejoin: miter; stroke-linecap: square"/>
   </g>
   <g id="patch_20">
    <path d="M 372.395 159.0945 
L 372.395 93.0945 
" style="fill: none; stroke: #000000; stroke-width: 0.8; stroke-linejoin: miter; stroke-linecap: square"/>
   </g>
   <g id="patch_21">
    <path d="M 215.4575 159.0945 
L 372.395 159.0945 
" style="fill: none; stroke: #000000; stroke-width: 0.8; stroke-linejoin: miter; stroke-linecap: square"/>
   </g>
   <g id="patch_22">
    <path d="M 215.4575 93.0945 
L 372.395 93.0945 
" style="fill: none; stroke: #000000; stroke-width: 0.8; stroke-linejoin: miter; stroke-linecap: square"/>
   </g>
  </g>
  <g id="axes_5">
   <g id="patch_23">
    <path d="M 388.08875 86.4945 
L 545.02625 86.4945 
L 545.02625 20.4945 
L 388.08875 20.4945 
z
" style="fill: #ffffff"/>
   </g>
   <g id="matplotlib.axis_9">
    <g id="xtick_21">
     <g id="line2d_46">
      <g>
       <use xlink:href="#md9a2f4d9b8" x="388.08875" y="86.4945" style="stroke: #000000; stroke-width: 0.8"/>
      </g>
     </g>
    </g>
    <g id="xtick_22">
     <g id="line2d_47">
      <g>
       <use xlink:href="#md9a2f4d9b8" x="422.96375" y="86.4945" style="stroke: #000000; stroke-width: 0.8"/>
      </g>
     </g>
    </g>
    <g id="xtick_23">
     <g id="line2d_48">
      <g>
       <use xlink:href="#md9a2f4d9b8" x="457.83875" y="86.4945" style="stroke: #000000; stroke-width: 0.8"/>
      </g>
     </g>
    </g>
    <g id="xtick_24">
     <g id="line2d_49">
      <g>
       <use xlink:href="#md9a2f4d9b8" x="492.71375" y="86.4945" style="stroke: #000000; stroke-width: 0.8"/>
      </g>
     </g>
    </g>
    <g id="xtick_25">
     <g id="line2d_50">
      <g>
       <use xlink:href="#md9a2f4d9b8" x="527.58875" y="86.4945" style="stroke: #000000; stroke-width: 0.8"/>
      </g>
     </g>
    </g>
   </g>
   <g id="matplotlib.axis_10">
    <g id="ytick_11">
     <g id="line2d_51">
      <g>
       <use xlink:href="#md142f09a46" x="388.08875" y="64.554142" style="stroke: #000000; stroke-width: 0.8"/>
      </g>
     </g>
    </g>
    <g id="ytick_12">
     <g id="line2d_52">
      <g>
       <use xlink:href="#md142f09a46" x="388.08875" y="41.181579" style="stroke: #000000; stroke-width: 0.8"/>
      </g>
     </g>
    </g>
   </g>
   <g id="line2d_53">
    <path d="M 388.08875 83.599703 
L 405.52625 83.600867 
L 405.80525 52.0077 
L 405.979625 26.045731 
L 406.049375 26.289968 
L 407.304875 34.498319 
L 407.75825 35.516928 
L 408.107 35.844585 
L 408.420875 35.868527 
L 408.8045 35.659636 
L 409.502 34.9592 
L 410.68775 33.795452 
L 411.559625 33.266155 
L 412.571 32.912872 
L 413.931125 32.689851 
L 415.884125 32.613791 
L 418.91825 32.738208 
L 423.138125 33.140815 
L 427.7765 33.805431 
L 432.72875 34.744837 
L 438.86675 36.133067 
L 444.202625 37.574656 
L 449.503625 39.235855 
L 454.21175 40.936094 
L 457.943375 42.510751 
L 460.90775 43.997211 
L 463.41875 45.504031 
L 465.7205 47.146407 
L 468.126875 49.146983 
L 471.0215 51.859393 
L 474.57875 55.503321 
L 477.1595 58.441628 
L 479.04275 60.913632 
L 480.71675 63.477236 
L 482.53025 66.684109 
L 484.9715 71.503316 
L 487.97075 77.359426 
L 489.22625 79.317715 
L 490.2725 80.556765 
L 491.249 81.383763 
L 492.260375 81.957751 
L 493.446125 82.367262 
L 494.980625 82.644563 
L 497.352125 82.8217 
L 502.89725 82.952275 
L 528.28625 83.232139 
L 545.061125 83.346207 
L 545.061125 83.346207 
" clip-path="url(#pb30eef94cb)" style="fill: none; stroke-dasharray: 5.55,2.4; stroke-dashoffset: 0; stroke: #000000; stroke-width: 1.5"/>
   </g>
   <g id="line2d_54">
    <path d="M 388.08875 83.614038 
L 405.52625 83.615134 
L 405.80525 52.101381 
L 405.979625 26.035228 
L 406.049375 26.276739 
L 406.537625 30.566994 
L 406.991 33.309721 
L 407.4095 34.660084 
L 407.828 35.340066 
L 408.211625 35.567332 
L 408.59525 35.522557 
L 409.118375 35.188561 
L 411.280625 33.534093 
L 412.257125 33.200312 
L 413.47775 33.026432 
L 415.15175 33.02803 
L 417.593 33.271668 
L 421.045625 33.851751 
L 425.33525 34.803487 
L 430.252625 36.099927 
L 434.26325 37.392627 
L 438.134375 38.873667 
L 441.761375 40.497305 
L 445.00475 42.18814 
L 447.829625 43.907548 
L 450.3755 45.71677 
L 452.991125 47.857232 
L 457.3505 51.780474 
L 465.825125 59.60304 
L 467.6735 61.742316 
L 469.3475 64.021653 
L 471.161 66.883684 
L 473.46275 70.970996 
L 477.299 77.840553 
L 478.5545 79.577246 
L 479.635625 80.700047 
L 480.681875 81.464837 
L 481.797875 81.997422 
L 483.123125 82.368617 
L 484.90175 82.616452 
L 487.901 82.776322 
L 496.863875 82.939874 
L 527.832875 83.284685 
L 545.061125 83.392345 
L 545.061125 83.392345 
" clip-path="url(#pb30eef94cb)" style="fill: none; stroke: #000000; stroke-width: 1.5; stroke-linecap: square"/>
   </g>
   <g id="line2d_55">
    <path d="M 388.08875 83.608174 
L 405.52625 83.6093 
L 405.80525 52.064239 
L 405.979625 26.039791 
L 406.049375 26.282647 
L 406.537625 30.570049 
L 406.991 33.322895 
L 407.444375 34.79997 
L 407.862875 35.489194 
L 408.211625 35.700952 
L 408.560375 35.662389 
L 409.048625 35.339536 
L 411.38525 33.428492 
L 412.36175 33.085338 
L 413.61725 32.892602 
L 415.361 32.868773 
L 417.94175 33.076421 
L 421.6385 33.609585 
L 426.067625 34.473956 
L 432.135875 35.911889 
L 436.91375 37.280275 
L 441.831125 38.924166 
L 446.783375 40.813485 
L 451.14275 42.706929 
L 454.63025 44.455535 
L 457.664375 46.223969 
L 460.76825 48.299877 
L 465.894875 52.055546 
L 474.125375 58.282822 
L 476.3225 60.280499 
L 478.136 62.223436 
L 479.87975 64.426067 
L 481.728125 67.139924 
L 483.890375 70.738768 
L 488.66825 78.880499 
L 489.819125 80.280568 
L 490.865375 81.213968 
L 491.911625 81.854146 
L 493.097375 82.309446 
L 494.562125 82.618358 
L 496.6895 82.818091 
L 500.94425 82.947226 
L 521.31125 83.19234 
L 545.061125 83.368049 
L 545.061125 83.368049 
" clip-path="url(#pb30eef94cb)" style="fill: none; stroke: #ff0000; stroke-width: 1.5; stroke-linecap: square"/>
   </g>
   <g id="patch_24">
    <path d="M 388.08875 86.4945 
L 388.08875 20.4945 
" style="fill: none; stroke: #000000; stroke-width: 0.8; stroke-linejoin: miter; stroke-linecap: square"/>
   </g>
   <g id="patch_25">
    <path d="M 545.02625 86.4945 
L 545.02625 20.4945 
" style="fill: none; stroke: #000000; stroke-width: 0.8; stroke-linejoin: miter; stroke-linecap: square"/>
   </g>
   <g id="patch_26">
    <path d="M 388.08875 86.4945 
L 545.02625 86.4945 
" style="fill: none; stroke: #000000; stroke-width: 0.8; stroke-linejoin: miter; stroke-linecap: square"/>
   </g>
   <g id="patch_27">
    <path d="M 388.08875 20.4945 
L 545.02625 20.4945 
" style="fill: none; stroke: #000000; stroke-width: 0.8; stroke-linejoin: miter; stroke-linecap: square"/>
   </g>
   <g id="text_25">
    <!-- Tomek-Li -->
    <g transform="translate(445.3565 14.4945) scale(0.096 -0.096)">
     <defs>
      <path id="DejaVuSans-6b" d="M 581 4863 
L 1159 4863 
L 1159 1991 
L 2875 3500 
L 3609 3500 
L 1753 1863 
L 3688 0 
L 2938 0 
L 1159 1709 
L 1159 0 
L 581 0 
L 581 4863 
z
" transform="scale(0.015625)"/>
     </defs>
     <use xlink:href="#DejaVuSans-54"/>
     <use xlink:href="#DejaVuSans-6f" x="44.083984"/>
     <use xlink:href="#DejaVuSans-6d" x="105.265625"/>
     <use xlink:href="#DejaVuSans-65" x="202.677734"/>
     <use xlink:href="#DejaVuSans-6b" x="264.201172"/>
     <use xlink:href="#DejaVuSans-2d" x="322.111328"/>
     <use xlink:href="#DejaVuSans-4c" x="358.195312"/>
     <use xlink:href="#DejaVuSans-69" x="413.908203"/>
    </g>
   </g>
  </g>
  <g id="axes_6">
   <g id="patch_28">
    <path d="M 388.08875 159.0945 
L 545.02625 159.0945 
L 545.02625 93.0945 
L 388.08875 93.0945 
z
" style="fill: #ffffff"/>
   </g>
   <g id="matplotlib.axis_11">
    <g id="xtick_26">
     <g id="line2d_56">
      <g>
       <use xlink:href="#md9a2f4d9b8" x="388.08875" y="159.0945" style="stroke: #000000; stroke-width: 0.8"/>
      </g>
     </g>
     <g id="text_26">
      <!-- 0 -->
      <g transform="translate(385.54375 172.17325) scale(0.08 -0.08)">
       <use xlink:href="#DejaVuSans-30"/>
      </g>
     </g>
    </g>
    <g id="xtick_27">
     <g id="line2d_57">
      <g>
       <use xlink:href="#md9a2f4d9b8" x="422.96375" y="159.0945" style="stroke: #000000; stroke-width: 0.8"/>
      </g>
     </g>
     <g id="text_27">
      <!-- 100 -->
      <g transform="translate(415.32875 172.17325) scale(0.08 -0.08)">
       <use xlink:href="#DejaVuSans-31"/>
       <use xlink:href="#DejaVuSans-30" x="63.623047"/>
       <use xlink:href="#DejaVuSans-30" x="127.246094"/>
      </g>
     </g>
    </g>
    <g id="xtick_28">
     <g id="line2d_58">
      <g>
       <use xlink:href="#md9a2f4d9b8" x="457.83875" y="159.0945" style="stroke: #000000; stroke-width: 0.8"/>
      </g>
     </g>
     <g id="text_28">
      <!-- 200 -->
      <g transform="translate(450.20375 172.17325) scale(0.08 -0.08)">
       <use xlink:href="#DejaVuSans-32"/>
       <use xlink:href="#DejaVuSans-30" x="63.623047"/>
       <use xlink:href="#DejaVuSans-30" x="127.246094"/>
      </g>
     </g>
    </g>
    <g id="xtick_29">
     <g id="line2d_59">
      <g>
       <use xlink:href="#md9a2f4d9b8" x="492.71375" y="159.0945" style="stroke: #000000; stroke-width: 0.8"/>
      </g>
     </g>
     <g id="text_29">
      <!-- 300 -->
      <g transform="translate(485.07875 172.17325) scale(0.08 -0.08)">
       <use xlink:href="#DejaVuSans-33"/>
       <use xlink:href="#DejaVuSans-30" x="63.623047"/>
       <use xlink:href="#DejaVuSans-30" x="127.246094"/>
      </g>
     </g>
    </g>
    <g id="xtick_30">
     <g id="line2d_60">
      <g>
       <use xlink:href="#md9a2f4d9b8" x="527.58875" y="159.0945" style="stroke: #000000; stroke-width: 0.8"/>
      </g>
     </g>
     <g id="text_30">
      <!-- 400 -->
      <g transform="translate(519.95375 172.17325) scale(0.08 -0.08)">
       <use xlink:href="#DejaVuSans-34"/>
       <use xlink:href="#DejaVuSans-30" x="63.623047"/>
       <use xlink:href="#DejaVuSans-30" x="127.246094"/>
      </g>
     </g>
    </g>
    <g id="text_31">
     <!-- Time (ms) -->
     <g transform="translate(446.398125 183.91575) scale(0.08 -0.08)">
      <use xlink:href="#DejaVuSans-54"/>
      <use xlink:href="#DejaVuSans-69" x="57.958984"/>
      <use xlink:href="#DejaVuSans-6d" x="85.742188"/>
      <use xlink:href="#DejaVuSans-65" x="183.154297"/>
      <use xlink:href="#DejaVuSans-20" x="244.677734"/>
      <use xlink:href="#DejaVuSans-28" x="276.464844"/>
      <use xlink:href="#DejaVuSans-6d" x="315.478516"/>
      <use xlink:href="#DejaVuSans-73" x="412.890625"/>
      <use xlink:href="#DejaVuSans-29" x="464.990234"/>
     </g>
    </g>
   </g>
   <g id="matplotlib.axis_12">
    <g id="ytick_13">
     <g id="line2d_61">
      <g>
       <use xlink:href="#md142f09a46" x="388.08875" y="156.094602" style="stroke: #000000; stroke-width: 0.8"/>
      </g>
     </g>
    </g>
    <g id="ytick_14">
     <g id="line2d_62">
      <g>
       <use xlink:href="#md142f09a46" x="388.08875" y="133.004992" style="stroke: #000000; stroke-width: 0.8"/>
      </g>
     </g>
    </g>
    <g id="ytick_15">
     <g id="line2d_63">
      <g>
       <use xlink:href="#md142f09a46" x="388.08875" y="109.915383" style="stroke: #000000; stroke-width: 0.8"/>
      </g>
     </g>
    </g>
   </g>
   <g id="line2d_64">
    <path d="M 388.08875 156.094351 
L 406.0145 156.000853 
L 406.2935 155.713243 
L 406.746875 154.852637 
L 407.75825 152.311413 
L 410.094875 146.472077 
L 411.071375 144.670238 
L 412.047875 143.333639 
L 413.05925 142.319439 
L 414.210125 141.48569 
L 415.535375 140.80563 
L 417.24425 140.190375 
L 419.929625 139.490896 
L 428.0555 137.478523 
L 431.822 136.264622 
L 435.902375 134.702507 
L 439.668875 133.033409 
L 443.156375 131.246066 
L 446.574125 129.243606 
L 449.88725 127.04457 
L 453.026 124.697979 
L 455.920625 122.261707 
L 458.53625 119.773805 
L 460.90775 117.210684 
L 463.104875 114.503335 
L 465.23225 111.524512 
L 467.638625 107.74929 
L 472.48625 100.022634 
L 473.916125 98.221694 
L 475.067 97.102614 
L 476.0435 96.447093 
L 476.8805 96.143829 
L 477.612875 96.108905 
L 478.2755 96.29242 
L 478.938125 96.711246 
L 479.60075 97.399219 
L 480.29825 98.45364 
L 481.0655 100.052357 
L 481.867625 102.263355 
L 482.774375 105.468622 
L 483.78575 109.934721 
L 484.9715 116.261288 
L 486.71525 126.961896 
L 488.633375 138.374318 
L 489.679625 143.323515 
L 490.586375 146.5885 
L 491.423375 148.790362 
L 492.2255 150.290675 
L 493.027625 151.336686 
L 493.8995 152.109411 
L 494.910875 152.695881 
L 496.166375 153.153277 
L 497.945 153.547727 
L 500.979125 153.96394 
L 506.66375 154.494284 
L 514.61525 155.00983 
L 524.554625 155.422968 
L 537.667625 155.732849 
L 545.061125 155.837355 
L 545.061125 155.837355 
" clip-path="url(#pd8f66e3a9e)" style="fill: none; stroke-dasharray: 5.55,2.4; stroke-dashoffset: 0; stroke: #000000; stroke-width: 1.5"/>
   </g>
   <g id="line2d_65">
    <path d="M 388.08875 156.094481 
L 405.909875 156.013329 
L 406.049375 155.553438 
L 406.5725 152.488698 
L 407.304875 148.895129 
L 408.31625 145.192411 
L 409.781 140.66572 
L 411.3155 136.663055 
L 412.9895 132.894552 
L 414.59375 129.815823 
L 416.232875 127.143604 
L 417.94175 124.775716 
L 419.790125 122.597355 
L 421.778 120.600525 
L 424.01 118.67995 
L 426.45125 116.873085 
L 429.345875 115.022945 
L 433.670375 112.54751 
L 446.085875 105.555899 
L 455.60675 99.973617 
L 457.3505 99.322538 
L 458.919875 98.969823 
L 460.384625 98.864627 
L 461.779625 98.982471 
L 463.104875 99.312313 
L 464.360375 99.853485 
L 465.51125 100.591176 
L 466.592375 101.554448 
L 467.60375 102.762988 
L 468.58025 104.291221 
L 469.521875 106.18276 
L 470.498375 108.662309 
L 471.50975 111.860651 
L 472.62575 116.16761 
L 473.951 122.242513 
L 476.0435 133.099054 
L 477.752375 141.479027 
L 478.8335 145.702294 
L 479.74025 148.395692 
L 480.57725 150.22748 
L 481.41425 151.539142 
L 482.286125 152.489883 
L 483.22775 153.187754 
L 484.34375 153.735736 
L 485.8085 154.197404 
L 487.97075 154.626323 
L 491.423375 155.061942 
L 496.48025 155.464356 
L 503.280875 155.770738 
L 513.08075 155.970948 
L 530.588 156.072046 
L 545.061125 156.088816 
L 545.061125 156.088816 
" clip-path="url(#pd8f66e3a9e)" style="fill: none; stroke: #000000; stroke-width: 1.5; stroke-linecap: square"/>
   </g>
   <g id="line2d_66">
    <path d="M 388.08875 156.094499 
L 405.909875 156.027598 
L 406.049375 155.649048 
L 406.5725 153.127213 
L 407.304875 150.174379 
L 408.31625 147.139507 
L 409.781 143.4252 
L 411.350375 140.077997 
L 413.05925 136.936475 
L 414.698375 134.385523 
L 416.372375 132.193842 
L 418.116125 130.273582 
L 419.999375 128.528984 
L 422.057 126.925435 
L 424.393625 125.390419 
L 427.113875 123.87515 
L 430.148 122.439592 
L 434.507375 120.646696 
L 443.784125 117.133031 
L 457.3505 111.929256 
L 462.233 110.124243 
L 464.744 109.435546 
L 466.871375 109.076817 
L 468.85925 108.964229 
L 470.7425 109.08004 
L 472.48625 109.408312 
L 474.055625 109.926947 
L 475.450625 110.620438 
L 476.706125 111.497043 
L 477.822125 112.545602 
L 478.868375 113.829116 
L 479.914625 115.478588 
L 480.960875 117.569925 
L 482.042 120.262228 
L 483.192875 123.753947 
L 484.518125 128.518446 
L 486.401375 136.230431 
L 488.459 144.428797 
L 489.540125 147.855997 
L 490.446875 150.05341 
L 491.31875 151.60224 
L 492.15575 152.655328 
L 493.0625 153.43742 
L 494.073875 154.010591 
L 495.329375 154.457027 
L 497.108 154.832264 
L 499.96775 155.181112 
L 504.85025 155.532118 
L 512.069375 155.816501 
L 522.810875 155.997213 
L 543.387125 156.081143 
L 545.061125 156.083107 
L 545.061125 156.083107 
" clip-path="url(#pd8f66e3a9e)" style="fill: none; stroke: #ff0000; stroke-width: 1.5; stroke-linecap: square"/>
   </g>
   <g id="patch_29">
    <path d="M 388.08875 159.0945 
L 388.08875 93.0945 
" style="fill: none; stroke: #000000; stroke-width: 0.8; stroke-linejoin: miter; stroke-linecap: square"/>
   </g>
   <g id="patch_30">
    <path d="M 545.02625 159.0945 
L 545.02625 93.0945 
" style="fill: none; stroke: #000000; stroke-width: 0.8; stroke-linejoin: miter; stroke-linecap: square"/>
   </g>
   <g id="patch_31">
    <path d="M 388.08875 159.0945 
L 545.02625 159.0945 
" style="fill: none; stroke: #000000; stroke-width: 0.8; stroke-linejoin: miter; stroke-linecap: square"/>
   </g>
   <g id="patch_32">
    <path d="M 388.08875 93.0945 
L 545.02625 93.0945 
" style="fill: none; stroke: #000000; stroke-width: 0.8; stroke-linejoin: miter; stroke-linecap: square"/>
   </g>
  </g>
 </g>
 <defs>
  <clipPath id="p5dbcd57722">
   <rect x="42.82625" y="20.4945" width="156.9375" height="66"/>
  </clipPath>
  <clipPath id="p37298d86bc">
   <rect x="42.82625" y="93.0945" width="156.9375" height="66"/>
  </clipPath>
  <clipPath id="p6f5ad1f165">
   <rect x="215.4575" y="20.4945" width="156.9375" height="66"/>
  </clipPath>
  <clipPath id="pe6d34b2efd">
   <rect x="215.4575" y="93.0945" width="156.9375" height="66"/>
  </clipPath>
  <clipPath id="pb30eef94cb">
   <rect x="388.08875" y="20.4945" width="156.9375" height="66"/>
  </clipPath>
  <clipPath id="pd8f66e3a9e">
   <rect x="388.08875" y="93.0945" width="156.9375" height="66"/>
  </clipPath>
 </defs>
</svg>
