<?xml version="1.0" encoding="utf-8" standalone="no"?>
<!DOCTYPE svg PUBLIC "-//W3C//DTD SVG 1.1//EN"
  "http://www.w3.org/Graphics/SVG/1.1/DTD/svg11.dtd">
<svg xmlns:xlink="http://www.w3.org/1999/xlink" width="559.86125pt" height="331.3795pt" viewBox="0 0 559.86125 331.3795" xmlns="http://www.w3.org/2000/svg" version="1.1">
 <metadata>
  <rdf:RDF xmlns:dc="http://purl.org/dc/elements/1.1/" xmlns:cc="http://creativecommons.org/ns#" xmlns:rdf="http://www.w3.org/1999/02/22-rdf-syntax-ns#">
   <cc:Work>
    <dc:type rdf:resource="http://purl.org/dc/dcmitype/StillImage"/>
    <dc:date>2023-09-22T15:09:43.331368</dc:date>
    <dc:format>image/svg+xml</dc:format>
    <dc:creator>
     <cc:Agent>
      <dc:title>Matplotlib v3.7.2, https://matplotlib.org/</dc:title>
     </cc:Agent>
    </dc:creator>
   </cc:Work>
  </rdf:RDF>
 </metadata>
 <defs>
  <style type="text/css">*{stroke-linejoin: round; stroke-linecap: butt}</style>
 </defs>
 <g id="figure_1">
  <g id="patch_1">
   <path d="M 0 331.3795 
L 559.86125 331.3795 
L 559.86125 0 
L 0 0 
z
" style="fill: #ffffff"/>
  </g>
  <g id="axes_1">
   <g id="patch_2">
    <path d="M 42.82625 75.4945 
L 281.969107 75.4945 
L 281.969107 20.4945 
L 42.82625 20.4945 
z
" style="fill: #ffffff"/>
   </g>
   <g id="matplotlib.axis_1">
    <g id="xtick_1">
     <g id="line2d_1">
      <defs>
       <path id="m3cf23530be" d="M 0 0 
L 0 3.5 
" style="stroke: #000000; stroke-width: 0.8"/>
      </defs>
      <g>
       <use xlink:href="#m3cf23530be" x="42.82625" y="75.4945" style="stroke: #000000; stroke-width: 0.8"/>
      </g>
     </g>
    </g>
    <g id="xtick_2">
     <g id="line2d_2">
      <g>
       <use xlink:href="#m3cf23530be" x="72.719107" y="75.4945" style="stroke: #000000; stroke-width: 0.8"/>
      </g>
     </g>
    </g>
    <g id="xtick_3">
     <g id="line2d_3">
      <g>
       <use xlink:href="#m3cf23530be" x="102.611964" y="75.4945" style="stroke: #000000; stroke-width: 0.8"/>
      </g>
     </g>
    </g>
    <g id="xtick_4">
     <g id="line2d_4">
      <g>
       <use xlink:href="#m3cf23530be" x="132.504821" y="75.4945" style="stroke: #000000; stroke-width: 0.8"/>
      </g>
     </g>
    </g>
    <g id="xtick_5">
     <g id="line2d_5">
      <g>
       <use xlink:href="#m3cf23530be" x="162.397679" y="75.4945" style="stroke: #000000; stroke-width: 0.8"/>
      </g>
     </g>
    </g>
    <g id="xtick_6">
     <g id="line2d_6">
      <g>
       <use xlink:href="#m3cf23530be" x="192.290536" y="75.4945" style="stroke: #000000; stroke-width: 0.8"/>
      </g>
     </g>
    </g>
    <g id="xtick_7">
     <g id="line2d_7">
      <g>
       <use xlink:href="#m3cf23530be" x="222.183393" y="75.4945" style="stroke: #000000; stroke-width: 0.8"/>
      </g>
     </g>
    </g>
    <g id="xtick_8">
     <g id="line2d_8">
      <g>
       <use xlink:href="#m3cf23530be" x="252.07625" y="75.4945" style="stroke: #000000; stroke-width: 0.8"/>
      </g>
     </g>
    </g>
    <g id="xtick_9">
     <g id="line2d_9">
      <g>
       <use xlink:href="#m3cf23530be" x="281.969107" y="75.4945" style="stroke: #000000; stroke-width: 0.8"/>
      </g>
     </g>
    </g>
   </g>
   <g id="matplotlib.axis_2">
    <g id="ytick_1">
     <g id="line2d_10">
      <defs>
       <path id="m9fa5e1086c" d="M 0 0 
L -3.5 0 
" style="stroke: #000000; stroke-width: 0.8"/>
      </defs>
      <g>
       <use xlink:href="#m9fa5e1086c" x="42.82625" y="57.504269" style="stroke: #000000; stroke-width: 0.8"/>
      </g>
     </g>
     <g id="text_1">
      <!-- −50 -->
      <g transform="translate(18.9425 60.543644) scale(0.08 -0.08)">
       <defs>
        <path id="DejaVuSans-2212" d="M 678 2272 
L 4684 2272 
L 4684 1741 
L 678 1741 
L 678 2272 
z
" transform="scale(0.015625)"/>
        <path id="DejaVuSans-35" d="M 691 4666 
L 3169 4666 
L 3169 4134 
L 1269 4134 
L 1269 2991 
Q 1406 3038 1543 3061 
Q 1681 3084 1819 3084 
Q 2600 3084 3056 2656 
Q 3513 2228 3513 1497 
Q 3513 744 3044 326 
Q 2575 -91 1722 -91 
Q 1428 -91 1123 -41 
Q 819 9 494 109 
L 494 744 
Q 775 591 1075 516 
Q 1375 441 1709 441 
Q 2250 441 2565 725 
Q 2881 1009 2881 1497 
Q 2881 1984 2565 2268 
Q 2250 2553 1709 2553 
Q 1456 2553 1204 2497 
Q 953 2441 691 2322 
L 691 4666 
z
" transform="scale(0.015625)"/>
        <path id="DejaVuSans-30" d="M 2034 4250 
Q 1547 4250 1301 3770 
Q 1056 3291 1056 2328 
Q 1056 1369 1301 889 
Q 1547 409 2034 409 
Q 2525 409 2770 889 
Q 3016 1369 3016 2328 
Q 3016 3291 2770 3770 
Q 2525 4250 2034 4250 
z
M 2034 4750 
Q 2819 4750 3233 4129 
Q 3647 3509 3647 2328 
Q 3647 1150 3233 529 
Q 2819 -91 2034 -91 
Q 1250 -91 836 529 
Q 422 1150 422 2328 
Q 422 3509 836 4129 
Q 1250 4750 2034 4750 
z
" transform="scale(0.015625)"/>
       </defs>
       <use xlink:href="#DejaVuSans-2212"/>
       <use xlink:href="#DejaVuSans-35" x="83.789062"/>
       <use xlink:href="#DejaVuSans-30" x="147.412109"/>
      </g>
     </g>
    </g>
    <g id="ytick_2">
     <g id="line2d_11">
      <g>
       <use xlink:href="#m9fa5e1086c" x="42.82625" y="38.32612" style="stroke: #000000; stroke-width: 0.8"/>
      </g>
     </g>
     <g id="text_2">
      <!-- 0 -->
      <g transform="translate(30.73625 41.365495) scale(0.08 -0.08)">
       <use xlink:href="#DejaVuSans-30"/>
      </g>
     </g>
    </g>
    <g id="text_3">
     <!-- Voltage (mV) -->
     <g transform="translate(13.27875 74.0245) rotate(-90) scale(0.08 -0.08)">
      <defs>
       <path id="DejaVuSans-56" d="M 1831 0 
L 50 4666 
L 709 4666 
L 2188 738 
L 3669 4666 
L 4325 4666 
L 2547 0 
L 1831 0 
z
" transform="scale(0.015625)"/>
       <path id="DejaVuSans-6f" d="M 1959 3097 
Q 1497 3097 1228 2736 
Q 959 2375 959 1747 
Q 959 1119 1226 758 
Q 1494 397 1959 397 
Q 2419 397 2687 759 
Q 2956 1122 2956 1747 
Q 2956 2369 2687 2733 
Q 2419 3097 1959 3097 
z
M 1959 3584 
Q 2709 3584 3137 3096 
Q 3566 2609 3566 1747 
Q 3566 888 3137 398 
Q 2709 -91 1959 -91 
Q 1206 -91 779 398 
Q 353 888 353 1747 
Q 353 2609 779 3096 
Q 1206 3584 1959 3584 
z
" transform="scale(0.015625)"/>
       <path id="DejaVuSans-6c" d="M 603 4863 
L 1178 4863 
L 1178 0 
L 603 0 
L 603 4863 
z
" transform="scale(0.015625)"/>
       <path id="DejaVuSans-74" d="M 1172 4494 
L 1172 3500 
L 2356 3500 
L 2356 3053 
L 1172 3053 
L 1172 1153 
Q 1172 725 1289 603 
Q 1406 481 1766 481 
L 2356 481 
L 2356 0 
L 1766 0 
Q 1100 0 847 248 
Q 594 497 594 1153 
L 594 3053 
L 172 3053 
L 172 3500 
L 594 3500 
L 594 4494 
L 1172 4494 
z
" transform="scale(0.015625)"/>
       <path id="DejaVuSans-61" d="M 2194 1759 
Q 1497 1759 1228 1600 
Q 959 1441 959 1056 
Q 959 750 1161 570 
Q 1363 391 1709 391 
Q 2188 391 2477 730 
Q 2766 1069 2766 1631 
L 2766 1759 
L 2194 1759 
z
M 3341 1997 
L 3341 0 
L 2766 0 
L 2766 531 
Q 2569 213 2275 61 
Q 1981 -91 1556 -91 
Q 1019 -91 701 211 
Q 384 513 384 1019 
Q 384 1609 779 1909 
Q 1175 2209 1959 2209 
L 2766 2209 
L 2766 2266 
Q 2766 2663 2505 2880 
Q 2244 3097 1772 3097 
Q 1472 3097 1187 3025 
Q 903 2953 641 2809 
L 641 3341 
Q 956 3463 1253 3523 
Q 1550 3584 1831 3584 
Q 2591 3584 2966 3190 
Q 3341 2797 3341 1997 
z
" transform="scale(0.015625)"/>
       <path id="DejaVuSans-67" d="M 2906 1791 
Q 2906 2416 2648 2759 
Q 2391 3103 1925 3103 
Q 1463 3103 1205 2759 
Q 947 2416 947 1791 
Q 947 1169 1205 825 
Q 1463 481 1925 481 
Q 2391 481 2648 825 
Q 2906 1169 2906 1791 
z
M 3481 434 
Q 3481 -459 3084 -895 
Q 2688 -1331 1869 -1331 
Q 1566 -1331 1297 -1286 
Q 1028 -1241 775 -1147 
L 775 -588 
Q 1028 -725 1275 -790 
Q 1522 -856 1778 -856 
Q 2344 -856 2625 -561 
Q 2906 -266 2906 331 
L 2906 616 
Q 2728 306 2450 153 
Q 2172 0 1784 0 
Q 1141 0 747 490 
Q 353 981 353 1791 
Q 353 2603 747 3093 
Q 1141 3584 1784 3584 
Q 2172 3584 2450 3431 
Q 2728 3278 2906 2969 
L 2906 3500 
L 3481 3500 
L 3481 434 
z
" transform="scale(0.015625)"/>
       <path id="DejaVuSans-65" d="M 3597 1894 
L 3597 1613 
L 953 1613 
Q 991 1019 1311 708 
Q 1631 397 2203 397 
Q 2534 397 2845 478 
Q 3156 559 3463 722 
L 3463 178 
Q 3153 47 2828 -22 
Q 2503 -91 2169 -91 
Q 1331 -91 842 396 
Q 353 884 353 1716 
Q 353 2575 817 3079 
Q 1281 3584 2069 3584 
Q 2775 3584 3186 3129 
Q 3597 2675 3597 1894 
z
M 3022 2063 
Q 3016 2534 2758 2815 
Q 2500 3097 2075 3097 
Q 1594 3097 1305 2825 
Q 1016 2553 972 2059 
L 3022 2063 
z
" transform="scale(0.015625)"/>
       <path id="DejaVuSans-20" transform="scale(0.015625)"/>
       <path id="DejaVuSans-28" d="M 1984 4856 
Q 1566 4138 1362 3434 
Q 1159 2731 1159 2009 
Q 1159 1288 1364 580 
Q 1569 -128 1984 -844 
L 1484 -844 
Q 1016 -109 783 600 
Q 550 1309 550 2009 
Q 550 2706 781 3412 
Q 1013 4119 1484 4856 
L 1984 4856 
z
" transform="scale(0.015625)"/>
       <path id="DejaVuSans-6d" d="M 3328 2828 
Q 3544 3216 3844 3400 
Q 4144 3584 4550 3584 
Q 5097 3584 5394 3201 
Q 5691 2819 5691 2113 
L 5691 0 
L 5113 0 
L 5113 2094 
Q 5113 2597 4934 2840 
Q 4756 3084 4391 3084 
Q 3944 3084 3684 2787 
Q 3425 2491 3425 1978 
L 3425 0 
L 2847 0 
L 2847 2094 
Q 2847 2600 2669 2842 
Q 2491 3084 2119 3084 
Q 1678 3084 1418 2786 
Q 1159 2488 1159 1978 
L 1159 0 
L 581 0 
L 581 3500 
L 1159 3500 
L 1159 2956 
Q 1356 3278 1631 3431 
Q 1906 3584 2284 3584 
Q 2666 3584 2933 3390 
Q 3200 3197 3328 2828 
z
" transform="scale(0.015625)"/>
       <path id="DejaVuSans-29" d="M 513 4856 
L 1013 4856 
Q 1481 4119 1714 3412 
Q 1947 2706 1947 2009 
Q 1947 1309 1714 600 
Q 1481 -109 1013 -844 
L 513 -844 
Q 928 -128 1133 580 
Q 1338 1288 1338 2009 
Q 1338 2731 1133 3434 
Q 928 4138 513 4856 
z
" transform="scale(0.015625)"/>
      </defs>
      <use xlink:href="#DejaVuSans-56"/>
      <use xlink:href="#DejaVuSans-6f" x="60.658203"/>
      <use xlink:href="#DejaVuSans-6c" x="121.839844"/>
      <use xlink:href="#DejaVuSans-74" x="149.623047"/>
      <use xlink:href="#DejaVuSans-61" x="188.832031"/>
      <use xlink:href="#DejaVuSans-67" x="250.111328"/>
      <use xlink:href="#DejaVuSans-65" x="313.587891"/>
      <use xlink:href="#DejaVuSans-20" x="375.111328"/>
      <use xlink:href="#DejaVuSans-28" x="406.898438"/>
      <use xlink:href="#DejaVuSans-6d" x="445.912109"/>
      <use xlink:href="#DejaVuSans-56" x="543.324219"/>
      <use xlink:href="#DejaVuSans-29" x="611.732422"/>
     </g>
    </g>
   </g>
   <g id="line2d_12">
    <path d="M 42.82625 69.540088 
L 57.772679 69.541267 
L 57.952036 42.870796 
L 58.1015 23.580907 
L 58.250964 24.494593 
L 58.908607 28.748759 
L 59.297214 29.856338 
L 59.655929 30.255466 
L 60.014643 30.327582 
L 60.522821 30.17149 
L 63.1235 29.090006 
L 63.9605 29.066192 
L 64.857286 29.279744 
L 66.591071 29.705601 
L 69.042286 30.002343 
L 76.097 30.803726 
L 81.417929 31.675503 
L 87.964464 32.985647 
L 97.350821 35.1112 
L 107.185571 37.546242 
L 113.253821 39.261669 
L 117.588286 40.709086 
L 121.055857 42.097094 
L 124.045143 43.529558 
L 126.884964 45.137814 
L 129.605214 46.932256 
L 131.996643 48.768418 
L 134.208714 50.747916 
L 136.361 52.976547 
L 138.304036 55.304056 
L 140.037821 57.72239 
L 141.741714 60.490509 
L 145.269071 66.399461 
L 146.225643 67.439894 
L 147.152321 68.12306 
L 148.168679 68.588696 
L 149.424179 68.902928 
L 151.21775 69.101359 
L 154.685321 69.219798 
L 168.167 69.346193 
L 206.101036 69.473152 
L 281.999 69.530012 
L 281.999 69.530012 
" clip-path="url(#pafdf6f1a99)" style="fill: none; stroke-dasharray: 5.55,2.4; stroke-dashoffset: 0; stroke: #000000; stroke-width: 1.5"/>
   </g>
   <g id="line2d_13">
    <path d="M 42.82625 69.586192 
L 57.772679 69.586999 
L 57.952036 43.025903 
L 58.1015 23.558857 
L 58.250964 24.480525 
L 58.908607 28.798492 
L 59.297214 29.953139 
L 59.655929 30.396753 
L 60.014643 30.513578 
L 60.522821 30.42063 
L 63.512107 29.524638 
L 64.767607 29.511541 
L 66.172571 29.723924 
L 68.085714 30.257722 
L 71.882107 31.594761 
L 76.395929 33.397405 
L 80.07275 35.098261 
L 83.062036 36.71579 
L 85.453464 38.252955 
L 87.3965 39.75715 
L 89.0705 41.330723 
L 90.595036 43.067595 
L 92.179357 45.224021 
L 93.943036 48.01392 
L 96.035536 51.764797 
L 98.696 57.000356 
L 103.000571 65.627341 
L 103.92725 66.834732 
L 104.794143 67.616886 
L 105.720821 68.156714 
L 106.826857 68.533663 
L 108.3215 68.791249 
L 110.8325 68.968681 
L 117.229571 69.134489 
L 134.687 69.339838 
L 168.705071 69.489246 
L 248.967393 69.570491 
L 281.999 69.579298 
L 281.999 69.579298 
" clip-path="url(#pafdf6f1a99)" style="fill: none; stroke: #000000; stroke-width: 1.5; stroke-linecap: square"/>
   </g>
   <g id="line2d_14">
    <path d="M 42.82625 69.539565 
L 57.772679 69.541045 
L 57.952036 42.870404 
L 58.1015 23.583359 
L 58.250964 24.497546 
L 58.908607 28.757073 
L 59.297214 29.867899 
L 59.655929 30.269988 
L 60.014643 30.345181 
L 60.522821 30.193734 
L 63.1235 29.131577 
L 63.990393 29.103063 
L 64.917071 29.314181 
L 66.830214 29.780743 
L 69.61025 30.139048 
L 76.067107 30.968972 
L 81.567393 31.928693 
L 88.323179 33.345401 
L 97.709536 35.557574 
L 106.737179 37.893178 
L 112.536393 39.609794 
L 116.781179 41.08933 
L 120.278643 42.539139 
L 123.447286 44.093574 
L 126.556143 45.868085 
L 129.485643 47.791455 
L 132.026536 49.721154 
L 134.447857 51.839293 
L 136.719714 54.119567 
L 138.692643 56.411096 
L 140.456321 58.801999 
L 142.279786 61.666047 
L 144.970143 65.922813 
L 146.016393 67.121974 
L 146.972964 67.890297 
L 147.989321 68.41875 
L 149.185036 68.779102 
L 150.79925 69.016129 
L 153.549393 69.161021 
L 161.441107 69.270153 
L 191.064929 69.424836 
L 259.639143 69.517441 
L 281.999 69.52719 
L 281.999 69.52719 
" clip-path="url(#pafdf6f1a99)" style="fill: none; stroke: #ff0000; stroke-width: 1.5; stroke-linecap: square"/>
   </g>
   <g id="patch_3">
    <path d="M 42.82625 75.4945 
L 42.82625 20.4945 
" style="fill: none; stroke: #000000; stroke-width: 0.8; stroke-linejoin: miter; stroke-linecap: square"/>
   </g>
   <g id="patch_4">
    <path d="M 281.969107 75.4945 
L 281.969107 20.4945 
" style="fill: none; stroke: #000000; stroke-width: 0.8; stroke-linejoin: miter; stroke-linecap: square"/>
   </g>
   <g id="patch_5">
    <path d="M 42.82625 75.4945 
L 281.969107 75.4945 
" style="fill: none; stroke: #000000; stroke-width: 0.8; stroke-linejoin: miter; stroke-linecap: square"/>
   </g>
   <g id="patch_6">
    <path d="M 42.82625 20.4945 
L 281.969107 20.4945 
" style="fill: none; stroke: #000000; stroke-width: 0.8; stroke-linejoin: miter; stroke-linecap: square"/>
   </g>
   <g id="text_4">
    <!-- Grandi-Li -->
    <g transform="translate(140.601179 14.4945) scale(0.096 -0.096)">
     <defs>
      <path id="DejaVuSans-47" d="M 3809 666 
L 3809 1919 
L 2778 1919 
L 2778 2438 
L 4434 2438 
L 4434 434 
Q 4069 175 3628 42 
Q 3188 -91 2688 -91 
Q 1594 -91 976 548 
Q 359 1188 359 2328 
Q 359 3472 976 4111 
Q 1594 4750 2688 4750 
Q 3144 4750 3555 4637 
Q 3966 4525 4313 4306 
L 4313 3634 
Q 3963 3931 3569 4081 
Q 3175 4231 2741 4231 
Q 1884 4231 1454 3753 
Q 1025 3275 1025 2328 
Q 1025 1384 1454 906 
Q 1884 428 2741 428 
Q 3075 428 3337 486 
Q 3600 544 3809 666 
z
" transform="scale(0.015625)"/>
      <path id="DejaVuSans-72" d="M 2631 2963 
Q 2534 3019 2420 3045 
Q 2306 3072 2169 3072 
Q 1681 3072 1420 2755 
Q 1159 2438 1159 1844 
L 1159 0 
L 581 0 
L 581 3500 
L 1159 3500 
L 1159 2956 
Q 1341 3275 1631 3429 
Q 1922 3584 2338 3584 
Q 2397 3584 2469 3576 
Q 2541 3569 2628 3553 
L 2631 2963 
z
" transform="scale(0.015625)"/>
      <path id="DejaVuSans-6e" d="M 3513 2113 
L 3513 0 
L 2938 0 
L 2938 2094 
Q 2938 2591 2744 2837 
Q 2550 3084 2163 3084 
Q 1697 3084 1428 2787 
Q 1159 2491 1159 1978 
L 1159 0 
L 581 0 
L 581 3500 
L 1159 3500 
L 1159 2956 
Q 1366 3272 1645 3428 
Q 1925 3584 2291 3584 
Q 2894 3584 3203 3211 
Q 3513 2838 3513 2113 
z
" transform="scale(0.015625)"/>
      <path id="DejaVuSans-64" d="M 2906 2969 
L 2906 4863 
L 3481 4863 
L 3481 0 
L 2906 0 
L 2906 525 
Q 2725 213 2448 61 
Q 2172 -91 1784 -91 
Q 1150 -91 751 415 
Q 353 922 353 1747 
Q 353 2572 751 3078 
Q 1150 3584 1784 3584 
Q 2172 3584 2448 3432 
Q 2725 3281 2906 2969 
z
M 947 1747 
Q 947 1113 1208 752 
Q 1469 391 1925 391 
Q 2381 391 2643 752 
Q 2906 1113 2906 1747 
Q 2906 2381 2643 2742 
Q 2381 3103 1925 3103 
Q 1469 3103 1208 2742 
Q 947 2381 947 1747 
z
" transform="scale(0.015625)"/>
      <path id="DejaVuSans-69" d="M 603 3500 
L 1178 3500 
L 1178 0 
L 603 0 
L 603 3500 
z
M 603 4863 
L 1178 4863 
L 1178 4134 
L 603 4134 
L 603 4863 
z
" transform="scale(0.015625)"/>
      <path id="DejaVuSans-2d" d="M 313 2009 
L 1997 2009 
L 1997 1497 
L 313 1497 
L 313 2009 
z
" transform="scale(0.015625)"/>
      <path id="DejaVuSans-4c" d="M 628 4666 
L 1259 4666 
L 1259 531 
L 3531 531 
L 3531 0 
L 628 0 
L 628 4666 
z
" transform="scale(0.015625)"/>
     </defs>
     <use xlink:href="#DejaVuSans-47"/>
     <use xlink:href="#DejaVuSans-72" x="77.490234"/>
     <use xlink:href="#DejaVuSans-61" x="118.603516"/>
     <use xlink:href="#DejaVuSans-6e" x="179.882812"/>
     <use xlink:href="#DejaVuSans-64" x="243.261719"/>
     <use xlink:href="#DejaVuSans-69" x="306.738281"/>
     <use xlink:href="#DejaVuSans-2d" x="334.521484"/>
     <use xlink:href="#DejaVuSans-4c" x="370.605469"/>
     <use xlink:href="#DejaVuSans-69" x="426.318359"/>
    </g>
   </g>
   <g id="legend_1">
    <g id="patch_7">
     <path d="M 161.169107 62.157 
L 276.369107 62.157 
Q 277.969107 62.157 277.969107 60.557 
L 277.969107 26.0945 
Q 277.969107 24.4945 276.369107 24.4945 
L 161.169107 24.4945 
Q 159.569107 24.4945 159.569107 26.0945 
L 159.569107 60.557 
Q 159.569107 62.157 161.169107 62.157 
z
" style="fill: #ffffff; opacity: 0.8; stroke: #cccccc; stroke-linejoin: miter"/>
    </g>
    <g id="line2d_15">
     <path d="M 162.769107 30.97325 
L 170.769107 30.97325 
L 178.769107 30.97325 
" style="fill: none; stroke-dasharray: 5.55,2.4; stroke-dashoffset: 0; stroke: #000000; stroke-width: 1.5"/>
    </g>
    <g id="text_5">
     <!-- base AP model -->
     <g transform="translate(185.169107 33.77325) scale(0.08 -0.08)">
      <defs>
       <path id="DejaVuSans-62" d="M 3116 1747 
Q 3116 2381 2855 2742 
Q 2594 3103 2138 3103 
Q 1681 3103 1420 2742 
Q 1159 2381 1159 1747 
Q 1159 1113 1420 752 
Q 1681 391 2138 391 
Q 2594 391 2855 752 
Q 3116 1113 3116 1747 
z
M 1159 2969 
Q 1341 3281 1617 3432 
Q 1894 3584 2278 3584 
Q 2916 3584 3314 3078 
Q 3713 2572 3713 1747 
Q 3713 922 3314 415 
Q 2916 -91 2278 -91 
Q 1894 -91 1617 61 
Q 1341 213 1159 525 
L 1159 0 
L 581 0 
L 581 4863 
L 1159 4863 
L 1159 2969 
z
" transform="scale(0.015625)"/>
       <path id="DejaVuSans-73" d="M 2834 3397 
L 2834 2853 
Q 2591 2978 2328 3040 
Q 2066 3103 1784 3103 
Q 1356 3103 1142 2972 
Q 928 2841 928 2578 
Q 928 2378 1081 2264 
Q 1234 2150 1697 2047 
L 1894 2003 
Q 2506 1872 2764 1633 
Q 3022 1394 3022 966 
Q 3022 478 2636 193 
Q 2250 -91 1575 -91 
Q 1294 -91 989 -36 
Q 684 19 347 128 
L 347 722 
Q 666 556 975 473 
Q 1284 391 1588 391 
Q 1994 391 2212 530 
Q 2431 669 2431 922 
Q 2431 1156 2273 1281 
Q 2116 1406 1581 1522 
L 1381 1569 
Q 847 1681 609 1914 
Q 372 2147 372 2553 
Q 372 3047 722 3315 
Q 1072 3584 1716 3584 
Q 2034 3584 2315 3537 
Q 2597 3491 2834 3397 
z
" transform="scale(0.015625)"/>
       <path id="DejaVuSans-41" d="M 2188 4044 
L 1331 1722 
L 3047 1722 
L 2188 4044 
z
M 1831 4666 
L 2547 4666 
L 4325 0 
L 3669 0 
L 3244 1197 
L 1141 1197 
L 716 0 
L 50 0 
L 1831 4666 
z
" transform="scale(0.015625)"/>
       <path id="DejaVuSans-50" d="M 1259 4147 
L 1259 2394 
L 2053 2394 
Q 2494 2394 2734 2622 
Q 2975 2850 2975 3272 
Q 2975 3691 2734 3919 
Q 2494 4147 2053 4147 
L 1259 4147 
z
M 628 4666 
L 2053 4666 
Q 2838 4666 3239 4311 
Q 3641 3956 3641 3272 
Q 3641 2581 3239 2228 
Q 2838 1875 2053 1875 
L 1259 1875 
L 1259 0 
L 628 0 
L 628 4666 
z
" transform="scale(0.015625)"/>
      </defs>
      <use xlink:href="#DejaVuSans-62"/>
      <use xlink:href="#DejaVuSans-61" x="63.476562"/>
      <use xlink:href="#DejaVuSans-73" x="124.755859"/>
      <use xlink:href="#DejaVuSans-65" x="176.855469"/>
      <use xlink:href="#DejaVuSans-20" x="238.378906"/>
      <use xlink:href="#DejaVuSans-41" x="270.166016"/>
      <use xlink:href="#DejaVuSans-50" x="338.574219"/>
      <use xlink:href="#DejaVuSans-20" x="398.876953"/>
      <use xlink:href="#DejaVuSans-6d" x="430.664062"/>
      <use xlink:href="#DejaVuSans-6f" x="528.076172"/>
      <use xlink:href="#DejaVuSans-64" x="589.257812"/>
      <use xlink:href="#DejaVuSans-65" x="652.734375"/>
      <use xlink:href="#DejaVuSans-6c" x="714.257812"/>
     </g>
    </g>
    <g id="line2d_16">
     <path d="M 162.769107 42.717 
L 170.769107 42.717 
L 178.769107 42.717 
" style="fill: none; stroke: #000000; stroke-width: 1.5; stroke-linecap: square"/>
    </g>
    <g id="text_6">
     <!-- $I_\mathrm{Kr}$ replaced -->
     <g transform="translate(185.169107 45.517) scale(0.08 -0.08)">
      <defs>
       <path id="DejaVuSans-Oblique-49" d="M 1081 4666 
L 1716 4666 
L 806 0 
L 172 0 
L 1081 4666 
z
" transform="scale(0.015625)"/>
       <path id="DejaVuSans-4b" d="M 628 4666 
L 1259 4666 
L 1259 2694 
L 3353 4666 
L 4166 4666 
L 1850 2491 
L 4331 0 
L 3500 0 
L 1259 2247 
L 1259 0 
L 628 0 
L 628 4666 
z
" transform="scale(0.015625)"/>
       <path id="DejaVuSans-70" d="M 1159 525 
L 1159 -1331 
L 581 -1331 
L 581 3500 
L 1159 3500 
L 1159 2969 
Q 1341 3281 1617 3432 
Q 1894 3584 2278 3584 
Q 2916 3584 3314 3078 
Q 3713 2572 3713 1747 
Q 3713 922 3314 415 
Q 2916 -91 2278 -91 
Q 1894 -91 1617 61 
Q 1341 213 1159 525 
z
M 3116 1747 
Q 3116 2381 2855 2742 
Q 2594 3103 2138 3103 
Q 1681 3103 1420 2742 
Q 1159 2381 1159 1747 
Q 1159 1113 1420 752 
Q 1681 391 2138 391 
Q 2594 391 2855 752 
Q 3116 1113 3116 1747 
z
" transform="scale(0.015625)"/>
       <path id="DejaVuSans-63" d="M 3122 3366 
L 3122 2828 
Q 2878 2963 2633 3030 
Q 2388 3097 2138 3097 
Q 1578 3097 1268 2742 
Q 959 2388 959 1747 
Q 959 1106 1268 751 
Q 1578 397 2138 397 
Q 2388 397 2633 464 
Q 2878 531 3122 666 
L 3122 134 
Q 2881 22 2623 -34 
Q 2366 -91 2075 -91 
Q 1284 -91 818 406 
Q 353 903 353 1747 
Q 353 2603 823 3093 
Q 1294 3584 2113 3584 
Q 2378 3584 2631 3529 
Q 2884 3475 3122 3366 
z
" transform="scale(0.015625)"/>
      </defs>
      <use xlink:href="#DejaVuSans-Oblique-49" transform="translate(0 0.015625)"/>
      <use xlink:href="#DejaVuSans-4b" transform="translate(29.492188 -16.390625) scale(0.7)"/>
      <use xlink:href="#DejaVuSans-72" transform="translate(75.395508 -16.390625) scale(0.7)"/>
      <use xlink:href="#DejaVuSans-20" transform="translate(106.90918 0.015625)"/>
      <use xlink:href="#DejaVuSans-72" transform="translate(138.696289 0.015625)"/>
      <use xlink:href="#DejaVuSans-65" transform="translate(179.80957 0.015625)"/>
      <use xlink:href="#DejaVuSans-70" transform="translate(241.333008 0.015625)"/>
      <use xlink:href="#DejaVuSans-6c" transform="translate(304.80957 0.015625)"/>
      <use xlink:href="#DejaVuSans-61" transform="translate(332.592773 0.015625)"/>
      <use xlink:href="#DejaVuSans-63" transform="translate(393.87207 0.015625)"/>
      <use xlink:href="#DejaVuSans-65" transform="translate(448.852539 0.015625)"/>
      <use xlink:href="#DejaVuSans-64" transform="translate(510.375977 0.015625)"/>
     </g>
    </g>
    <g id="line2d_17">
     <path d="M 162.769107 54.477 
L 170.769107 54.477 
L 178.769107 54.477 
" style="fill: none; stroke: #ff0000; stroke-width: 1.5; stroke-linecap: square"/>
    </g>
    <g id="text_7">
     <!-- $I_\mathrm{Kr}$ replaced $+  I_\mathrm{Kr}$ tuned -->
     <g transform="translate(185.169107 57.277) scale(0.08 -0.08)">
      <defs>
       <path id="DejaVuSans-2b" d="M 2944 4013 
L 2944 2272 
L 4684 2272 
L 4684 1741 
L 2944 1741 
L 2944 0 
L 2419 0 
L 2419 1741 
L 678 1741 
L 678 2272 
L 2419 2272 
L 2419 4013 
L 2944 4013 
z
" transform="scale(0.015625)"/>
       <path id="DejaVuSans-75" d="M 544 1381 
L 544 3500 
L 1119 3500 
L 1119 1403 
Q 1119 906 1312 657 
Q 1506 409 1894 409 
Q 2359 409 2629 706 
Q 2900 1003 2900 1516 
L 2900 3500 
L 3475 3500 
L 3475 0 
L 2900 0 
L 2900 538 
Q 2691 219 2414 64 
Q 2138 -91 1772 -91 
Q 1169 -91 856 284 
Q 544 659 544 1381 
z
M 1991 3584 
L 1991 3584 
z
" transform="scale(0.015625)"/>
      </defs>
      <use xlink:href="#DejaVuSans-Oblique-49" transform="translate(0 0.015625)"/>
      <use xlink:href="#DejaVuSans-4b" transform="translate(29.492188 -16.390625) scale(0.7)"/>
      <use xlink:href="#DejaVuSans-72" transform="translate(75.395508 -16.390625) scale(0.7)"/>
      <use xlink:href="#DejaVuSans-20" transform="translate(106.90918 0.015625)"/>
      <use xlink:href="#DejaVuSans-72" transform="translate(138.696289 0.015625)"/>
      <use xlink:href="#DejaVuSans-65" transform="translate(179.80957 0.015625)"/>
      <use xlink:href="#DejaVuSans-70" transform="translate(241.333008 0.015625)"/>
      <use xlink:href="#DejaVuSans-6c" transform="translate(304.80957 0.015625)"/>
      <use xlink:href="#DejaVuSans-61" transform="translate(332.592773 0.015625)"/>
      <use xlink:href="#DejaVuSans-63" transform="translate(393.87207 0.015625)"/>
      <use xlink:href="#DejaVuSans-65" transform="translate(448.852539 0.015625)"/>
      <use xlink:href="#DejaVuSans-64" transform="translate(510.375977 0.015625)"/>
      <use xlink:href="#DejaVuSans-20" transform="translate(573.852539 0.015625)"/>
      <use xlink:href="#DejaVuSans-2b" transform="translate(605.639648 0.015625)"/>
      <use xlink:href="#DejaVuSans-Oblique-49" transform="translate(689.428711 0.015625)"/>
      <use xlink:href="#DejaVuSans-4b" transform="translate(718.920898 -16.390625) scale(0.7)"/>
      <use xlink:href="#DejaVuSans-72" transform="translate(764.824219 -16.390625) scale(0.7)"/>
      <use xlink:href="#DejaVuSans-20" transform="translate(796.337891 0.015625)"/>
      <use xlink:href="#DejaVuSans-74" transform="translate(828.125 0.015625)"/>
      <use xlink:href="#DejaVuSans-75" transform="translate(867.333984 0.015625)"/>
      <use xlink:href="#DejaVuSans-6e" transform="translate(930.712891 0.015625)"/>
      <use xlink:href="#DejaVuSans-65" transform="translate(994.091797 0.015625)"/>
      <use xlink:href="#DejaVuSans-64" transform="translate(1055.615234 0.015625)"/>
     </g>
    </g>
   </g>
  </g>
  <g id="axes_2">
   <g id="patch_8">
    <path d="M 42.82625 135.9945 
L 281.969107 135.9945 
L 281.969107 80.9945 
L 42.82625 80.9945 
z
" style="fill: #ffffff"/>
   </g>
   <g id="matplotlib.axis_3">
    <g id="xtick_10">
     <g id="line2d_18">
      <g>
       <use xlink:href="#m3cf23530be" x="42.82625" y="135.9945" style="stroke: #000000; stroke-width: 0.8"/>
      </g>
     </g>
     <g id="text_8">
      <!-- 0 -->
      <g transform="translate(40.28125 149.07325) scale(0.08 -0.08)">
       <use xlink:href="#DejaVuSans-30"/>
      </g>
     </g>
    </g>
    <g id="xtick_11">
     <g id="line2d_19">
      <g>
       <use xlink:href="#m3cf23530be" x="72.719107" y="135.9945" style="stroke: #000000; stroke-width: 0.8"/>
      </g>
     </g>
     <g id="text_9">
      <!-- 100 -->
      <g transform="translate(65.084107 149.07325) scale(0.08 -0.08)">
       <defs>
        <path id="DejaVuSans-31" d="M 794 531 
L 1825 531 
L 1825 4091 
L 703 3866 
L 703 4441 
L 1819 4666 
L 2450 4666 
L 2450 531 
L 3481 531 
L 3481 0 
L 794 0 
L 794 531 
z
" transform="scale(0.015625)"/>
       </defs>
       <use xlink:href="#DejaVuSans-31"/>
       <use xlink:href="#DejaVuSans-30" x="63.623047"/>
       <use xlink:href="#DejaVuSans-30" x="127.246094"/>
      </g>
     </g>
    </g>
    <g id="xtick_12">
     <g id="line2d_20">
      <g>
       <use xlink:href="#m3cf23530be" x="102.611964" y="135.9945" style="stroke: #000000; stroke-width: 0.8"/>
      </g>
     </g>
     <g id="text_10">
      <!-- 200 -->
      <g transform="translate(94.976964 149.07325) scale(0.08 -0.08)">
       <defs>
        <path id="DejaVuSans-32" d="M 1228 531 
L 3431 531 
L 3431 0 
L 469 0 
L 469 531 
Q 828 903 1448 1529 
Q 2069 2156 2228 2338 
Q 2531 2678 2651 2914 
Q 2772 3150 2772 3378 
Q 2772 3750 2511 3984 
Q 2250 4219 1831 4219 
Q 1534 4219 1204 4116 
Q 875 4013 500 3803 
L 500 4441 
Q 881 4594 1212 4672 
Q 1544 4750 1819 4750 
Q 2544 4750 2975 4387 
Q 3406 4025 3406 3419 
Q 3406 3131 3298 2873 
Q 3191 2616 2906 2266 
Q 2828 2175 2409 1742 
Q 1991 1309 1228 531 
z
" transform="scale(0.015625)"/>
       </defs>
       <use xlink:href="#DejaVuSans-32"/>
       <use xlink:href="#DejaVuSans-30" x="63.623047"/>
       <use xlink:href="#DejaVuSans-30" x="127.246094"/>
      </g>
     </g>
    </g>
    <g id="xtick_13">
     <g id="line2d_21">
      <g>
       <use xlink:href="#m3cf23530be" x="132.504821" y="135.9945" style="stroke: #000000; stroke-width: 0.8"/>
      </g>
     </g>
     <g id="text_11">
      <!-- 300 -->
      <g transform="translate(124.869821 149.07325) scale(0.08 -0.08)">
       <defs>
        <path id="DejaVuSans-33" d="M 2597 2516 
Q 3050 2419 3304 2112 
Q 3559 1806 3559 1356 
Q 3559 666 3084 287 
Q 2609 -91 1734 -91 
Q 1441 -91 1130 -33 
Q 819 25 488 141 
L 488 750 
Q 750 597 1062 519 
Q 1375 441 1716 441 
Q 2309 441 2620 675 
Q 2931 909 2931 1356 
Q 2931 1769 2642 2001 
Q 2353 2234 1838 2234 
L 1294 2234 
L 1294 2753 
L 1863 2753 
Q 2328 2753 2575 2939 
Q 2822 3125 2822 3475 
Q 2822 3834 2567 4026 
Q 2313 4219 1838 4219 
Q 1578 4219 1281 4162 
Q 984 4106 628 3988 
L 628 4550 
Q 988 4650 1302 4700 
Q 1616 4750 1894 4750 
Q 2613 4750 3031 4423 
Q 3450 4097 3450 3541 
Q 3450 3153 3228 2886 
Q 3006 2619 2597 2516 
z
" transform="scale(0.015625)"/>
       </defs>
       <use xlink:href="#DejaVuSans-33"/>
       <use xlink:href="#DejaVuSans-30" x="63.623047"/>
       <use xlink:href="#DejaVuSans-30" x="127.246094"/>
      </g>
     </g>
    </g>
    <g id="xtick_14">
     <g id="line2d_22">
      <g>
       <use xlink:href="#m3cf23530be" x="162.397679" y="135.9945" style="stroke: #000000; stroke-width: 0.8"/>
      </g>
     </g>
     <g id="text_12">
      <!-- 400 -->
      <g transform="translate(154.762679 149.07325) scale(0.08 -0.08)">
       <defs>
        <path id="DejaVuSans-34" d="M 2419 4116 
L 825 1625 
L 2419 1625 
L 2419 4116 
z
M 2253 4666 
L 3047 4666 
L 3047 1625 
L 3713 1625 
L 3713 1100 
L 3047 1100 
L 3047 0 
L 2419 0 
L 2419 1100 
L 313 1100 
L 313 1709 
L 2253 4666 
z
" transform="scale(0.015625)"/>
       </defs>
       <use xlink:href="#DejaVuSans-34"/>
       <use xlink:href="#DejaVuSans-30" x="63.623047"/>
       <use xlink:href="#DejaVuSans-30" x="127.246094"/>
      </g>
     </g>
    </g>
    <g id="xtick_15">
     <g id="line2d_23">
      <g>
       <use xlink:href="#m3cf23530be" x="192.290536" y="135.9945" style="stroke: #000000; stroke-width: 0.8"/>
      </g>
     </g>
     <g id="text_13">
      <!-- 500 -->
      <g transform="translate(184.655536 149.07325) scale(0.08 -0.08)">
       <use xlink:href="#DejaVuSans-35"/>
       <use xlink:href="#DejaVuSans-30" x="63.623047"/>
       <use xlink:href="#DejaVuSans-30" x="127.246094"/>
      </g>
     </g>
    </g>
    <g id="xtick_16">
     <g id="line2d_24">
      <g>
       <use xlink:href="#m3cf23530be" x="222.183393" y="135.9945" style="stroke: #000000; stroke-width: 0.8"/>
      </g>
     </g>
     <g id="text_14">
      <!-- 600 -->
      <g transform="translate(214.548393 149.07325) scale(0.08 -0.08)">
       <defs>
        <path id="DejaVuSans-36" d="M 2113 2584 
Q 1688 2584 1439 2293 
Q 1191 2003 1191 1497 
Q 1191 994 1439 701 
Q 1688 409 2113 409 
Q 2538 409 2786 701 
Q 3034 994 3034 1497 
Q 3034 2003 2786 2293 
Q 2538 2584 2113 2584 
z
M 3366 4563 
L 3366 3988 
Q 3128 4100 2886 4159 
Q 2644 4219 2406 4219 
Q 1781 4219 1451 3797 
Q 1122 3375 1075 2522 
Q 1259 2794 1537 2939 
Q 1816 3084 2150 3084 
Q 2853 3084 3261 2657 
Q 3669 2231 3669 1497 
Q 3669 778 3244 343 
Q 2819 -91 2113 -91 
Q 1303 -91 875 529 
Q 447 1150 447 2328 
Q 447 3434 972 4092 
Q 1497 4750 2381 4750 
Q 2619 4750 2861 4703 
Q 3103 4656 3366 4563 
z
" transform="scale(0.015625)"/>
       </defs>
       <use xlink:href="#DejaVuSans-36"/>
       <use xlink:href="#DejaVuSans-30" x="63.623047"/>
       <use xlink:href="#DejaVuSans-30" x="127.246094"/>
      </g>
     </g>
    </g>
    <g id="xtick_17">
     <g id="line2d_25">
      <g>
       <use xlink:href="#m3cf23530be" x="252.07625" y="135.9945" style="stroke: #000000; stroke-width: 0.8"/>
      </g>
     </g>
     <g id="text_15">
      <!-- 700 -->
      <g transform="translate(244.44125 149.07325) scale(0.08 -0.08)">
       <defs>
        <path id="DejaVuSans-37" d="M 525 4666 
L 3525 4666 
L 3525 4397 
L 1831 0 
L 1172 0 
L 2766 4134 
L 525 4134 
L 525 4666 
z
" transform="scale(0.015625)"/>
       </defs>
       <use xlink:href="#DejaVuSans-37"/>
       <use xlink:href="#DejaVuSans-30" x="63.623047"/>
       <use xlink:href="#DejaVuSans-30" x="127.246094"/>
      </g>
     </g>
    </g>
    <g id="xtick_18">
     <g id="line2d_26">
      <g>
       <use xlink:href="#m3cf23530be" x="281.969107" y="135.9945" style="stroke: #000000; stroke-width: 0.8"/>
      </g>
     </g>
     <g id="text_16">
      <!-- 800 -->
      <g transform="translate(274.334107 149.07325) scale(0.08 -0.08)">
       <defs>
        <path id="DejaVuSans-38" d="M 2034 2216 
Q 1584 2216 1326 1975 
Q 1069 1734 1069 1313 
Q 1069 891 1326 650 
Q 1584 409 2034 409 
Q 2484 409 2743 651 
Q 3003 894 3003 1313 
Q 3003 1734 2745 1975 
Q 2488 2216 2034 2216 
z
M 1403 2484 
Q 997 2584 770 2862 
Q 544 3141 544 3541 
Q 544 4100 942 4425 
Q 1341 4750 2034 4750 
Q 2731 4750 3128 4425 
Q 3525 4100 3525 3541 
Q 3525 3141 3298 2862 
Q 3072 2584 2669 2484 
Q 3125 2378 3379 2068 
Q 3634 1759 3634 1313 
Q 3634 634 3220 271 
Q 2806 -91 2034 -91 
Q 1263 -91 848 271 
Q 434 634 434 1313 
Q 434 1759 690 2068 
Q 947 2378 1403 2484 
z
M 1172 3481 
Q 1172 3119 1398 2916 
Q 1625 2713 2034 2713 
Q 2441 2713 2670 2916 
Q 2900 3119 2900 3481 
Q 2900 3844 2670 4047 
Q 2441 4250 2034 4250 
Q 1625 4250 1398 4047 
Q 1172 3844 1172 3481 
z
" transform="scale(0.015625)"/>
       </defs>
       <use xlink:href="#DejaVuSans-38"/>
       <use xlink:href="#DejaVuSans-30" x="63.623047"/>
       <use xlink:href="#DejaVuSans-30" x="127.246094"/>
      </g>
     </g>
    </g>
    <g id="text_17">
     <!-- Time (ms) -->
     <g transform="translate(142.238304 160.81575) scale(0.08 -0.08)">
      <defs>
       <path id="DejaVuSans-54" d="M -19 4666 
L 3928 4666 
L 3928 4134 
L 2272 4134 
L 2272 0 
L 1638 0 
L 1638 4134 
L -19 4134 
L -19 4666 
z
" transform="scale(0.015625)"/>
      </defs>
      <use xlink:href="#DejaVuSans-54"/>
      <use xlink:href="#DejaVuSans-69" x="57.958984"/>
      <use xlink:href="#DejaVuSans-6d" x="85.742188"/>
      <use xlink:href="#DejaVuSans-65" x="183.154297"/>
      <use xlink:href="#DejaVuSans-20" x="244.677734"/>
      <use xlink:href="#DejaVuSans-28" x="276.464844"/>
      <use xlink:href="#DejaVuSans-6d" x="315.478516"/>
      <use xlink:href="#DejaVuSans-73" x="412.890625"/>
      <use xlink:href="#DejaVuSans-29" x="464.990234"/>
     </g>
    </g>
   </g>
   <g id="matplotlib.axis_4">
    <g id="ytick_3">
     <g id="line2d_27">
      <g>
       <use xlink:href="#m9fa5e1086c" x="42.82625" y="133.481896" style="stroke: #000000; stroke-width: 0.8"/>
      </g>
     </g>
     <g id="text_18">
      <!-- 0 -->
      <g transform="translate(30.73625 136.521271) scale(0.08 -0.08)">
       <use xlink:href="#DejaVuSans-30"/>
      </g>
     </g>
    </g>
    <g id="ytick_4">
     <g id="line2d_28">
      <g>
       <use xlink:href="#m9fa5e1086c" x="42.82625" y="113.705824" style="stroke: #000000; stroke-width: 0.8"/>
      </g>
     </g>
     <g id="text_19">
      <!-- 1 -->
      <g transform="translate(30.73625 116.745199) scale(0.08 -0.08)">
       <use xlink:href="#DejaVuSans-31"/>
      </g>
     </g>
    </g>
    <g id="ytick_5">
     <g id="line2d_29">
      <g>
       <use xlink:href="#m9fa5e1086c" x="42.82625" y="93.929751" style="stroke: #000000; stroke-width: 0.8"/>
      </g>
     </g>
     <g id="text_20">
      <!-- 2 -->
      <g transform="translate(30.73625 96.969126) scale(0.08 -0.08)">
       <use xlink:href="#DejaVuSans-32"/>
      </g>
     </g>
    </g>
    <g id="text_21">
     <!-- Current (A/F) -->
     <g transform="translate(25.0725 134.292625) rotate(-90) scale(0.08 -0.08)">
      <defs>
       <path id="DejaVuSans-43" d="M 4122 4306 
L 4122 3641 
Q 3803 3938 3442 4084 
Q 3081 4231 2675 4231 
Q 1875 4231 1450 3742 
Q 1025 3253 1025 2328 
Q 1025 1406 1450 917 
Q 1875 428 2675 428 
Q 3081 428 3442 575 
Q 3803 722 4122 1019 
L 4122 359 
Q 3791 134 3420 21 
Q 3050 -91 2638 -91 
Q 1578 -91 968 557 
Q 359 1206 359 2328 
Q 359 3453 968 4101 
Q 1578 4750 2638 4750 
Q 3056 4750 3426 4639 
Q 3797 4528 4122 4306 
z
" transform="scale(0.015625)"/>
       <path id="DejaVuSans-2f" d="M 1625 4666 
L 2156 4666 
L 531 -594 
L 0 -594 
L 1625 4666 
z
" transform="scale(0.015625)"/>
       <path id="DejaVuSans-46" d="M 628 4666 
L 3309 4666 
L 3309 4134 
L 1259 4134 
L 1259 2759 
L 3109 2759 
L 3109 2228 
L 1259 2228 
L 1259 0 
L 628 0 
L 628 4666 
z
" transform="scale(0.015625)"/>
      </defs>
      <use xlink:href="#DejaVuSans-43"/>
      <use xlink:href="#DejaVuSans-75" x="69.824219"/>
      <use xlink:href="#DejaVuSans-72" x="133.203125"/>
      <use xlink:href="#DejaVuSans-72" x="172.566406"/>
      <use xlink:href="#DejaVuSans-65" x="211.429688"/>
      <use xlink:href="#DejaVuSans-6e" x="272.953125"/>
      <use xlink:href="#DejaVuSans-74" x="336.332031"/>
      <use xlink:href="#DejaVuSans-20" x="375.541016"/>
      <use xlink:href="#DejaVuSans-28" x="407.328125"/>
      <use xlink:href="#DejaVuSans-41" x="446.341797"/>
      <use xlink:href="#DejaVuSans-2f" x="514.75"/>
      <use xlink:href="#DejaVuSans-46" x="548.441406"/>
      <use xlink:href="#DejaVuSans-29" x="605.960938"/>
     </g>
    </g>
   </g>
   <g id="line2d_30">
    <path d="M 42.82625 133.466937 
L 57.862357 133.363469 
L 57.981929 133.452846 
L 58.280857 133.426788 
L 60.014643 133.282513 
L 84.765929 132.508049 
L 112.416821 131.642118 
L 122.102107 131.135972 
L 128.648643 130.573514 
L 140.037821 129.501697 
L 141.472679 129.695578 
L 142.698286 130.084813 
L 143.983679 130.740348 
L 146.674036 132.194004 
L 147.989321 132.583636 
L 149.633429 132.823717 
L 152.383571 132.967772 
L 160.723679 133.092171 
L 189.361036 133.278765 
L 249.326107 133.41339 
L 281.999 133.442228 
L 281.999 133.442228 
" clip-path="url(#p1ccff3b0ce)" style="fill: none; stroke-dasharray: 5.55,2.4; stroke-dashoffset: 0; stroke: #000000; stroke-width: 1.5"/>
   </g>
   <g id="line2d_31">
    <path d="M 42.82625 133.480997 
L 58.041714 133.380483 
L 58.221071 132.977086 
L 59.655929 128.962536 
L 60.6125 127.225692 
L 61.688643 125.716691 
L 62.884357 124.417885 
L 64.319214 123.195411 
L 66.232357 121.873835 
L 68.833036 120.355232 
L 71.583179 119.004301 
L 74.871393 117.649555 
L 79.564571 115.979523 
L 92.747321 111.627989 
L 93.943036 111.550207 
L 94.9295 111.702366 
L 95.826286 112.065186 
L 96.693179 112.664346 
L 97.530179 113.515584 
L 98.397071 114.72318 
L 99.293857 116.367198 
L 100.280321 118.668036 
L 101.6255 122.45331 
L 103.239714 126.859212 
L 104.1365 128.676425 
L 104.943607 129.840618 
L 105.780607 130.660767 
L 106.707286 131.248414 
L 107.843214 131.692629 
L 109.457429 132.062638 
L 112.117893 132.414744 
L 116.751286 132.781957 
L 123.656536 133.094004 
L 133.85 133.313253 
L 151.397107 133.438646 
L 198.209321 133.479628 
L 281.999 133.480978 
L 281.999 133.480978 
" clip-path="url(#p1ccff3b0ce)" style="fill: none; stroke: #000000; stroke-width: 1.5; stroke-linecap: square"/>
   </g>
   <g id="line2d_32">
    <path d="M 42.82625 133.481795 
L 58.400429 133.371953 
L 59.865179 132.981137 
L 62.137036 132.644515 
L 66.202464 132.311587 
L 71.642964 132.058985 
L 82.404393 131.822902 
L 121.235214 131.294304 
L 132.355357 131.270286 
L 137.138214 131.472371 
L 140.217179 131.81059 
L 142.758071 132.315366 
L 146.61425 133.120511 
L 148.945893 133.30291 
L 153.668964 133.3928 
L 174.952679 133.465912 
L 278.471643 133.481783 
L 281.999 133.481786 
L 281.999 133.481786 
" clip-path="url(#p1ccff3b0ce)" style="fill: none; stroke: #ff0000; stroke-width: 1.5; stroke-linecap: square"/>
   </g>
   <g id="patch_9">
    <path d="M 42.82625 135.9945 
L 42.82625 80.9945 
" style="fill: none; stroke: #000000; stroke-width: 0.8; stroke-linejoin: miter; stroke-linecap: square"/>
   </g>
   <g id="patch_10">
    <path d="M 281.969107 135.9945 
L 281.969107 80.9945 
" style="fill: none; stroke: #000000; stroke-width: 0.8; stroke-linejoin: miter; stroke-linecap: square"/>
   </g>
   <g id="patch_11">
    <path d="M 42.82625 135.9945 
L 281.969107 135.9945 
" style="fill: none; stroke: #000000; stroke-width: 0.8; stroke-linejoin: miter; stroke-linecap: square"/>
   </g>
   <g id="patch_12">
    <path d="M 42.82625 80.9945 
L 281.969107 80.9945 
" style="fill: none; stroke: #000000; stroke-width: 0.8; stroke-linejoin: miter; stroke-linecap: square"/>
   </g>
  </g>
  <g id="axes_3">
   <g id="patch_13">
    <path d="M 305.883393 75.4945 
L 545.02625 75.4945 
L 545.02625 20.4945 
L 305.883393 20.4945 
z
" style="fill: #ffffff"/>
   </g>
   <g id="matplotlib.axis_5">
    <g id="xtick_19">
     <g id="line2d_33">
      <g>
       <use xlink:href="#m3cf23530be" x="305.883393" y="75.4945" style="stroke: #000000; stroke-width: 0.8"/>
      </g>
     </g>
    </g>
    <g id="xtick_20">
     <g id="line2d_34">
      <g>
       <use xlink:href="#m3cf23530be" x="335.77625" y="75.4945" style="stroke: #000000; stroke-width: 0.8"/>
      </g>
     </g>
    </g>
    <g id="xtick_21">
     <g id="line2d_35">
      <g>
       <use xlink:href="#m3cf23530be" x="365.669107" y="75.4945" style="stroke: #000000; stroke-width: 0.8"/>
      </g>
     </g>
    </g>
    <g id="xtick_22">
     <g id="line2d_36">
      <g>
       <use xlink:href="#m3cf23530be" x="395.561964" y="75.4945" style="stroke: #000000; stroke-width: 0.8"/>
      </g>
     </g>
    </g>
    <g id="xtick_23">
     <g id="line2d_37">
      <g>
       <use xlink:href="#m3cf23530be" x="425.454821" y="75.4945" style="stroke: #000000; stroke-width: 0.8"/>
      </g>
     </g>
    </g>
    <g id="xtick_24">
     <g id="line2d_38">
      <g>
       <use xlink:href="#m3cf23530be" x="455.347679" y="75.4945" style="stroke: #000000; stroke-width: 0.8"/>
      </g>
     </g>
    </g>
    <g id="xtick_25">
     <g id="line2d_39">
      <g>
       <use xlink:href="#m3cf23530be" x="485.240536" y="75.4945" style="stroke: #000000; stroke-width: 0.8"/>
      </g>
     </g>
    </g>
    <g id="xtick_26">
     <g id="line2d_40">
      <g>
       <use xlink:href="#m3cf23530be" x="515.133393" y="75.4945" style="stroke: #000000; stroke-width: 0.8"/>
      </g>
     </g>
    </g>
    <g id="xtick_27">
     <g id="line2d_41">
      <g>
       <use xlink:href="#m3cf23530be" x="545.02625" y="75.4945" style="stroke: #000000; stroke-width: 0.8"/>
      </g>
     </g>
    </g>
   </g>
   <g id="matplotlib.axis_6">
    <g id="ytick_6">
     <g id="line2d_42">
      <g>
       <use xlink:href="#m9fa5e1086c" x="305.883393" y="57.504269" style="stroke: #000000; stroke-width: 0.8"/>
      </g>
     </g>
    </g>
    <g id="ytick_7">
     <g id="line2d_43">
      <g>
       <use xlink:href="#m9fa5e1086c" x="305.883393" y="38.32612" style="stroke: #000000; stroke-width: 0.8"/>
      </g>
     </g>
    </g>
   </g>
   <g id="line2d_44">
    <path d="M 305.883393 71.072688 
L 320.829821 71.074622 
L 321.068964 60.978124 
L 321.188536 59.688311 
L 321.278214 55.999835 
L 321.487464 24.883635 
L 321.607036 25.689871 
L 322.085321 29.176101 
L 322.832643 31.578659 
L 323.191357 32.12665 
L 323.550071 32.309013 
L 323.998464 32.277628 
L 324.745786 31.961998 
L 329.468857 29.643045 
L 330.9635 29.182079 
L 332.6375 28.905688 
L 334.849571 28.779137 
L 338.436714 28.825099 
L 344.953357 29.154431 
L 352.456464 29.749746 
L 359.989464 30.569809 
L 367.103964 31.563181 
L 373.261893 32.640513 
L 378.403464 33.758976 
L 382.708036 34.91763 
L 386.354964 36.124456 
L 389.5535 37.413352 
L 392.453107 38.819849 
L 394.994 40.29319 
L 397.116393 41.775575 
L 398.880071 43.275954 
L 400.4345 44.888277 
L 401.929143 46.764327 
L 403.453679 49.046793 
L 405.038 51.833836 
L 406.50275 54.858121 
L 407.788143 58.024594 
L 409.193107 62.135492 
L 410.538286 65.905628 
L 411.345393 67.519518 
L 412.092714 68.530242 
L 412.869929 69.209561 
L 413.766714 69.686397 
L 414.87275 70.011968 
L 416.486964 70.235094 
L 419.506143 70.387636 
L 430.207786 70.602617 
L 452.836679 70.854783 
L 488.52875 71.000033 
L 545.056143 71.057889 
L 545.056143 71.057889 
" clip-path="url(#p16b4f52884)" style="fill: none; stroke-dasharray: 5.55,2.4; stroke-dashoffset: 0; stroke: #000000; stroke-width: 1.5"/>
   </g>
   <g id="line2d_45">
    <path d="M 305.883393 71.124891 
L 320.829821 71.126349 
L 321.039071 42.205738 
L 321.188536 24.636332 
L 321.308107 25.478842 
L 321.786393 29.005679 
L 322.115214 29.827015 
L 322.473929 30.798195 
L 322.892429 31.584744 
L 323.310929 31.899229 
L 323.789214 31.970596 
L 324.536536 31.828214 
L 329.438964 30.550757 
L 331.292321 30.398601 
L 333.833214 30.435225 
L 338.795429 30.777108 
L 346.896393 31.539818 
L 352.785286 32.313787 
L 357.867071 33.201379 
L 362.201536 34.178608 
L 365.878357 35.230921 
L 368.987214 36.346287 
L 371.707464 37.555282 
L 374.128786 38.873676 
L 376.221286 40.26012 
L 377.984964 41.689857 
L 379.479607 43.187016 
L 380.824786 44.856775 
L 382.110179 46.815946 
L 383.48525 49.338404 
L 385.039679 52.677222 
L 386.653893 56.675131 
L 388.298 61.386383 
L 389.76275 65.41528 
L 390.59975 67.085148 
L 391.376964 68.162861 
L 392.184071 68.91022 
L 393.080857 69.441721 
L 394.186893 69.833652 
L 395.681536 70.115001 
L 398.072964 70.314486 
L 403.603143 70.496126 
L 420.343143 70.788 
L 444.944964 70.977412 
L 493.072464 71.086435 
L 545.056143 71.114813 
L 545.056143 71.114813 
" clip-path="url(#p16b4f52884)" style="fill: none; stroke: #000000; stroke-width: 1.5; stroke-linecap: square"/>
   </g>
   <g id="line2d_46">
    <path d="M 305.883393 71.082316 
L 320.829821 71.084219 
L 321.039071 41.964127 
L 321.188536 24.646466 
L 321.308107 25.49207 
L 321.786393 29.013926 
L 322.473929 31.187182 
L 322.832643 31.851284 
L 323.191357 32.105875 
L 323.63975 32.13569 
L 324.327286 31.915146 
L 330.006929 29.583345 
L 331.651036 29.284991 
L 333.773429 29.142152 
L 337.091536 29.170375 
L 343.398929 29.475935 
L 350.84225 30.048848 
L 358.106214 30.830439 
L 364.951679 31.786252 
L 370.960143 32.843962 
L 376.012036 33.952007 
L 380.286714 35.110783 
L 383.963536 36.332227 
L 387.25175 37.655064 
L 390.300821 39.119372 
L 392.991179 40.651401 
L 395.20325 42.159501 
L 397.056607 43.686328 
L 398.7605 45.379811 
L 400.464393 47.395967 
L 402.347643 49.985966 
L 404.380357 53.16144 
L 406.144036 56.318173 
L 407.608786 59.397252 
L 410.837214 66.465709 
L 411.704107 67.644476 
L 412.571 68.463496 
L 413.527571 69.065515 
L 414.693393 69.524858 
L 416.217929 69.868 
L 418.459893 70.123374 
L 422.674786 70.342007 
L 433.167179 70.617519 
L 450.624607 70.846791 
L 481.205 70.9951 
L 545.056143 71.067905 
L 545.056143 71.067905 
" clip-path="url(#p16b4f52884)" style="fill: none; stroke: #ff0000; stroke-width: 1.5; stroke-linecap: square"/>
   </g>
   <g id="patch_14">
    <path d="M 305.883393 75.4945 
L 305.883393 20.4945 
" style="fill: none; stroke: #000000; stroke-width: 0.8; stroke-linejoin: miter; stroke-linecap: square"/>
   </g>
   <g id="patch_15">
    <path d="M 545.02625 75.4945 
L 545.02625 20.4945 
" style="fill: none; stroke: #000000; stroke-width: 0.8; stroke-linejoin: miter; stroke-linecap: square"/>
   </g>
   <g id="patch_16">
    <path d="M 305.883393 75.4945 
L 545.02625 75.4945 
" style="fill: none; stroke: #000000; stroke-width: 0.8; stroke-linejoin: miter; stroke-linecap: square"/>
   </g>
   <g id="patch_17">
    <path d="M 305.883393 20.4945 
L 545.02625 20.4945 
" style="fill: none; stroke: #000000; stroke-width: 0.8; stroke-linejoin: miter; stroke-linecap: square"/>
   </g>
   <g id="text_22">
    <!-- ten Tusscher-Li -->
    <g transform="translate(389.761571 14.4945) scale(0.096 -0.096)">
     <defs>
      <path id="DejaVuSans-68" d="M 3513 2113 
L 3513 0 
L 2938 0 
L 2938 2094 
Q 2938 2591 2744 2837 
Q 2550 3084 2163 3084 
Q 1697 3084 1428 2787 
Q 1159 2491 1159 1978 
L 1159 0 
L 581 0 
L 581 4863 
L 1159 4863 
L 1159 2956 
Q 1366 3272 1645 3428 
Q 1925 3584 2291 3584 
Q 2894 3584 3203 3211 
Q 3513 2838 3513 2113 
z
" transform="scale(0.015625)"/>
     </defs>
     <use xlink:href="#DejaVuSans-74"/>
     <use xlink:href="#DejaVuSans-65" x="39.208984"/>
     <use xlink:href="#DejaVuSans-6e" x="100.732422"/>
     <use xlink:href="#DejaVuSans-20" x="164.111328"/>
     <use xlink:href="#DejaVuSans-54" x="195.898438"/>
     <use xlink:href="#DejaVuSans-75" x="241.857422"/>
     <use xlink:href="#DejaVuSans-73" x="305.236328"/>
     <use xlink:href="#DejaVuSans-73" x="357.335938"/>
     <use xlink:href="#DejaVuSans-63" x="409.435547"/>
     <use xlink:href="#DejaVuSans-68" x="464.416016"/>
     <use xlink:href="#DejaVuSans-65" x="527.794922"/>
     <use xlink:href="#DejaVuSans-72" x="589.318359"/>
     <use xlink:href="#DejaVuSans-2d" x="624.056641"/>
     <use xlink:href="#DejaVuSans-4c" x="660.140625"/>
     <use xlink:href="#DejaVuSans-69" x="715.853516"/>
    </g>
   </g>
  </g>
  <g id="axes_4">
   <g id="patch_18">
    <path d="M 305.883393 135.9945 
L 545.02625 135.9945 
L 545.02625 80.9945 
L 305.883393 80.9945 
z
" style="fill: #ffffff"/>
   </g>
   <g id="matplotlib.axis_7">
    <g id="xtick_28">
     <g id="line2d_47">
      <g>
       <use xlink:href="#m3cf23530be" x="305.883393" y="135.9945" style="stroke: #000000; stroke-width: 0.8"/>
      </g>
     </g>
     <g id="text_23">
      <!-- 0 -->
      <g transform="translate(303.338393 149.07325) scale(0.08 -0.08)">
       <use xlink:href="#DejaVuSans-30"/>
      </g>
     </g>
    </g>
    <g id="xtick_29">
     <g id="line2d_48">
      <g>
       <use xlink:href="#m3cf23530be" x="335.77625" y="135.9945" style="stroke: #000000; stroke-width: 0.8"/>
      </g>
     </g>
     <g id="text_24">
      <!-- 100 -->
      <g transform="translate(328.14125 149.07325) scale(0.08 -0.08)">
       <use xlink:href="#DejaVuSans-31"/>
       <use xlink:href="#DejaVuSans-30" x="63.623047"/>
       <use xlink:href="#DejaVuSans-30" x="127.246094"/>
      </g>
     </g>
    </g>
    <g id="xtick_30">
     <g id="line2d_49">
      <g>
       <use xlink:href="#m3cf23530be" x="365.669107" y="135.9945" style="stroke: #000000; stroke-width: 0.8"/>
      </g>
     </g>
     <g id="text_25">
      <!-- 200 -->
      <g transform="translate(358.034107 149.07325) scale(0.08 -0.08)">
       <use xlink:href="#DejaVuSans-32"/>
       <use xlink:href="#DejaVuSans-30" x="63.623047"/>
       <use xlink:href="#DejaVuSans-30" x="127.246094"/>
      </g>
     </g>
    </g>
    <g id="xtick_31">
     <g id="line2d_50">
      <g>
       <use xlink:href="#m3cf23530be" x="395.561964" y="135.9945" style="stroke: #000000; stroke-width: 0.8"/>
      </g>
     </g>
     <g id="text_26">
      <!-- 300 -->
      <g transform="translate(387.926964 149.07325) scale(0.08 -0.08)">
       <use xlink:href="#DejaVuSans-33"/>
       <use xlink:href="#DejaVuSans-30" x="63.623047"/>
       <use xlink:href="#DejaVuSans-30" x="127.246094"/>
      </g>
     </g>
    </g>
    <g id="xtick_32">
     <g id="line2d_51">
      <g>
       <use xlink:href="#m3cf23530be" x="425.454821" y="135.9945" style="stroke: #000000; stroke-width: 0.8"/>
      </g>
     </g>
     <g id="text_27">
      <!-- 400 -->
      <g transform="translate(417.819821 149.07325) scale(0.08 -0.08)">
       <use xlink:href="#DejaVuSans-34"/>
       <use xlink:href="#DejaVuSans-30" x="63.623047"/>
       <use xlink:href="#DejaVuSans-30" x="127.246094"/>
      </g>
     </g>
    </g>
    <g id="xtick_33">
     <g id="line2d_52">
      <g>
       <use xlink:href="#m3cf23530be" x="455.347679" y="135.9945" style="stroke: #000000; stroke-width: 0.8"/>
      </g>
     </g>
     <g id="text_28">
      <!-- 500 -->
      <g transform="translate(447.712679 149.07325) scale(0.08 -0.08)">
       <use xlink:href="#DejaVuSans-35"/>
       <use xlink:href="#DejaVuSans-30" x="63.623047"/>
       <use xlink:href="#DejaVuSans-30" x="127.246094"/>
      </g>
     </g>
    </g>
    <g id="xtick_34">
     <g id="line2d_53">
      <g>
       <use xlink:href="#m3cf23530be" x="485.240536" y="135.9945" style="stroke: #000000; stroke-width: 0.8"/>
      </g>
     </g>
     <g id="text_29">
      <!-- 600 -->
      <g transform="translate(477.605536 149.07325) scale(0.08 -0.08)">
       <use xlink:href="#DejaVuSans-36"/>
       <use xlink:href="#DejaVuSans-30" x="63.623047"/>
       <use xlink:href="#DejaVuSans-30" x="127.246094"/>
      </g>
     </g>
    </g>
    <g id="xtick_35">
     <g id="line2d_54">
      <g>
       <use xlink:href="#m3cf23530be" x="515.133393" y="135.9945" style="stroke: #000000; stroke-width: 0.8"/>
      </g>
     </g>
     <g id="text_30">
      <!-- 700 -->
      <g transform="translate(507.498393 149.07325) scale(0.08 -0.08)">
       <use xlink:href="#DejaVuSans-37"/>
       <use xlink:href="#DejaVuSans-30" x="63.623047"/>
       <use xlink:href="#DejaVuSans-30" x="127.246094"/>
      </g>
     </g>
    </g>
    <g id="xtick_36">
     <g id="line2d_55">
      <g>
       <use xlink:href="#m3cf23530be" x="545.02625" y="135.9945" style="stroke: #000000; stroke-width: 0.8"/>
      </g>
     </g>
     <g id="text_31">
      <!-- 800 -->
      <g transform="translate(537.39125 149.07325) scale(0.08 -0.08)">
       <use xlink:href="#DejaVuSans-38"/>
       <use xlink:href="#DejaVuSans-30" x="63.623047"/>
       <use xlink:href="#DejaVuSans-30" x="127.246094"/>
      </g>
     </g>
    </g>
    <g id="text_32">
     <!-- Time (ms) -->
     <g transform="translate(405.295446 160.81575) scale(0.08 -0.08)">
      <use xlink:href="#DejaVuSans-54"/>
      <use xlink:href="#DejaVuSans-69" x="57.958984"/>
      <use xlink:href="#DejaVuSans-6d" x="85.742188"/>
      <use xlink:href="#DejaVuSans-65" x="183.154297"/>
      <use xlink:href="#DejaVuSans-20" x="244.677734"/>
      <use xlink:href="#DejaVuSans-28" x="276.464844"/>
      <use xlink:href="#DejaVuSans-6d" x="315.478516"/>
      <use xlink:href="#DejaVuSans-73" x="412.890625"/>
      <use xlink:href="#DejaVuSans-29" x="464.990234"/>
     </g>
    </g>
   </g>
   <g id="matplotlib.axis_8">
    <g id="ytick_8">
     <g id="line2d_56">
      <g>
       <use xlink:href="#m9fa5e1086c" x="305.883393" y="133.481896" style="stroke: #000000; stroke-width: 0.8"/>
      </g>
     </g>
    </g>
    <g id="ytick_9">
     <g id="line2d_57">
      <g>
       <use xlink:href="#m9fa5e1086c" x="305.883393" y="113.705824" style="stroke: #000000; stroke-width: 0.8"/>
      </g>
     </g>
    </g>
    <g id="ytick_10">
     <g id="line2d_58">
      <g>
       <use xlink:href="#m9fa5e1086c" x="305.883393" y="93.929751" style="stroke: #000000; stroke-width: 0.8"/>
      </g>
     </g>
    </g>
   </g>
   <g id="line2d_59">
    <path d="M 305.883393 133.481691 
L 321.338 133.457801 
L 321.397786 132.868461 
L 321.726607 126.455233 
L 321.846179 126.206743 
L 321.876071 126.218222 
L 322.025536 126.500957 
L 322.533714 128.233934 
L 323.101679 129.925754 
L 323.63975 130.855907 
L 324.207714 131.39642 
L 324.865357 131.7031 
L 325.73225 131.839578 
L 327.107321 131.80161 
L 333.863107 131.158226 
L 340.050929 130.741799 
L 348.869321 130.411341 
L 368.269786 129.700027 
L 377.417 129.135813 
L 383.843964 128.527479 
L 388.596929 127.863699 
L 392.363429 127.120147 
L 395.442393 126.293975 
L 397.893607 125.416297 
L 399.836643 124.49396 
L 401.510643 123.45373 
L 403.065071 122.21915 
L 404.709179 120.616717 
L 407.668571 117.659396 
L 408.266429 117.398134 
L 408.714821 117.426964 
L 409.103429 117.669183 
L 409.521929 118.204844 
L 410.030107 119.264443 
L 410.747536 121.373617 
L 412.36175 126.251381 
L 413.138964 127.841932 
L 413.916179 128.941657 
L 414.753179 129.735503 
L 415.70975 130.32971 
L 416.935357 130.819734 
L 418.758821 131.28723 
L 421.748107 131.798998 
L 426.232036 132.330051 
L 431.881786 132.768315 
L 439.115857 133.095865 
L 449.309321 133.317994 
L 466.527607 133.441552 
L 513.339821 133.480569 
L 545.056143 133.481575 
L 545.056143 133.481575 
" clip-path="url(#p9aea189e65)" style="fill: none; stroke-dasharray: 5.55,2.4; stroke-dashoffset: 0; stroke: #000000; stroke-width: 1.5"/>
   </g>
   <g id="line2d_60">
    <path d="M 305.883393 133.48172 
L 321.158643 133.373097 
L 321.397786 132.740463 
L 322.444036 129.722378 
L 323.460393 127.735714 
L 324.686 125.831736 
L 326.001286 124.201065 
L 327.376357 122.850634 
L 328.781321 121.777232 
L 330.485214 120.77171 
L 332.547821 119.816859 
L 334.93925 118.955486 
L 337.6595 118.215257 
L 340.887929 117.574378 
L 345.222393 116.956836 
L 354.309821 115.952753 
L 362.081964 114.979768 
L 367.402893 114.094794 
L 371.797143 113.143753 
L 376.041929 111.993435 
L 382.22975 110.272128 
L 383.305893 110.262492 
L 384.142893 110.471398 
L 384.890214 110.890608 
L 385.57775 111.53222 
L 386.265286 112.48611 
L 386.952821 113.830504 
L 387.67025 115.735469 
L 388.50725 118.627745 
L 390.719321 126.651724 
L 391.496536 128.460257 
L 392.243857 129.67134 
L 393.050964 130.55911 
L 393.94775 131.208089 
L 395.023893 131.703121 
L 396.45875 132.103397 
L 398.640929 132.457247 
L 402.347643 132.805996 
L 408.17675 133.117243 
L 416.666321 133.331558 
L 431.283929 133.447336 
L 474.239964 133.48103 
L 545.056143 133.48171 
L 545.056143 133.48171 
" clip-path="url(#p9aea189e65)" style="fill: none; stroke: #000000; stroke-width: 1.5; stroke-linecap: square"/>
   </g>
   <g id="line2d_61">
    <path d="M 305.883393 133.481812 
L 321.218429 133.392922 
L 321.786393 132.70756 
L 322.563607 131.938432 
L 323.849 131.025958 
L 325.463214 130.158074 
L 327.226893 129.463804 
L 329.169929 128.94174 
L 331.890179 128.471791 
L 335.925714 128.009596 
L 341.097179 127.650447 
L 349.407393 127.327556 
L 374.427714 126.436647 
L 384.172786 125.840526 
L 393.080857 125.063612 
L 400.524179 124.457163 
L 402.586786 124.523952 
L 404.171107 124.790183 
L 405.486393 125.231368 
L 406.592429 125.828867 
L 407.608786 126.632923 
L 408.655036 127.758983 
L 411.494857 131.025304 
L 412.511214 131.724096 
L 413.647143 132.224049 
L 415.082 132.595132 
L 417.144607 132.876783 
L 420.701857 133.107699 
L 427.726679 133.311172 
L 440.6105 133.437758 
L 474.778036 133.480104 
L 545.056143 133.481803 
L 545.056143 133.481803 
" clip-path="url(#p9aea189e65)" style="fill: none; stroke: #ff0000; stroke-width: 1.5; stroke-linecap: square"/>
   </g>
   <g id="patch_19">
    <path d="M 305.883393 135.9945 
L 305.883393 80.9945 
" style="fill: none; stroke: #000000; stroke-width: 0.8; stroke-linejoin: miter; stroke-linecap: square"/>
   </g>
   <g id="patch_20">
    <path d="M 545.02625 135.9945 
L 545.02625 80.9945 
" style="fill: none; stroke: #000000; stroke-width: 0.8; stroke-linejoin: miter; stroke-linecap: square"/>
   </g>
   <g id="patch_21">
    <path d="M 305.883393 135.9945 
L 545.02625 135.9945 
" style="fill: none; stroke: #000000; stroke-width: 0.8; stroke-linejoin: miter; stroke-linecap: square"/>
   </g>
   <g id="patch_22">
    <path d="M 305.883393 80.9945 
L 545.02625 80.9945 
" style="fill: none; stroke: #000000; stroke-width: 0.8; stroke-linejoin: miter; stroke-linecap: square"/>
   </g>
  </g>
  <g id="axes_5">
   <g id="patch_23">
    <path d="M 42.82625 237.1945 
L 281.969107 237.1945 
L 281.969107 182.1945 
L 42.82625 182.1945 
z
" style="fill: #ffffff"/>
   </g>
   <g id="matplotlib.axis_9">
    <g id="xtick_37">
     <g id="line2d_62">
      <g>
       <use xlink:href="#m3cf23530be" x="42.82625" y="237.1945" style="stroke: #000000; stroke-width: 0.8"/>
      </g>
     </g>
    </g>
    <g id="xtick_38">
     <g id="line2d_63">
      <g>
       <use xlink:href="#m3cf23530be" x="72.719107" y="237.1945" style="stroke: #000000; stroke-width: 0.8"/>
      </g>
     </g>
    </g>
    <g id="xtick_39">
     <g id="line2d_64">
      <g>
       <use xlink:href="#m3cf23530be" x="102.611964" y="237.1945" style="stroke: #000000; stroke-width: 0.8"/>
      </g>
     </g>
    </g>
    <g id="xtick_40">
     <g id="line2d_65">
      <g>
       <use xlink:href="#m3cf23530be" x="132.504821" y="237.1945" style="stroke: #000000; stroke-width: 0.8"/>
      </g>
     </g>
    </g>
    <g id="xtick_41">
     <g id="line2d_66">
      <g>
       <use xlink:href="#m3cf23530be" x="162.397679" y="237.1945" style="stroke: #000000; stroke-width: 0.8"/>
      </g>
     </g>
    </g>
    <g id="xtick_42">
     <g id="line2d_67">
      <g>
       <use xlink:href="#m3cf23530be" x="192.290536" y="237.1945" style="stroke: #000000; stroke-width: 0.8"/>
      </g>
     </g>
    </g>
    <g id="xtick_43">
     <g id="line2d_68">
      <g>
       <use xlink:href="#m3cf23530be" x="222.183393" y="237.1945" style="stroke: #000000; stroke-width: 0.8"/>
      </g>
     </g>
    </g>
    <g id="xtick_44">
     <g id="line2d_69">
      <g>
       <use xlink:href="#m3cf23530be" x="252.07625" y="237.1945" style="stroke: #000000; stroke-width: 0.8"/>
      </g>
     </g>
    </g>
    <g id="xtick_45">
     <g id="line2d_70">
      <g>
       <use xlink:href="#m3cf23530be" x="281.969107" y="237.1945" style="stroke: #000000; stroke-width: 0.8"/>
      </g>
     </g>
    </g>
   </g>
   <g id="matplotlib.axis_10">
    <g id="ytick_11">
     <g id="line2d_71">
      <g>
       <use xlink:href="#m9fa5e1086c" x="42.82625" y="219.204269" style="stroke: #000000; stroke-width: 0.8"/>
      </g>
     </g>
     <g id="text_33">
      <!-- −50 -->
      <g transform="translate(18.9425 222.243644) scale(0.08 -0.08)">
       <use xlink:href="#DejaVuSans-2212"/>
       <use xlink:href="#DejaVuSans-35" x="83.789062"/>
       <use xlink:href="#DejaVuSans-30" x="147.412109"/>
      </g>
     </g>
    </g>
    <g id="ytick_12">
     <g id="line2d_72">
      <g>
       <use xlink:href="#m9fa5e1086c" x="42.82625" y="200.02612" style="stroke: #000000; stroke-width: 0.8"/>
      </g>
     </g>
     <g id="text_34">
      <!-- 0 -->
      <g transform="translate(30.73625 203.065495) scale(0.08 -0.08)">
       <use xlink:href="#DejaVuSans-30"/>
      </g>
     </g>
    </g>
    <g id="text_35">
     <!-- Voltage (mV) -->
     <g transform="translate(13.27875 235.7245) rotate(-90) scale(0.08 -0.08)">
      <use xlink:href="#DejaVuSans-56"/>
      <use xlink:href="#DejaVuSans-6f" x="60.658203"/>
      <use xlink:href="#DejaVuSans-6c" x="121.839844"/>
      <use xlink:href="#DejaVuSans-74" x="149.623047"/>
      <use xlink:href="#DejaVuSans-61" x="188.832031"/>
      <use xlink:href="#DejaVuSans-67" x="250.111328"/>
      <use xlink:href="#DejaVuSans-65" x="313.587891"/>
      <use xlink:href="#DejaVuSans-20" x="375.111328"/>
      <use xlink:href="#DejaVuSans-28" x="406.898438"/>
      <use xlink:href="#DejaVuSans-6d" x="445.912109"/>
      <use xlink:href="#DejaVuSans-56" x="543.324219"/>
      <use xlink:href="#DejaVuSans-29" x="611.732422"/>
     </g>
    </g>
   </g>
   <g id="line2d_73">
    <path d="M 42.82625 234.832708 
L 57.772679 234.833655 
L 58.041714 197.390217 
L 58.161286 187.625724 
L 58.191179 187.671625 
L 58.400429 189.304695 
L 58.9385 193.177019 
L 59.386893 194.792535 
L 59.7755 195.493159 
L 60.104321 195.681967 
L 60.433143 195.599936 
L 60.911429 195.21051 
L 62.49575 193.781588 
L 63.362643 193.386033 
L 64.468679 193.137068 
L 66.082893 193.023127 
L 68.653679 193.08949 
L 72.509857 193.423455 
L 76.904107 194.026945 
L 81.716857 194.921318 
L 87.097571 196.126251 
L 92.089679 197.477019 
L 96.902429 199.005027 
L 100.908071 200.499062 
L 103.987036 201.876313 
L 106.468143 203.225976 
L 108.650321 204.664554 
L 110.862393 206.394109 
L 113.55275 208.79651 
L 116.870857 212.060974 
L 119.142714 214.57927 
L 120.846607 216.795881 
L 122.430929 219.237316 
L 124.254393 222.486678 
L 128.828 230.863315 
L 129.844357 232.12065 
L 130.771036 232.927335 
L 131.727607 233.468047 
L 132.833643 233.831841 
L 134.328286 234.071293 
L 136.869179 234.217798 
L 144.611429 234.348709 
L 173.906429 234.6061 
L 219.582714 234.762034 
L 281.999 234.820188 
L 281.999 234.820188 
" clip-path="url(#pbc8fc8914c)" style="fill: none; stroke-dasharray: 5.55,2.4; stroke-dashoffset: 0; stroke: #000000; stroke-width: 1.5"/>
   </g>
   <g id="line2d_74">
    <path d="M 42.82625 234.782348 
L 57.772679 234.783263 
L 58.041714 197.023984 
L 58.161286 187.616745 
L 58.191179 187.666953 
L 58.400429 189.300517 
L 58.9385 193.156985 
L 59.327107 194.482945 
L 59.715714 195.08768 
L 60.074429 195.26516 
L 60.463036 195.199628 
L 61.031 194.836971 
L 62.465857 193.845395 
L 63.422429 193.50732 
L 64.58825 193.342308 
L 66.232357 193.353337 
L 68.683571 193.610659 
L 72.240821 194.218603 
L 77.113357 195.297162 
L 81.358143 196.438974 
L 85.423571 197.764763 
L 89.219964 199.232775 
L 92.448393 200.711178 
L 95.049071 202.138152 
L 97.261143 203.601377 
L 99.413429 205.298516 
L 102.313036 207.906716 
L 110.324321 215.475246 
L 111.968429 217.46311 
L 113.55275 219.740473 
L 115.376214 222.774722 
L 120.218857 231.084926 
L 121.235214 232.224815 
L 122.191786 232.970571 
L 123.208143 233.474708 
L 124.403857 233.809136 
L 126.077857 234.02591 
L 129.126929 234.156915 
L 141.532464 234.331609 
L 172.441679 234.584749 
L 220.838214 234.724307 
L 281.999 234.771224 
L 281.999 234.771224 
" clip-path="url(#pbc8fc8914c)" style="fill: none; stroke: #000000; stroke-width: 1.5; stroke-linecap: square"/>
   </g>
   <g id="line2d_75">
    <path d="M 42.82625 234.812047 
L 57.772679 234.812984 
L 58.041714 197.231899 
L 58.161286 187.619845 
L 58.191179 187.667644 
L 58.400429 189.302761 
L 58.9385 193.168167 
L 59.357 194.608238 
L 59.745607 195.238495 
L 60.104321 195.431311 
L 60.463036 195.362338 
L 61.001107 194.980419 
L 62.49575 193.813703 
L 63.392536 193.456718 
L 64.528464 193.257161 
L 66.112786 193.222016 
L 68.534107 193.409607 
L 72.151143 193.926281 
L 76.605179 194.791064 
L 81.985893 196.045331 
L 86.738857 197.39352 
L 91.701071 199.032816 
L 96.185 200.737105 
L 99.622679 202.271405 
L 102.372821 203.737213 
L 104.9735 205.378413 
L 108.441071 207.863921 
L 117.050214 214.365047 
L 118.99325 216.174499 
L 120.637357 218.009217 
L 122.251571 220.149635 
L 124.075036 222.952911 
L 126.7355 227.515828 
L 128.588857 230.509984 
L 129.724786 231.934918 
L 130.71125 232.82252 
L 131.697714 233.409702 
L 132.80375 233.802349 
L 134.238607 234.060632 
L 136.540357 234.2183 
L 142.518929 234.329034 
L 173.308571 234.598303 
L 218.925071 234.745968 
L 281.999 234.800279 
L 281.999 234.800279 
" clip-path="url(#pbc8fc8914c)" style="fill: none; stroke: #ff0000; stroke-width: 1.5; stroke-linecap: square"/>
   </g>
   <g id="patch_24">
    <path d="M 42.82625 237.1945 
L 42.82625 182.1945 
" style="fill: none; stroke: #000000; stroke-width: 0.8; stroke-linejoin: miter; stroke-linecap: square"/>
   </g>
   <g id="patch_25">
    <path d="M 281.969107 237.1945 
L 281.969107 182.1945 
" style="fill: none; stroke: #000000; stroke-width: 0.8; stroke-linejoin: miter; stroke-linecap: square"/>
   </g>
   <g id="patch_26">
    <path d="M 42.82625 237.1945 
L 281.969107 237.1945 
" style="fill: none; stroke: #000000; stroke-width: 0.8; stroke-linejoin: miter; stroke-linecap: square"/>
   </g>
   <g id="patch_27">
    <path d="M 42.82625 182.1945 
L 281.969107 182.1945 
" style="fill: none; stroke: #000000; stroke-width: 0.8; stroke-linejoin: miter; stroke-linecap: square"/>
   </g>
   <g id="text_36">
    <!-- Tomek-Li -->
    <g transform="translate(141.196679 176.1945) scale(0.096 -0.096)">
     <defs>
      <path id="DejaVuSans-6b" d="M 581 4863 
L 1159 4863 
L 1159 1991 
L 2875 3500 
L 3609 3500 
L 1753 1863 
L 3688 0 
L 2938 0 
L 1159 1709 
L 1159 0 
L 581 0 
L 581 4863 
z
" transform="scale(0.015625)"/>
     </defs>
     <use xlink:href="#DejaVuSans-54"/>
     <use xlink:href="#DejaVuSans-6f" x="44.083984"/>
     <use xlink:href="#DejaVuSans-6d" x="105.265625"/>
     <use xlink:href="#DejaVuSans-65" x="202.677734"/>
     <use xlink:href="#DejaVuSans-6b" x="264.201172"/>
     <use xlink:href="#DejaVuSans-2d" x="322.111328"/>
     <use xlink:href="#DejaVuSans-4c" x="358.195312"/>
     <use xlink:href="#DejaVuSans-69" x="413.908203"/>
    </g>
   </g>
  </g>
  <g id="axes_6">
   <g id="patch_28">
    <path d="M 42.82625 297.6945 
L 281.969107 297.6945 
L 281.969107 242.6945 
L 42.82625 242.6945 
z
" style="fill: #ffffff"/>
   </g>
   <g id="matplotlib.axis_11">
    <g id="xtick_46">
     <g id="line2d_76">
      <g>
       <use xlink:href="#m3cf23530be" x="42.82625" y="297.6945" style="stroke: #000000; stroke-width: 0.8"/>
      </g>
     </g>
     <g id="text_37">
      <!-- 0 -->
      <g transform="translate(40.28125 310.77325) scale(0.08 -0.08)">
       <use xlink:href="#DejaVuSans-30"/>
      </g>
     </g>
    </g>
    <g id="xtick_47">
     <g id="line2d_77">
      <g>
       <use xlink:href="#m3cf23530be" x="72.719107" y="297.6945" style="stroke: #000000; stroke-width: 0.8"/>
      </g>
     </g>
     <g id="text_38">
      <!-- 100 -->
      <g transform="translate(65.084107 310.77325) scale(0.08 -0.08)">
       <use xlink:href="#DejaVuSans-31"/>
       <use xlink:href="#DejaVuSans-30" x="63.623047"/>
       <use xlink:href="#DejaVuSans-30" x="127.246094"/>
      </g>
     </g>
    </g>
    <g id="xtick_48">
     <g id="line2d_78">
      <g>
       <use xlink:href="#m3cf23530be" x="102.611964" y="297.6945" style="stroke: #000000; stroke-width: 0.8"/>
      </g>
     </g>
     <g id="text_39">
      <!-- 200 -->
      <g transform="translate(94.976964 310.77325) scale(0.08 -0.08)">
       <use xlink:href="#DejaVuSans-32"/>
       <use xlink:href="#DejaVuSans-30" x="63.623047"/>
       <use xlink:href="#DejaVuSans-30" x="127.246094"/>
      </g>
     </g>
    </g>
    <g id="xtick_49">
     <g id="line2d_79">
      <g>
       <use xlink:href="#m3cf23530be" x="132.504821" y="297.6945" style="stroke: #000000; stroke-width: 0.8"/>
      </g>
     </g>
     <g id="text_40">
      <!-- 300 -->
      <g transform="translate(124.869821 310.77325) scale(0.08 -0.08)">
       <use xlink:href="#DejaVuSans-33"/>
       <use xlink:href="#DejaVuSans-30" x="63.623047"/>
       <use xlink:href="#DejaVuSans-30" x="127.246094"/>
      </g>
     </g>
    </g>
    <g id="xtick_50">
     <g id="line2d_80">
      <g>
       <use xlink:href="#m3cf23530be" x="162.397679" y="297.6945" style="stroke: #000000; stroke-width: 0.8"/>
      </g>
     </g>
     <g id="text_41">
      <!-- 400 -->
      <g transform="translate(154.762679 310.77325) scale(0.08 -0.08)">
       <use xlink:href="#DejaVuSans-34"/>
       <use xlink:href="#DejaVuSans-30" x="63.623047"/>
       <use xlink:href="#DejaVuSans-30" x="127.246094"/>
      </g>
     </g>
    </g>
    <g id="xtick_51">
     <g id="line2d_81">
      <g>
       <use xlink:href="#m3cf23530be" x="192.290536" y="297.6945" style="stroke: #000000; stroke-width: 0.8"/>
      </g>
     </g>
     <g id="text_42">
      <!-- 500 -->
      <g transform="translate(184.655536 310.77325) scale(0.08 -0.08)">
       <use xlink:href="#DejaVuSans-35"/>
       <use xlink:href="#DejaVuSans-30" x="63.623047"/>
       <use xlink:href="#DejaVuSans-30" x="127.246094"/>
      </g>
     </g>
    </g>
    <g id="xtick_52">
     <g id="line2d_82">
      <g>
       <use xlink:href="#m3cf23530be" x="222.183393" y="297.6945" style="stroke: #000000; stroke-width: 0.8"/>
      </g>
     </g>
     <g id="text_43">
      <!-- 600 -->
      <g transform="translate(214.548393 310.77325) scale(0.08 -0.08)">
       <use xlink:href="#DejaVuSans-36"/>
       <use xlink:href="#DejaVuSans-30" x="63.623047"/>
       <use xlink:href="#DejaVuSans-30" x="127.246094"/>
      </g>
     </g>
    </g>
    <g id="xtick_53">
     <g id="line2d_83">
      <g>
       <use xlink:href="#m3cf23530be" x="252.07625" y="297.6945" style="stroke: #000000; stroke-width: 0.8"/>
      </g>
     </g>
     <g id="text_44">
      <!-- 700 -->
      <g transform="translate(244.44125 310.77325) scale(0.08 -0.08)">
       <use xlink:href="#DejaVuSans-37"/>
       <use xlink:href="#DejaVuSans-30" x="63.623047"/>
       <use xlink:href="#DejaVuSans-30" x="127.246094"/>
      </g>
     </g>
    </g>
    <g id="xtick_54">
     <g id="line2d_84">
      <g>
       <use xlink:href="#m3cf23530be" x="281.969107" y="297.6945" style="stroke: #000000; stroke-width: 0.8"/>
      </g>
     </g>
     <g id="text_45">
      <!-- 800 -->
      <g transform="translate(274.334107 310.77325) scale(0.08 -0.08)">
       <use xlink:href="#DejaVuSans-38"/>
       <use xlink:href="#DejaVuSans-30" x="63.623047"/>
       <use xlink:href="#DejaVuSans-30" x="127.246094"/>
      </g>
     </g>
    </g>
    <g id="text_46">
     <!-- Time (ms) -->
     <g transform="translate(142.238304 322.51575) scale(0.08 -0.08)">
      <use xlink:href="#DejaVuSans-54"/>
      <use xlink:href="#DejaVuSans-69" x="57.958984"/>
      <use xlink:href="#DejaVuSans-6d" x="85.742188"/>
      <use xlink:href="#DejaVuSans-65" x="183.154297"/>
      <use xlink:href="#DejaVuSans-20" x="244.677734"/>
      <use xlink:href="#DejaVuSans-28" x="276.464844"/>
      <use xlink:href="#DejaVuSans-6d" x="315.478516"/>
      <use xlink:href="#DejaVuSans-73" x="412.890625"/>
      <use xlink:href="#DejaVuSans-29" x="464.990234"/>
     </g>
    </g>
   </g>
   <g id="matplotlib.axis_12">
    <g id="ytick_13">
     <g id="line2d_85">
      <g>
       <use xlink:href="#m9fa5e1086c" x="42.82625" y="295.181896" style="stroke: #000000; stroke-width: 0.8"/>
      </g>
     </g>
     <g id="text_47">
      <!-- 0 -->
      <g transform="translate(30.73625 298.221271) scale(0.08 -0.08)">
       <use xlink:href="#DejaVuSans-30"/>
      </g>
     </g>
    </g>
    <g id="ytick_14">
     <g id="line2d_86">
      <g>
       <use xlink:href="#m9fa5e1086c" x="42.82625" y="275.405824" style="stroke: #000000; stroke-width: 0.8"/>
      </g>
     </g>
     <g id="text_48">
      <!-- 1 -->
      <g transform="translate(30.73625 278.445199) scale(0.08 -0.08)">
       <use xlink:href="#DejaVuSans-31"/>
      </g>
     </g>
    </g>
    <g id="ytick_15">
     <g id="line2d_87">
      <g>
       <use xlink:href="#m9fa5e1086c" x="42.82625" y="255.629751" style="stroke: #000000; stroke-width: 0.8"/>
      </g>
     </g>
     <g id="text_49">
      <!-- 2 -->
      <g transform="translate(30.73625 258.669126) scale(0.08 -0.08)">
       <use xlink:href="#DejaVuSans-32"/>
      </g>
     </g>
    </g>
    <g id="text_50">
     <!-- Current (A/F) -->
     <g transform="translate(25.0725 295.992625) rotate(-90) scale(0.08 -0.08)">
      <use xlink:href="#DejaVuSans-43"/>
      <use xlink:href="#DejaVuSans-75" x="69.824219"/>
      <use xlink:href="#DejaVuSans-72" x="133.203125"/>
      <use xlink:href="#DejaVuSans-72" x="172.566406"/>
      <use xlink:href="#DejaVuSans-65" x="211.429688"/>
      <use xlink:href="#DejaVuSans-6e" x="272.953125"/>
      <use xlink:href="#DejaVuSans-74" x="336.332031"/>
      <use xlink:href="#DejaVuSans-20" x="375.541016"/>
      <use xlink:href="#DejaVuSans-28" x="407.328125"/>
      <use xlink:href="#DejaVuSans-41" x="446.341797"/>
      <use xlink:href="#DejaVuSans-2f" x="514.75"/>
      <use xlink:href="#DejaVuSans-46" x="548.441406"/>
      <use xlink:href="#DejaVuSans-29" x="605.960938"/>
     </g>
    </g>
   </g>
   <g id="line2d_88">
    <path d="M 42.82625 295.181793 
L 58.340643 295.077446 
L 58.789036 294.683872 
L 59.835286 293.366932 
L 61.838107 290.911553 
L 62.854464 290.048549 
L 63.9605 289.408634 
L 65.275786 288.912228 
L 67.009571 288.507322 
L 69.879286 288.097517 
L 79.0265 286.887555 
L 84.078393 285.933466 
L 88.681893 284.852656 
L 92.926679 283.628764 
L 96.932321 282.244537 
L 100.519464 280.775121 
L 103.568536 279.292904 
L 106.169214 277.786926 
L 108.560643 276.145115 
L 111.280893 273.987785 
L 114.868036 271.160139 
L 116.422464 270.228043 
L 117.677964 269.726036 
L 118.724214 269.536181 
L 119.650893 269.58859 
L 120.487893 269.858058 
L 121.265107 270.338498 
L 122.042321 271.080589 
L 122.849429 272.164897 
L 123.716321 273.71328 
L 124.702786 275.960905 
L 125.8985 279.288397 
L 129.336179 289.273807 
L 130.232964 290.977835 
L 131.040071 292.060606 
L 131.877071 292.814523 
L 132.80375 293.338845 
L 133.939679 293.71077 
L 135.583786 293.989972 
L 138.602964 294.237449 
L 145.866929 294.566443 
L 157.375679 294.861995 
L 174.354821 295.056519 
L 205.62275 295.156918 
L 281.999 295.181089 
L 281.999 295.181089 
" clip-path="url(#pd205d81bdd)" style="fill: none; stroke-dasharray: 5.55,2.4; stroke-dashoffset: 0; stroke: #000000; stroke-width: 1.5"/>
   </g>
   <g id="line2d_89">
    <path d="M 42.82625 295.181846 
L 58.131393 295.114914 
L 58.340643 294.631271 
L 59.357 291.977212 
L 60.40325 290.111804 
L 61.838107 287.986161 
L 63.452321 286.001691 
L 65.096429 284.32122 
L 66.830214 282.870047 
L 68.713464 281.587713 
L 70.835857 280.416947 
L 73.316964 279.310866 
L 76.246464 278.254096 
L 80.162429 277.103409 
L 88.801464 274.864538 
L 96.035536 272.87662 
L 102.552179 271.056248 
L 104.525107 270.788038 
L 106.318679 270.766508 
L 107.992679 270.968374 
L 109.457429 271.363883 
L 110.712929 271.926889 
L 111.818964 272.665989 
L 112.835321 273.61972 
L 113.821786 274.866869 
L 114.80825 276.486503 
L 115.884393 278.697704 
L 117.229571 282.015123 
L 120.308536 289.829915 
L 121.235214 291.464541 
L 122.072214 292.518673 
L 122.939107 293.254207 
L 123.895679 293.765279 
L 125.091393 294.136569 
L 126.825179 294.420839 
L 129.963929 294.677358 
L 136.091964 294.931122 
L 145.956607 295.100321 
L 165.745679 295.173172 
L 281.999 295.181843 
L 281.999 295.181843 
" clip-path="url(#pd205d81bdd)" style="fill: none; stroke: #000000; stroke-width: 1.5; stroke-linecap: square"/>
   </g>
   <g id="line2d_90">
    <path d="M 42.82625 295.181854 
L 58.161286 295.090278 
L 58.460214 294.4327 
L 59.237429 292.749357 
L 60.223893 291.260067 
L 61.688643 289.440527 
L 63.362643 287.732349 
L 65.096429 286.267738 
L 66.89 285.043386 
L 68.892821 283.951003 
L 71.164679 282.969897 
L 73.884929 282.044948 
L 77.292714 281.131207 
L 81.836429 280.166357 
L 91.820643 278.330747 
L 110.533571 275.077123 
L 113.014679 275.025587 
L 115.286536 275.198178 
L 117.199679 275.556919 
L 118.784 276.074167 
L 120.099286 276.734858 
L 121.265107 277.572748 
L 122.34125 278.622929 
L 123.417393 279.990972 
L 124.583214 281.853154 
L 125.958286 284.495379 
L 129.336179 291.201986 
L 130.29275 292.471759 
L 131.189536 293.295958 
L 132.116214 293.846987 
L 133.22225 294.236997 
L 134.746786 294.518207 
L 137.347464 294.738396 
L 142.997214 294.953782 
L 153.399929 295.11205 
L 175.430964 295.176032 
L 281.999 295.181851 
L 281.999 295.181851 
" clip-path="url(#pd205d81bdd)" style="fill: none; stroke: #ff0000; stroke-width: 1.5; stroke-linecap: square"/>
   </g>
   <g id="patch_29">
    <path d="M 42.82625 297.6945 
L 42.82625 242.6945 
" style="fill: none; stroke: #000000; stroke-width: 0.8; stroke-linejoin: miter; stroke-linecap: square"/>
   </g>
   <g id="patch_30">
    <path d="M 281.969107 297.6945 
L 281.969107 242.6945 
" style="fill: none; stroke: #000000; stroke-width: 0.8; stroke-linejoin: miter; stroke-linecap: square"/>
   </g>
   <g id="patch_31">
    <path d="M 42.82625 297.6945 
L 281.969107 297.6945 
" style="fill: none; stroke: #000000; stroke-width: 0.8; stroke-linejoin: miter; stroke-linecap: square"/>
   </g>
   <g id="patch_32">
    <path d="M 42.82625 242.6945 
L 281.969107 242.6945 
" style="fill: none; stroke: #000000; stroke-width: 0.8; stroke-linejoin: miter; stroke-linecap: square"/>
   </g>
  </g>
  <g id="axes_7">
   <g id="patch_33">
    <path d="M 305.883393 237.1945 
L 545.02625 237.1945 
L 545.02625 182.1945 
L 305.883393 182.1945 
z
" style="fill: #ffffff"/>
   </g>
   <g id="matplotlib.axis_13">
    <g id="xtick_55">
     <g id="line2d_91">
      <g>
       <use xlink:href="#m3cf23530be" x="305.883393" y="237.1945" style="stroke: #000000; stroke-width: 0.8"/>
      </g>
     </g>
    </g>
    <g id="xtick_56">
     <g id="line2d_92">
      <g>
       <use xlink:href="#m3cf23530be" x="335.77625" y="237.1945" style="stroke: #000000; stroke-width: 0.8"/>
      </g>
     </g>
    </g>
    <g id="xtick_57">
     <g id="line2d_93">
      <g>
       <use xlink:href="#m3cf23530be" x="365.669107" y="237.1945" style="stroke: #000000; stroke-width: 0.8"/>
      </g>
     </g>
    </g>
    <g id="xtick_58">
     <g id="line2d_94">
      <g>
       <use xlink:href="#m3cf23530be" x="395.561964" y="237.1945" style="stroke: #000000; stroke-width: 0.8"/>
      </g>
     </g>
    </g>
    <g id="xtick_59">
     <g id="line2d_95">
      <g>
       <use xlink:href="#m3cf23530be" x="425.454821" y="237.1945" style="stroke: #000000; stroke-width: 0.8"/>
      </g>
     </g>
    </g>
    <g id="xtick_60">
     <g id="line2d_96">
      <g>
       <use xlink:href="#m3cf23530be" x="455.347679" y="237.1945" style="stroke: #000000; stroke-width: 0.8"/>
      </g>
     </g>
    </g>
    <g id="xtick_61">
     <g id="line2d_97">
      <g>
       <use xlink:href="#m3cf23530be" x="485.240536" y="237.1945" style="stroke: #000000; stroke-width: 0.8"/>
      </g>
     </g>
    </g>
    <g id="xtick_62">
     <g id="line2d_98">
      <g>
       <use xlink:href="#m3cf23530be" x="515.133393" y="237.1945" style="stroke: #000000; stroke-width: 0.8"/>
      </g>
     </g>
    </g>
    <g id="xtick_63">
     <g id="line2d_99">
      <g>
       <use xlink:href="#m3cf23530be" x="545.02625" y="237.1945" style="stroke: #000000; stroke-width: 0.8"/>
      </g>
     </g>
    </g>
   </g>
   <g id="matplotlib.axis_14">
    <g id="ytick_16">
     <g id="line2d_100">
      <g>
       <use xlink:href="#m9fa5e1086c" x="305.883393" y="219.204269" style="stroke: #000000; stroke-width: 0.8"/>
      </g>
     </g>
    </g>
    <g id="ytick_17">
     <g id="line2d_101">
      <g>
       <use xlink:href="#m9fa5e1086c" x="305.883393" y="200.02612" style="stroke: #000000; stroke-width: 0.8"/>
      </g>
     </g>
    </g>
   </g>
   <g id="line2d_102">
    <path d="M 305.883393 233.864453 
L 320.829821 233.864455 
L 321.397786 186.080766 
L 321.636929 184.768871 
L 321.816286 184.67266 
L 322.025536 184.955046 
L 323.22125 187.018576 
L 323.759321 187.388487 
L 324.387071 187.538659 
L 325.283857 187.496606 
L 331.651036 186.740799 
L 334.640321 186.804265 
L 338.347036 187.113081 
L 343.159786 187.750355 
L 350.991714 189.041838 
L 357.926857 190.376168 
L 362.948857 191.566293 
L 367.462679 192.863819 
L 371.677571 194.304527 
L 375.623429 195.885154 
L 379.120893 197.518601 
L 381.990607 199.094598 
L 384.202679 200.551503 
L 386.026143 202.016056 
L 387.700143 203.649592 
L 389.613286 205.84611 
L 392.69225 209.773704 
L 398.222429 217.205344 
L 402.31775 223.043032 
L 404.768964 226.914882 
L 407.489214 231.239375 
L 408.415893 232.268039 
L 409.282786 232.906991 
L 410.209464 233.311554 
L 411.375286 233.566152 
L 413.19875 233.708401 
L 417.652786 233.76304 
L 472.057786 233.828129 
L 545.056143 233.853303 
L 545.056143 233.853303 
" clip-path="url(#pae20caebc9)" style="fill: none; stroke-dasharray: 5.55,2.4; stroke-dashoffset: 0; stroke: #000000; stroke-width: 1.5"/>
   </g>
   <g id="line2d_103">
    <path d="M 305.883393 233.72184 
L 320.829821 233.722564 
L 321.098857 216.657573 
L 321.188536 208.298075 
L 321.367893 188.535837 
L 321.636929 186.766184 
L 321.876071 186.375079 
L 322.055429 186.423 
L 322.354357 186.798939 
L 323.520179 188.489306 
L 323.968571 188.678312 
L 324.506643 188.658117 
L 325.403429 188.359994 
L 328.153571 187.354143 
L 329.91725 187.000728 
L 331.949964 186.830055 
L 334.371286 186.857679 
L 337.270893 187.119986 
L 340.648786 187.655477 
L 344.415286 188.481259 
L 348.510607 189.609646 
L 352.695607 190.993016 
L 356.641464 192.526383 
L 360.109036 194.104829 
L 363.068429 195.69106 
L 365.519643 197.252667 
L 367.492571 198.765821 
L 369.076893 200.252675 
L 370.392179 201.788394 
L 371.587893 203.534858 
L 372.8135 205.743565 
L 374.128786 208.593418 
L 375.503857 212.122105 
L 376.878929 216.286609 
L 378.343679 221.48804 
L 381.063929 231.375146 
L 381.631893 232.455507 
L 382.169964 233.014206 
L 382.767821 233.310452 
L 383.634714 233.467414 
L 385.57775 233.53028 
L 405.875 233.597974 
L 493.879571 233.701715 
L 545.056143 233.71588 
L 545.056143 233.71588 
" clip-path="url(#pae20caebc9)" style="fill: none; stroke: #000000; stroke-width: 1.5; stroke-linecap: square"/>
   </g>
   <g id="line2d_104">
    <path d="M 305.883393 233.721183 
L 320.829821 233.721917 
L 321.098857 216.654684 
L 321.188536 208.279881 
L 321.367893 188.530335 
L 321.636929 186.757355 
L 321.876071 186.363413 
L 322.055429 186.411526 
L 322.354357 186.79491 
L 323.520179 188.534011 
L 323.968571 188.717358 
L 324.506643 188.685315 
L 325.403429 188.367446 
L 328.063893 187.344324 
L 329.797679 186.963974 
L 331.8005 186.760803 
L 334.191929 186.749145 
L 337.061643 186.963168 
L 340.439536 187.444035 
L 344.265821 188.217978 
L 348.480714 189.300107 
L 352.93475 190.673435 
L 357.299107 192.248744 
L 361.215071 193.892701 
L 364.563071 195.533825 
L 367.313214 197.120452 
L 369.555179 198.664255 
L 371.318857 200.140375 
L 372.753714 201.623609 
L 374.039107 203.275333 
L 375.3245 205.304596 
L 376.699571 207.905016 
L 378.134429 211.099072 
L 379.569286 214.844849 
L 380.97425 219.145076 
L 382.708036 225.232469 
L 384.352143 230.87425 
L 384.95 232.1703 
L 385.488071 232.849694 
L 386.056036 233.218867 
L 386.803357 233.422926 
L 388.148536 233.517896 
L 394.097214 233.556519 
L 457.589643 233.676564 
L 545.056143 233.715104 
L 545.056143 233.715104 
" clip-path="url(#pae20caebc9)" style="fill: none; stroke: #ff0000; stroke-width: 1.5; stroke-linecap: square"/>
   </g>
   <g id="patch_34">
    <path d="M 305.883393 237.1945 
L 305.883393 182.1945 
" style="fill: none; stroke: #000000; stroke-width: 0.8; stroke-linejoin: miter; stroke-linecap: square"/>
   </g>
   <g id="patch_35">
    <path d="M 545.02625 237.1945 
L 545.02625 182.1945 
" style="fill: none; stroke: #000000; stroke-width: 0.8; stroke-linejoin: miter; stroke-linecap: square"/>
   </g>
   <g id="patch_36">
    <path d="M 305.883393 237.1945 
L 545.02625 237.1945 
" style="fill: none; stroke: #000000; stroke-width: 0.8; stroke-linejoin: miter; stroke-linecap: square"/>
   </g>
   <g id="patch_37">
    <path d="M 305.883393 182.1945 
L 545.02625 182.1945 
" style="fill: none; stroke: #000000; stroke-width: 0.8; stroke-linejoin: miter; stroke-linecap: square"/>
   </g>
   <g id="text_51">
    <!-- ORd-Lei -->
    <g transform="translate(406.684571 176.1945) scale(0.096 -0.096)">
     <defs>
      <path id="DejaVuSans-4f" d="M 2522 4238 
Q 1834 4238 1429 3725 
Q 1025 3213 1025 2328 
Q 1025 1447 1429 934 
Q 1834 422 2522 422 
Q 3209 422 3611 934 
Q 4013 1447 4013 2328 
Q 4013 3213 3611 3725 
Q 3209 4238 2522 4238 
z
M 2522 4750 
Q 3503 4750 4090 4092 
Q 4678 3434 4678 2328 
Q 4678 1225 4090 567 
Q 3503 -91 2522 -91 
Q 1538 -91 948 565 
Q 359 1222 359 2328 
Q 359 3434 948 4092 
Q 1538 4750 2522 4750 
z
" transform="scale(0.015625)"/>
      <path id="DejaVuSans-52" d="M 2841 2188 
Q 3044 2119 3236 1894 
Q 3428 1669 3622 1275 
L 4263 0 
L 3584 0 
L 2988 1197 
Q 2756 1666 2539 1819 
Q 2322 1972 1947 1972 
L 1259 1972 
L 1259 0 
L 628 0 
L 628 4666 
L 2053 4666 
Q 2853 4666 3247 4331 
Q 3641 3997 3641 3322 
Q 3641 2881 3436 2590 
Q 3231 2300 2841 2188 
z
M 1259 4147 
L 1259 2491 
L 2053 2491 
Q 2509 2491 2742 2702 
Q 2975 2913 2975 3322 
Q 2975 3731 2742 3939 
Q 2509 4147 2053 4147 
L 1259 4147 
z
" transform="scale(0.015625)"/>
     </defs>
     <use xlink:href="#DejaVuSans-4f"/>
     <use xlink:href="#DejaVuSans-52" x="78.710938"/>
     <use xlink:href="#DejaVuSans-64" x="148.193359"/>
     <use xlink:href="#DejaVuSans-2d" x="211.669922"/>
     <use xlink:href="#DejaVuSans-4c" x="247.753906"/>
     <use xlink:href="#DejaVuSans-65" x="301.716797"/>
     <use xlink:href="#DejaVuSans-69" x="363.240234"/>
    </g>
   </g>
  </g>
  <g id="axes_8">
   <g id="patch_38">
    <path d="M 305.883393 297.6945 
L 545.02625 297.6945 
L 545.02625 242.6945 
L 305.883393 242.6945 
z
" style="fill: #ffffff"/>
   </g>
   <g id="matplotlib.axis_15">
    <g id="xtick_64">
     <g id="line2d_105">
      <g>
       <use xlink:href="#m3cf23530be" x="305.883393" y="297.6945" style="stroke: #000000; stroke-width: 0.8"/>
      </g>
     </g>
     <g id="text_52">
      <!-- 0 -->
      <g transform="translate(303.338393 310.77325) scale(0.08 -0.08)">
       <use xlink:href="#DejaVuSans-30"/>
      </g>
     </g>
    </g>
    <g id="xtick_65">
     <g id="line2d_106">
      <g>
       <use xlink:href="#m3cf23530be" x="335.77625" y="297.6945" style="stroke: #000000; stroke-width: 0.8"/>
      </g>
     </g>
     <g id="text_53">
      <!-- 100 -->
      <g transform="translate(328.14125 310.77325) scale(0.08 -0.08)">
       <use xlink:href="#DejaVuSans-31"/>
       <use xlink:href="#DejaVuSans-30" x="63.623047"/>
       <use xlink:href="#DejaVuSans-30" x="127.246094"/>
      </g>
     </g>
    </g>
    <g id="xtick_66">
     <g id="line2d_107">
      <g>
       <use xlink:href="#m3cf23530be" x="365.669107" y="297.6945" style="stroke: #000000; stroke-width: 0.8"/>
      </g>
     </g>
     <g id="text_54">
      <!-- 200 -->
      <g transform="translate(358.034107 310.77325) scale(0.08 -0.08)">
       <use xlink:href="#DejaVuSans-32"/>
       <use xlink:href="#DejaVuSans-30" x="63.623047"/>
       <use xlink:href="#DejaVuSans-30" x="127.246094"/>
      </g>
     </g>
    </g>
    <g id="xtick_67">
     <g id="line2d_108">
      <g>
       <use xlink:href="#m3cf23530be" x="395.561964" y="297.6945" style="stroke: #000000; stroke-width: 0.8"/>
      </g>
     </g>
     <g id="text_55">
      <!-- 300 -->
      <g transform="translate(387.926964 310.77325) scale(0.08 -0.08)">
       <use xlink:href="#DejaVuSans-33"/>
       <use xlink:href="#DejaVuSans-30" x="63.623047"/>
       <use xlink:href="#DejaVuSans-30" x="127.246094"/>
      </g>
     </g>
    </g>
    <g id="xtick_68">
     <g id="line2d_109">
      <g>
       <use xlink:href="#m3cf23530be" x="425.454821" y="297.6945" style="stroke: #000000; stroke-width: 0.8"/>
      </g>
     </g>
     <g id="text_56">
      <!-- 400 -->
      <g transform="translate(417.819821 310.77325) scale(0.08 -0.08)">
       <use xlink:href="#DejaVuSans-34"/>
       <use xlink:href="#DejaVuSans-30" x="63.623047"/>
       <use xlink:href="#DejaVuSans-30" x="127.246094"/>
      </g>
     </g>
    </g>
    <g id="xtick_69">
     <g id="line2d_110">
      <g>
       <use xlink:href="#m3cf23530be" x="455.347679" y="297.6945" style="stroke: #000000; stroke-width: 0.8"/>
      </g>
     </g>
     <g id="text_57">
      <!-- 500 -->
      <g transform="translate(447.712679 310.77325) scale(0.08 -0.08)">
       <use xlink:href="#DejaVuSans-35"/>
       <use xlink:href="#DejaVuSans-30" x="63.623047"/>
       <use xlink:href="#DejaVuSans-30" x="127.246094"/>
      </g>
     </g>
    </g>
    <g id="xtick_70">
     <g id="line2d_111">
      <g>
       <use xlink:href="#m3cf23530be" x="485.240536" y="297.6945" style="stroke: #000000; stroke-width: 0.8"/>
      </g>
     </g>
     <g id="text_58">
      <!-- 600 -->
      <g transform="translate(477.605536 310.77325) scale(0.08 -0.08)">
       <use xlink:href="#DejaVuSans-36"/>
       <use xlink:href="#DejaVuSans-30" x="63.623047"/>
       <use xlink:href="#DejaVuSans-30" x="127.246094"/>
      </g>
     </g>
    </g>
    <g id="xtick_71">
     <g id="line2d_112">
      <g>
       <use xlink:href="#m3cf23530be" x="515.133393" y="297.6945" style="stroke: #000000; stroke-width: 0.8"/>
      </g>
     </g>
     <g id="text_59">
      <!-- 700 -->
      <g transform="translate(507.498393 310.77325) scale(0.08 -0.08)">
       <use xlink:href="#DejaVuSans-37"/>
       <use xlink:href="#DejaVuSans-30" x="63.623047"/>
       <use xlink:href="#DejaVuSans-30" x="127.246094"/>
      </g>
     </g>
    </g>
    <g id="xtick_72">
     <g id="line2d_113">
      <g>
       <use xlink:href="#m3cf23530be" x="545.02625" y="297.6945" style="stroke: #000000; stroke-width: 0.8"/>
      </g>
     </g>
     <g id="text_60">
      <!-- 800 -->
      <g transform="translate(537.39125 310.77325) scale(0.08 -0.08)">
       <use xlink:href="#DejaVuSans-38"/>
       <use xlink:href="#DejaVuSans-30" x="63.623047"/>
       <use xlink:href="#DejaVuSans-30" x="127.246094"/>
      </g>
     </g>
    </g>
    <g id="text_61">
     <!-- Time (ms) -->
     <g transform="translate(405.295446 322.51575) scale(0.08 -0.08)">
      <use xlink:href="#DejaVuSans-54"/>
      <use xlink:href="#DejaVuSans-69" x="57.958984"/>
      <use xlink:href="#DejaVuSans-6d" x="85.742188"/>
      <use xlink:href="#DejaVuSans-65" x="183.154297"/>
      <use xlink:href="#DejaVuSans-20" x="244.677734"/>
      <use xlink:href="#DejaVuSans-28" x="276.464844"/>
      <use xlink:href="#DejaVuSans-6d" x="315.478516"/>
      <use xlink:href="#DejaVuSans-73" x="412.890625"/>
      <use xlink:href="#DejaVuSans-29" x="464.990234"/>
     </g>
    </g>
   </g>
   <g id="matplotlib.axis_16">
    <g id="ytick_18">
     <g id="line2d_114">
      <g>
       <use xlink:href="#m9fa5e1086c" x="305.883393" y="295.181896" style="stroke: #000000; stroke-width: 0.8"/>
      </g>
     </g>
    </g>
    <g id="ytick_19">
     <g id="line2d_115">
      <g>
       <use xlink:href="#m9fa5e1086c" x="305.883393" y="275.405824" style="stroke: #000000; stroke-width: 0.8"/>
      </g>
     </g>
    </g>
    <g id="ytick_20">
     <g id="line2d_116">
      <g>
       <use xlink:href="#m9fa5e1086c" x="305.883393" y="255.629751" style="stroke: #000000; stroke-width: 0.8"/>
      </g>
     </g>
    </g>
   </g>
   <g id="line2d_117">
    <path d="M 305.883393 295.181895 
L 321.278214 295.114163 
L 321.607036 294.385022 
L 322.742964 291.651285 
L 323.490286 290.525904 
L 324.357179 289.631231 
L 325.523 288.768876 
L 327.137214 287.869032 
L 329.110143 287.024575 
L 331.352107 286.310953 
L 334.042464 285.698887 
L 337.898643 285.071748 
L 347.852964 283.764217 
L 358.494821 282.280201 
L 364.204357 281.250813 
L 369.405714 280.087129 
L 374.4875 278.721995 
L 379.539393 277.136639 
L 383.873857 275.555281 
L 390.868786 272.886822 
L 392.213964 272.746769 
L 393.469464 272.835409 
L 394.695071 273.145266 
L 395.920679 273.689272 
L 397.146286 274.478229 
L 398.431679 275.579768 
L 399.746964 277.007133 
L 401.122036 278.833849 
L 402.527 281.07511 
L 403.961857 283.794838 
L 405.605964 287.425794 
L 407.519107 291.583813 
L 408.386 292.944843 
L 409.163214 293.775797 
L 409.970321 294.314469 
L 410.897 294.659001 
L 412.182393 294.877696 
L 414.424357 294.996255 
L 421.897571 295.066849 
L 457.380393 295.136757 
L 545.056143 295.161749 
L 545.056143 295.161749 
" clip-path="url(#p8190685019)" style="fill: none; stroke-dasharray: 5.55,2.4; stroke-dashoffset: 0; stroke: #000000; stroke-width: 1.5"/>
   </g>
   <g id="line2d_118">
    <path d="M 305.883393 295.183056 
L 320.889607 295.085244 
L 321.12875 294.898521 
L 321.218429 294.670039 
L 321.577143 292.785709 
L 321.696714 292.85133 
L 322.055429 293.621195 
L 322.414143 294.092414 
L 322.742964 294.176095 
L 323.22125 294.027437 
L 325.672464 293.006331 
L 329.169929 292.065803 
L 337.629607 289.991281 
L 345.1925 288.090975 
L 349.467179 286.784272 
L 352.964643 285.488927 
L 355.953929 284.150378 
L 358.554607 282.745603 
L 360.826464 281.267947 
L 362.829286 279.701765 
L 364.592964 278.045737 
L 366.177286 276.256489 
L 367.612143 274.296074 
L 368.897536 272.154349 
L 370.033464 269.831532 
L 371.109607 267.111844 
L 372.155857 263.840523 
L 373.291786 259.517974 
L 375.145143 251.373088 
L 376.221286 247.178456 
L 376.78925 245.717008 
L 377.177857 245.236283 
L 377.417 245.212462 
L 377.656143 245.431874 
L 377.955071 246.093675 
L 378.313786 247.531558 
L 378.732286 250.211944 
L 379.240464 255.066345 
L 379.868214 263.459668 
L 381.512321 286.976501 
L 382.0205 290.560163 
L 382.468893 292.330456 
L 382.917286 293.296169 
L 383.395571 293.832677 
L 383.963536 294.139721 
L 384.830429 294.328721 
L 386.803357 294.464708 
L 395.651643 294.748607 
L 410.4785 295.000995 
L 433.585679 295.151057 
L 482.161571 295.194325 
L 545.056143 295.186219 
L 545.056143 295.186219 
" clip-path="url(#p8190685019)" style="fill: none; stroke: #000000; stroke-width: 1.5; stroke-linecap: square"/>
   </g>
   <g id="line2d_119">
    <path d="M 305.883393 295.182979 
L 320.889607 295.09036 
L 321.248321 294.514299 
L 321.517357 293.129107 
L 321.636929 293.072666 
L 321.666821 293.095811 
L 321.905964 293.51986 
L 322.324464 294.16257 
L 322.653286 294.299707 
L 323.101679 294.214299 
L 326.509464 293.072341 
L 333.743536 291.472156 
L 348.480714 288.285223 
L 352.695607 287.067983 
L 356.252857 285.813477 
L 359.301929 284.506504 
L 361.9325 283.142641 
L 364.23425 281.704555 
L 366.266964 280.17727 
L 368.060536 278.555903 
L 369.644857 276.828807 
L 371.049821 274.972284 
L 372.305321 272.94581 
L 373.44125 270.693128 
L 374.547286 267.994826 
L 375.713107 264.528288 
L 377.177857 259.391686 
L 379.150786 252.50538 
L 379.838321 250.872276 
L 380.286714 250.298344 
L 380.585643 250.207398 
L 380.854679 250.364901 
L 381.153607 250.844496 
L 381.512321 251.900734 
L 381.930821 253.88518 
L 382.439 257.51772 
L 383.036857 263.611137 
L 383.933643 275.546055 
L 384.800536 286.058752 
L 385.338607 290.086739 
L 385.816893 292.150155 
L 386.295179 293.275976 
L 386.773464 293.864723 
L 387.341429 294.207588 
L 388.148536 294.409729 
L 389.792643 294.539805 
L 397.056607 294.763964 
L 411.823679 295.007705 
L 435.409143 295.152761 
L 486.6455 295.192893 
L 545.056143 295.185958 
L 545.056143 295.185958 
" clip-path="url(#p8190685019)" style="fill: none; stroke: #ff0000; stroke-width: 1.5; stroke-linecap: square"/>
   </g>
   <g id="patch_39">
    <path d="M 305.883393 297.6945 
L 305.883393 242.6945 
" style="fill: none; stroke: #000000; stroke-width: 0.8; stroke-linejoin: miter; stroke-linecap: square"/>
   </g>
   <g id="patch_40">
    <path d="M 545.02625 297.6945 
L 545.02625 242.6945 
" style="fill: none; stroke: #000000; stroke-width: 0.8; stroke-linejoin: miter; stroke-linecap: square"/>
   </g>
   <g id="patch_41">
    <path d="M 305.883393 297.6945 
L 545.02625 297.6945 
" style="fill: none; stroke: #000000; stroke-width: 0.8; stroke-linejoin: miter; stroke-linecap: square"/>
   </g>
   <g id="patch_42">
    <path d="M 305.883393 242.6945 
L 545.02625 242.6945 
" style="fill: none; stroke: #000000; stroke-width: 0.8; stroke-linejoin: miter; stroke-linecap: square"/>
   </g>
  </g>
 </g>
 <defs>
  <clipPath id="pafdf6f1a99">
   <rect x="42.82625" y="20.4945" width="239.142857" height="55"/>
  </clipPath>
  <clipPath id="p1ccff3b0ce">
   <rect x="42.82625" y="80.9945" width="239.142857" height="55"/>
  </clipPath>
  <clipPath id="p16b4f52884">
   <rect x="305.883393" y="20.4945" width="239.142857" height="55"/>
  </clipPath>
  <clipPath id="p9aea189e65">
   <rect x="305.883393" y="80.9945" width="239.142857" height="55"/>
  </clipPath>
  <clipPath id="pbc8fc8914c">
   <rect x="42.82625" y="182.1945" width="239.142857" height="55"/>
  </clipPath>
  <clipPath id="pd205d81bdd">
   <rect x="42.82625" y="242.6945" width="239.142857" height="55"/>
  </clipPath>
  <clipPath id="pae20caebc9">
   <rect x="305.883393" y="182.1945" width="239.142857" height="55"/>
  </clipPath>
  <clipPath id="p8190685019">
   <rect x="305.883393" y="242.6945" width="239.142857" height="55"/>
  </clipPath>
 </defs>
</svg>
