<?xml version="1.0" encoding="utf-8" standalone="no"?>
<!DOCTYPE svg PUBLIC "-//W3C//DTD SVG 1.1//EN"
  "http://www.w3.org/Graphics/SVG/1.1/DTD/svg11.dtd">
<svg xmlns:xlink="http://www.w3.org/1999/xlink" width="444.1pt" height="192.7795pt" viewBox="0 0 444.1 192.7795" xmlns="http://www.w3.org/2000/svg" version="1.1">
 <metadata>
  <rdf:RDF xmlns:dc="http://purl.org/dc/elements/1.1/" xmlns:cc="http://creativecommons.org/ns#" xmlns:rdf="http://www.w3.org/1999/02/22-rdf-syntax-ns#">
   <cc:Work>
    <dc:type rdf:resource="http://purl.org/dc/dcmitype/StillImage"/>
    <dc:date>2023-10-08T22:27:10.032979</dc:date>
    <dc:format>image/svg+xml</dc:format>
    <dc:creator>
     <cc:Agent>
      <dc:title>Matplotlib v3.6.3, https://matplotlib.org/</dc:title>
     </cc:Agent>
    </dc:creator>
   </cc:Work>
  </rdf:RDF>
 </metadata>
 <defs>
  <style type="text/css">*{stroke-linejoin: round; stroke-linecap: butt}</style>
 </defs>
 <g id="figure_1">
  <g id="patch_1">
   <path d="M 0 192.7795 
L 444.1 192.7795 
L 444.1 -0 
L 0 -0 
z
" style="fill: #ffffff"/>
  </g>
  <g id="axes_1">
   <g id="patch_2">
    <path d="M 38.665 80.75537 
L 224.665 80.75537 
L 224.665 20.4945 
L 38.665 20.4945 
z
" style="fill: #ffffff"/>
   </g>
   <g id="matplotlib.axis_1">
    <g id="xtick_1">
     <g id="line2d_1">
      <defs>
       <path id="m7f74cbb4a8" d="M 0 0 
L 0 3.5 
" style="stroke: #000000; stroke-width: 0.8"/>
      </defs>
      <g>
       <use xlink:href="#m7f74cbb4a8" x="38.665" y="80.75537" style="stroke: #000000; stroke-width: 0.8"/>
      </g>
     </g>
    </g>
    <g id="xtick_2">
     <g id="line2d_2">
      <g>
       <use xlink:href="#m7f74cbb4a8" x="85.165" y="80.75537" style="stroke: #000000; stroke-width: 0.8"/>
      </g>
     </g>
    </g>
    <g id="xtick_3">
     <g id="line2d_3">
      <g>
       <use xlink:href="#m7f74cbb4a8" x="131.665" y="80.75537" style="stroke: #000000; stroke-width: 0.8"/>
      </g>
     </g>
    </g>
    <g id="xtick_4">
     <g id="line2d_4">
      <g>
       <use xlink:href="#m7f74cbb4a8" x="178.165" y="80.75537" style="stroke: #000000; stroke-width: 0.8"/>
      </g>
     </g>
    </g>
    <g id="xtick_5">
     <g id="line2d_5">
      <g>
       <use xlink:href="#m7f74cbb4a8" x="224.665" y="80.75537" style="stroke: #000000; stroke-width: 0.8"/>
      </g>
     </g>
    </g>
   </g>
   <g id="matplotlib.axis_2">
    <g id="ytick_1">
     <g id="line2d_6">
      <defs>
       <path id="m3c51cfc6c5" d="M 0 0 
L -3.5 0 
" style="stroke: #000000; stroke-width: 0.8"/>
      </defs>
      <g>
       <use xlink:href="#m3c51cfc6c5" x="38.665" y="78.016104" style="stroke: #000000; stroke-width: 0.8"/>
      </g>
     </g>
     <g id="text_1">
      <!-- 0.0 -->
      <g transform="translate(18.9425 81.055479) scale(0.08 -0.08)">
       <defs>
        <path id="DejaVuSans-30" d="M 2034 4250 
Q 1547 4250 1301 3770 
Q 1056 3291 1056 2328 
Q 1056 1369 1301 889 
Q 1547 409 2034 409 
Q 2525 409 2770 889 
Q 3016 1369 3016 2328 
Q 3016 3291 2770 3770 
Q 2525 4250 2034 4250 
z
M 2034 4750 
Q 2819 4750 3233 4129 
Q 3647 3509 3647 2328 
Q 3647 1150 3233 529 
Q 2819 -91 2034 -91 
Q 1250 -91 836 529 
Q 422 1150 422 2328 
Q 422 3509 836 4129 
Q 1250 4750 2034 4750 
z
" transform="scale(0.015625)"/>
        <path id="DejaVuSans-2e" d="M 684 794 
L 1344 794 
L 1344 0 
L 684 0 
L 684 794 
z
" transform="scale(0.015625)"/>
       </defs>
       <use xlink:href="#DejaVuSans-30"/>
       <use xlink:href="#DejaVuSans-2e" x="63.623047"/>
       <use xlink:href="#DejaVuSans-30" x="95.410156"/>
      </g>
     </g>
    </g>
    <g id="ytick_2">
     <g id="line2d_7">
      <g>
       <use xlink:href="#m3c51cfc6c5" x="38.665" y="56.884471" style="stroke: #000000; stroke-width: 0.8"/>
      </g>
     </g>
     <g id="text_2">
      <!-- 0.5 -->
      <g transform="translate(18.9425 59.923846) scale(0.08 -0.08)">
       <defs>
        <path id="DejaVuSans-35" d="M 691 4666 
L 3169 4666 
L 3169 4134 
L 1269 4134 
L 1269 2991 
Q 1406 3038 1543 3061 
Q 1681 3084 1819 3084 
Q 2600 3084 3056 2656 
Q 3513 2228 3513 1497 
Q 3513 744 3044 326 
Q 2575 -91 1722 -91 
Q 1428 -91 1123 -41 
Q 819 9 494 109 
L 494 744 
Q 775 591 1075 516 
Q 1375 441 1709 441 
Q 2250 441 2565 725 
Q 2881 1009 2881 1497 
Q 2881 1984 2565 2268 
Q 2250 2553 1709 2553 
Q 1456 2553 1204 2497 
Q 953 2441 691 2322 
L 691 4666 
z
" transform="scale(0.015625)"/>
       </defs>
       <use xlink:href="#DejaVuSans-30"/>
       <use xlink:href="#DejaVuSans-2e" x="63.623047"/>
       <use xlink:href="#DejaVuSans-35" x="95.410156"/>
      </g>
     </g>
    </g>
    <g id="ytick_3">
     <g id="line2d_8">
      <g>
       <use xlink:href="#m3c51cfc6c5" x="38.665" y="35.752838" style="stroke: #000000; stroke-width: 0.8"/>
      </g>
     </g>
     <g id="text_3">
      <!-- 1.0 -->
      <g transform="translate(18.9425 38.792213) scale(0.08 -0.08)">
       <defs>
        <path id="DejaVuSans-31" d="M 794 531 
L 1825 531 
L 1825 4091 
L 703 3866 
L 703 4441 
L 1819 4666 
L 2450 4666 
L 2450 531 
L 3481 531 
L 3481 0 
L 794 0 
L 794 531 
z
" transform="scale(0.015625)"/>
       </defs>
       <use xlink:href="#DejaVuSans-31"/>
       <use xlink:href="#DejaVuSans-2e" x="63.623047"/>
       <use xlink:href="#DejaVuSans-30" x="95.410156"/>
      </g>
     </g>
    </g>
    <g id="text_4">
     <!-- Current (A/F) -->
     <g transform="translate(13.27875 76.42306) rotate(-90) scale(0.08 -0.08)">
      <defs>
       <path id="DejaVuSans-43" d="M 4122 4306 
L 4122 3641 
Q 3803 3938 3442 4084 
Q 3081 4231 2675 4231 
Q 1875 4231 1450 3742 
Q 1025 3253 1025 2328 
Q 1025 1406 1450 917 
Q 1875 428 2675 428 
Q 3081 428 3442 575 
Q 3803 722 4122 1019 
L 4122 359 
Q 3791 134 3420 21 
Q 3050 -91 2638 -91 
Q 1578 -91 968 557 
Q 359 1206 359 2328 
Q 359 3453 968 4101 
Q 1578 4750 2638 4750 
Q 3056 4750 3426 4639 
Q 3797 4528 4122 4306 
z
" transform="scale(0.015625)"/>
       <path id="DejaVuSans-75" d="M 544 1381 
L 544 3500 
L 1119 3500 
L 1119 1403 
Q 1119 906 1312 657 
Q 1506 409 1894 409 
Q 2359 409 2629 706 
Q 2900 1003 2900 1516 
L 2900 3500 
L 3475 3500 
L 3475 0 
L 2900 0 
L 2900 538 
Q 2691 219 2414 64 
Q 2138 -91 1772 -91 
Q 1169 -91 856 284 
Q 544 659 544 1381 
z
M 1991 3584 
L 1991 3584 
z
" transform="scale(0.015625)"/>
       <path id="DejaVuSans-72" d="M 2631 2963 
Q 2534 3019 2420 3045 
Q 2306 3072 2169 3072 
Q 1681 3072 1420 2755 
Q 1159 2438 1159 1844 
L 1159 0 
L 581 0 
L 581 3500 
L 1159 3500 
L 1159 2956 
Q 1341 3275 1631 3429 
Q 1922 3584 2338 3584 
Q 2397 3584 2469 3576 
Q 2541 3569 2628 3553 
L 2631 2963 
z
" transform="scale(0.015625)"/>
       <path id="DejaVuSans-65" d="M 3597 1894 
L 3597 1613 
L 953 1613 
Q 991 1019 1311 708 
Q 1631 397 2203 397 
Q 2534 397 2845 478 
Q 3156 559 3463 722 
L 3463 178 
Q 3153 47 2828 -22 
Q 2503 -91 2169 -91 
Q 1331 -91 842 396 
Q 353 884 353 1716 
Q 353 2575 817 3079 
Q 1281 3584 2069 3584 
Q 2775 3584 3186 3129 
Q 3597 2675 3597 1894 
z
M 3022 2063 
Q 3016 2534 2758 2815 
Q 2500 3097 2075 3097 
Q 1594 3097 1305 2825 
Q 1016 2553 972 2059 
L 3022 2063 
z
" transform="scale(0.015625)"/>
       <path id="DejaVuSans-6e" d="M 3513 2113 
L 3513 0 
L 2938 0 
L 2938 2094 
Q 2938 2591 2744 2837 
Q 2550 3084 2163 3084 
Q 1697 3084 1428 2787 
Q 1159 2491 1159 1978 
L 1159 0 
L 581 0 
L 581 3500 
L 1159 3500 
L 1159 2956 
Q 1366 3272 1645 3428 
Q 1925 3584 2291 3584 
Q 2894 3584 3203 3211 
Q 3513 2838 3513 2113 
z
" transform="scale(0.015625)"/>
       <path id="DejaVuSans-74" d="M 1172 4494 
L 1172 3500 
L 2356 3500 
L 2356 3053 
L 1172 3053 
L 1172 1153 
Q 1172 725 1289 603 
Q 1406 481 1766 481 
L 2356 481 
L 2356 0 
L 1766 0 
Q 1100 0 847 248 
Q 594 497 594 1153 
L 594 3053 
L 172 3053 
L 172 3500 
L 594 3500 
L 594 4494 
L 1172 4494 
z
" transform="scale(0.015625)"/>
       <path id="DejaVuSans-20" transform="scale(0.015625)"/>
       <path id="DejaVuSans-28" d="M 1984 4856 
Q 1566 4138 1362 3434 
Q 1159 2731 1159 2009 
Q 1159 1288 1364 580 
Q 1569 -128 1984 -844 
L 1484 -844 
Q 1016 -109 783 600 
Q 550 1309 550 2009 
Q 550 2706 781 3412 
Q 1013 4119 1484 4856 
L 1984 4856 
z
" transform="scale(0.015625)"/>
       <path id="DejaVuSans-41" d="M 2188 4044 
L 1331 1722 
L 3047 1722 
L 2188 4044 
z
M 1831 4666 
L 2547 4666 
L 4325 0 
L 3669 0 
L 3244 1197 
L 1141 1197 
L 716 0 
L 50 0 
L 1831 4666 
z
" transform="scale(0.015625)"/>
       <path id="DejaVuSans-2f" d="M 1625 4666 
L 2156 4666 
L 531 -594 
L 0 -594 
L 1625 4666 
z
" transform="scale(0.015625)"/>
       <path id="DejaVuSans-46" d="M 628 4666 
L 3309 4666 
L 3309 4134 
L 1259 4134 
L 1259 2759 
L 3109 2759 
L 3109 2228 
L 1259 2228 
L 1259 0 
L 628 0 
L 628 4666 
z
" transform="scale(0.015625)"/>
       <path id="DejaVuSans-29" d="M 513 4856 
L 1013 4856 
Q 1481 4119 1714 3412 
Q 1947 2706 1947 2009 
Q 1947 1309 1714 600 
Q 1481 -109 1013 -844 
L 513 -844 
Q 928 -128 1133 580 
Q 1338 1288 1338 2009 
Q 1338 2731 1133 3434 
Q 928 4138 513 4856 
z
" transform="scale(0.015625)"/>
      </defs>
      <use xlink:href="#DejaVuSans-43"/>
      <use xlink:href="#DejaVuSans-75" x="69.824219"/>
      <use xlink:href="#DejaVuSans-72" x="133.203125"/>
      <use xlink:href="#DejaVuSans-72" x="172.566406"/>
      <use xlink:href="#DejaVuSans-65" x="211.429688"/>
      <use xlink:href="#DejaVuSans-6e" x="272.953125"/>
      <use xlink:href="#DejaVuSans-74" x="336.332031"/>
      <use xlink:href="#DejaVuSans-20" x="375.541016"/>
      <use xlink:href="#DejaVuSans-28" x="407.328125"/>
      <use xlink:href="#DejaVuSans-41" x="446.341797"/>
      <use xlink:href="#DejaVuSans-2f" x="514.75"/>
      <use xlink:href="#DejaVuSans-46" x="548.441406"/>
      <use xlink:href="#DejaVuSans-29" x="605.960938"/>
     </g>
    </g>
   </g>
   <g id="line2d_9">
    <path d="M 38.665 78.015718 
L 50.569 77.912492 
L 51.034 77.16595 
L 51.7315 76.27387 
L 52.68475 75.425544 
L 53.824 74.710406 
L 55.28875 74.070062 
L 57.89275 73.209959 
L 60.26425 72.677445 
L 63.6355 72.164866 
L 68.95975 71.604247 
L 80.02675 70.708641 
L 99.18475 69.364047 
L 101.812 69.441585 
L 103.765 69.711132 
L 105.346 70.14699 
L 106.67125 70.740611 
L 107.8105 71.492167 
L 108.90325 72.486254 
L 110.2285 74.028728 
L 111.92575 75.963679 
L 112.85575 76.669079 
L 113.809 77.107056 
L 114.99475 77.393095 
L 116.878 77.589864 
L 121.2025 77.763771 
L 131.3395 77.92749 
L 152.4505 78.004617 
L 224.68825 78.015696 
L 224.68825 78.015696 
" clip-path="url(#p06c2f6891c)" style="fill: none; stroke: #cccccc; stroke-opacity: 0.9; stroke-width: 1.5; stroke-linecap: square"/>
   </g>
   <g id="line2d_10">
    <path d="M 38.665 78.015815 
L 50.5225 77.91639 
L 50.68525 77.194263 
L 51.7315 71.714066 
L 52.6615 68.509069 
L 53.70775 65.679559 
L 54.77725 63.408384 
L 55.84675 61.646905 
L 56.91625 60.307455 
L 58.195 59.070499 
L 59.7295 57.897318 
L 61.45 56.860308 
L 63.3565 55.973494 
L 65.51875 55.217607 
L 68.21575 54.521155 
L 72.145 53.758597 
L 84.5605 51.475883 
L 88.792 50.41198 
L 92.326 49.299681 
L 95.46475 48.081011 
L 98.6035 46.61895 
L 104.95075 43.559236 
L 105.74125 43.514368 
L 106.39225 43.693124 
L 106.9735 44.079898 
L 107.55475 44.743008 
L 108.136 45.754189 
L 108.7405 47.272894 
L 109.36825 49.492095 
L 110.0425 52.772044 
L 110.8795 58.090704 
L 112.29775 67.132013 
L 113.0185 70.252955 
L 113.69275 72.23451 
L 114.367 73.563828 
L 115.08775 74.51173 
L 115.9015 75.218867 
L 116.90125 75.784623 
L 118.24975 76.274003 
L 120.226 76.733099 
L 123.13225 77.165558 
L 127.13125 77.525155 
L 132.6415 77.782598 
L 141.2905 77.940334 
L 159.8905 78.007989 
L 224.68825 78.015793 
L 224.68825 78.015793 
" clip-path="url(#p06c2f6891c)" style="fill: none; stroke: #cccccc; stroke-opacity: 0.9; stroke-width: 1.5; stroke-linecap: square"/>
   </g>
   <g id="line2d_11">
    <path d="M 38.665 78.015992 
L 50.54575 77.935394 
L 50.662 77.329012 
L 51.94075 68.559785 
L 53.08 63.348954 
L 54.3355 58.639136 
L 55.6375 54.584275 
L 56.91625 51.307338 
L 58.2415 48.506897 
L 59.6365 46.065438 
L 61.14775 43.862907 
L 62.82175 41.815125 
L 64.63525 39.945187 
L 66.937 37.913612 
L 70.58725 35.025251 
L 77.05075 29.911173 
L 80.21275 27.091114 
L 83.212 24.447986 
L 84.39775 23.706044 
L 85.3975 23.334858 
L 86.30425 23.234399 
L 87.14125 23.360638 
L 87.955 23.707033 
L 88.7455 24.290269 
L 89.51275 25.145438 
L 90.25675 26.328394 
L 90.9775 27.911838 
L 91.69825 30.050892 
L 92.44225 32.977112 
L 93.256 37.13481 
L 94.20925 43.271572 
L 95.60425 53.953221 
L 97.09225 64.877987 
L 97.906 69.26983 
L 98.6035 71.893438 
L 99.2545 73.533415 
L 99.9055 74.605227 
L 100.603 75.341209 
L 101.44 75.893181 
L 102.53275 76.334168 
L 104.20675 76.748152 
L 106.90375 77.167155 
L 110.76325 77.531927 
L 116.01775 77.791719 
L 124.15525 77.947936 
L 141.63925 78.010445 
L 224.68825 78.015984 
L 224.68825 78.015984 
" clip-path="url(#p06c2f6891c)" style="fill: none; stroke: #cccccc; stroke-opacity: 0.9; stroke-width: 1.5; stroke-linecap: square"/>
   </g>
   <g id="patch_3">
    <path d="M 38.665 80.75537 
L 38.665 20.4945 
" style="fill: none; stroke: #000000; stroke-width: 0.8; stroke-linejoin: miter; stroke-linecap: square"/>
   </g>
   <g id="patch_4">
    <path d="M 224.665 80.75537 
L 224.665 20.4945 
" style="fill: none; stroke: #000000; stroke-width: 0.8; stroke-linejoin: miter; stroke-linecap: square"/>
   </g>
   <g id="patch_5">
    <path d="M 38.665 80.75537 
L 224.665 80.75537 
" style="fill: none; stroke: #000000; stroke-width: 0.8; stroke-linejoin: miter; stroke-linecap: square"/>
   </g>
   <g id="patch_6">
    <path d="M 38.665 20.4945 
L 224.665 20.4945 
" style="fill: none; stroke: #000000; stroke-width: 0.8; stroke-linejoin: miter; stroke-linecap: square"/>
   </g>
   <g id="text_5">
    <!-- ORd-Li -->
    <g transform="translate(115.76425 14.4945) scale(0.096 -0.096)">
     <defs>
      <path id="DejaVuSans-4f" d="M 2522 4238 
Q 1834 4238 1429 3725 
Q 1025 3213 1025 2328 
Q 1025 1447 1429 934 
Q 1834 422 2522 422 
Q 3209 422 3611 934 
Q 4013 1447 4013 2328 
Q 4013 3213 3611 3725 
Q 3209 4238 2522 4238 
z
M 2522 4750 
Q 3503 4750 4090 4092 
Q 4678 3434 4678 2328 
Q 4678 1225 4090 567 
Q 3503 -91 2522 -91 
Q 1538 -91 948 565 
Q 359 1222 359 2328 
Q 359 3434 948 4092 
Q 1538 4750 2522 4750 
z
" transform="scale(0.015625)"/>
      <path id="DejaVuSans-52" d="M 2841 2188 
Q 3044 2119 3236 1894 
Q 3428 1669 3622 1275 
L 4263 0 
L 3584 0 
L 2988 1197 
Q 2756 1666 2539 1819 
Q 2322 1972 1947 1972 
L 1259 1972 
L 1259 0 
L 628 0 
L 628 4666 
L 2053 4666 
Q 2853 4666 3247 4331 
Q 3641 3997 3641 3322 
Q 3641 2881 3436 2590 
Q 3231 2300 2841 2188 
z
M 1259 4147 
L 1259 2491 
L 2053 2491 
Q 2509 2491 2742 2702 
Q 2975 2913 2975 3322 
Q 2975 3731 2742 3939 
Q 2509 4147 2053 4147 
L 1259 4147 
z
" transform="scale(0.015625)"/>
      <path id="DejaVuSans-64" d="M 2906 2969 
L 2906 4863 
L 3481 4863 
L 3481 0 
L 2906 0 
L 2906 525 
Q 2725 213 2448 61 
Q 2172 -91 1784 -91 
Q 1150 -91 751 415 
Q 353 922 353 1747 
Q 353 2572 751 3078 
Q 1150 3584 1784 3584 
Q 2172 3584 2448 3432 
Q 2725 3281 2906 2969 
z
M 947 1747 
Q 947 1113 1208 752 
Q 1469 391 1925 391 
Q 2381 391 2643 752 
Q 2906 1113 2906 1747 
Q 2906 2381 2643 2742 
Q 2381 3103 1925 3103 
Q 1469 3103 1208 2742 
Q 947 2381 947 1747 
z
" transform="scale(0.015625)"/>
      <path id="DejaVuSans-2d" d="M 313 2009 
L 1997 2009 
L 1997 1497 
L 313 1497 
L 313 2009 
z
" transform="scale(0.015625)"/>
      <path id="DejaVuSans-4c" d="M 628 4666 
L 1259 4666 
L 1259 531 
L 3531 531 
L 3531 0 
L 628 0 
L 628 4666 
z
" transform="scale(0.015625)"/>
      <path id="DejaVuSans-69" d="M 603 3500 
L 1178 3500 
L 1178 0 
L 603 0 
L 603 3500 
z
M 603 4863 
L 1178 4863 
L 1178 4134 
L 603 4134 
L 603 4863 
z
" transform="scale(0.015625)"/>
     </defs>
     <use xlink:href="#DejaVuSans-4f"/>
     <use xlink:href="#DejaVuSans-52" x="78.710938"/>
     <use xlink:href="#DejaVuSans-64" x="148.193359"/>
     <use xlink:href="#DejaVuSans-2d" x="211.669922"/>
     <use xlink:href="#DejaVuSans-4c" x="247.753906"/>
     <use xlink:href="#DejaVuSans-69" x="303.466797"/>
    </g>
   </g>
   <g id="line2d_12">
    <path d="M 38.665 78.016171 
L 50.63875 77.906259 
L 50.755 77.402682 
L 51.05725 74.541134 
L 51.7315 68.429836 
L 52.3825 64.69519 
L 53.14975 61.542584 
L 53.94025 59.185821 
L 54.82375 57.239692 
L 55.84675 55.522052 
L 57.079 53.89056 
L 58.567 52.293805 
L 60.3805 50.680014 
L 62.7055 48.921199 
L 66.2395 46.557084 
L 73.88875 41.482917 
L 77.4925 38.789753 
L 80.67775 36.135093 
L 83.398 33.58309 
L 85.69975 31.121094 
L 88.90825 27.636951 
L 89.83825 27.000403 
L 90.6055 26.730728 
L 91.27975 26.721466 
L 91.9075 26.930668 
L 92.53525 27.376429 
L 93.18625 28.122706 
L 93.8605 29.24947 
L 94.558 30.865307 
L 95.27875 33.115288 
L 96.02275 36.188071 
L 96.79 40.324723 
L 97.60375 45.998374 
L 98.464 53.65583 
L 100.57975 73.684109 
L 101.068 75.654755 
L 101.533 76.651683 
L 101.998 77.158495 
L 102.57925 77.455084 
L 103.486 77.632441 
L 105.69475 77.768798 
L 112.5535 77.934141 
L 126.43375 78.008721 
L 212.017 78.016162 
L 224.68825 78.016165 
L 224.68825 78.016165 
" clip-path="url(#p06c2f6891c)" style="fill: none; stroke: #000000; stroke-width: 1.5; stroke-linecap: square"/>
   </g>
  </g>
  <g id="axes_2">
   <g id="patch_7">
    <path d="M 243.265 80.75537 
L 429.265 80.75537 
L 429.265 20.4945 
L 243.265 20.4945 
z
" style="fill: #ffffff"/>
   </g>
   <g id="matplotlib.axis_3">
    <g id="xtick_6">
     <g id="line2d_13">
      <g>
       <use xlink:href="#m7f74cbb4a8" x="243.265" y="80.75537" style="stroke: #000000; stroke-width: 0.8"/>
      </g>
     </g>
    </g>
    <g id="xtick_7">
     <g id="line2d_14">
      <g>
       <use xlink:href="#m7f74cbb4a8" x="289.765" y="80.75537" style="stroke: #000000; stroke-width: 0.8"/>
      </g>
     </g>
    </g>
    <g id="xtick_8">
     <g id="line2d_15">
      <g>
       <use xlink:href="#m7f74cbb4a8" x="336.265" y="80.75537" style="stroke: #000000; stroke-width: 0.8"/>
      </g>
     </g>
    </g>
    <g id="xtick_9">
     <g id="line2d_16">
      <g>
       <use xlink:href="#m7f74cbb4a8" x="382.765" y="80.75537" style="stroke: #000000; stroke-width: 0.8"/>
      </g>
     </g>
    </g>
    <g id="xtick_10">
     <g id="line2d_17">
      <g>
       <use xlink:href="#m7f74cbb4a8" x="429.265" y="80.75537" style="stroke: #000000; stroke-width: 0.8"/>
      </g>
     </g>
    </g>
   </g>
   <g id="matplotlib.axis_4">
    <g id="ytick_4">
     <g id="line2d_18">
      <g>
       <use xlink:href="#m3c51cfc6c5" x="243.265" y="78.016104" style="stroke: #000000; stroke-width: 0.8"/>
      </g>
     </g>
    </g>
    <g id="ytick_5">
     <g id="line2d_19">
      <g>
       <use xlink:href="#m3c51cfc6c5" x="243.265" y="56.884471" style="stroke: #000000; stroke-width: 0.8"/>
      </g>
     </g>
    </g>
    <g id="ytick_6">
     <g id="line2d_20">
      <g>
       <use xlink:href="#m3c51cfc6c5" x="243.265" y="35.752838" style="stroke: #000000; stroke-width: 0.8"/>
      </g>
     </g>
    </g>
   </g>
   <g id="line2d_21">
    <path d="M 243.265 78.016171 
L 255.23875 77.906259 
L 255.355 77.402682 
L 255.65725 74.541134 
L 256.3315 68.429836 
L 256.9825 64.69519 
L 257.74975 61.542584 
L 258.54025 59.185821 
L 259.42375 57.239692 
L 260.44675 55.522052 
L 261.679 53.89056 
L 263.167 52.293805 
L 264.9805 50.680014 
L 267.3055 48.921199 
L 270.8395 46.557084 
L 278.48875 41.482917 
L 282.0925 38.789753 
L 285.27775 36.135093 
L 287.998 33.58309 
L 290.29975 31.121094 
L 293.50825 27.636951 
L 294.43825 27.000403 
L 295.2055 26.730728 
L 295.87975 26.721466 
L 296.5075 26.930668 
L 297.13525 27.376429 
L 297.78625 28.122706 
L 298.4605 29.24947 
L 299.158 30.865307 
L 299.87875 33.115288 
L 300.62275 36.188071 
L 301.39 40.324723 
L 302.20375 45.998374 
L 303.064 53.65583 
L 305.17975 73.684109 
L 305.668 75.654755 
L 306.133 76.651683 
L 306.598 77.158495 
L 307.17925 77.455084 
L 308.086 77.632441 
L 310.29475 77.768798 
L 317.1535 77.934141 
L 331.03375 78.008721 
L 416.617 78.016162 
L 429.28825 78.016165 
L 429.28825 78.016165 
" clip-path="url(#pd0b1c4110c)" style="fill: none; stroke: #cccccc; stroke-opacity: 0.9; stroke-width: 1.5; stroke-linecap: square"/>
   </g>
   <g id="line2d_22">
    <path d="M 243.265 78.015815 
L 255.1225 77.91639 
L 255.28525 77.194263 
L 256.3315 71.714066 
L 257.2615 68.509069 
L 258.30775 65.679559 
L 259.37725 63.408384 
L 260.44675 61.646905 
L 261.51625 60.307455 
L 262.795 59.070499 
L 264.3295 57.897318 
L 266.05 56.860308 
L 267.9565 55.973494 
L 270.11875 55.217607 
L 272.81575 54.521155 
L 276.745 53.758597 
L 289.1605 51.475883 
L 293.392 50.41198 
L 296.926 49.299681 
L 300.06475 48.081011 
L 303.2035 46.61895 
L 309.55075 43.559236 
L 310.34125 43.514368 
L 310.99225 43.693124 
L 311.5735 44.079898 
L 312.15475 44.743008 
L 312.736 45.754189 
L 313.3405 47.272894 
L 313.96825 49.492095 
L 314.6425 52.772044 
L 315.4795 58.090704 
L 316.89775 67.132013 
L 317.6185 70.252955 
L 318.29275 72.23451 
L 318.967 73.563828 
L 319.68775 74.51173 
L 320.5015 75.218867 
L 321.50125 75.784623 
L 322.84975 76.274003 
L 324.826 76.733099 
L 327.73225 77.165558 
L 331.73125 77.525155 
L 337.2415 77.782598 
L 345.8905 77.940334 
L 364.4905 78.007989 
L 429.28825 78.015793 
L 429.28825 78.015793 
" clip-path="url(#pd0b1c4110c)" style="fill: none; stroke: #cccccc; stroke-opacity: 0.9; stroke-width: 1.5; stroke-linecap: square"/>
   </g>
   <g id="line2d_23">
    <path d="M 243.265 78.015992 
L 255.14575 77.935394 
L 255.262 77.329012 
L 256.54075 68.559785 
L 257.68 63.348954 
L 258.9355 58.639136 
L 260.2375 54.584275 
L 261.51625 51.307338 
L 262.8415 48.506897 
L 264.2365 46.065438 
L 265.74775 43.862907 
L 267.42175 41.815125 
L 269.23525 39.945187 
L 271.537 37.913612 
L 275.18725 35.025251 
L 281.65075 29.911173 
L 284.81275 27.091114 
L 287.812 24.447986 
L 288.99775 23.706044 
L 289.9975 23.334858 
L 290.90425 23.234399 
L 291.74125 23.360638 
L 292.555 23.707033 
L 293.3455 24.290269 
L 294.11275 25.145438 
L 294.85675 26.328394 
L 295.5775 27.911838 
L 296.29825 30.050892 
L 297.04225 32.977112 
L 297.856 37.13481 
L 298.80925 43.271572 
L 300.20425 53.953221 
L 301.69225 64.877987 
L 302.506 69.26983 
L 303.2035 71.893438 
L 303.8545 73.533415 
L 304.5055 74.605227 
L 305.203 75.341209 
L 306.04 75.893181 
L 307.13275 76.334168 
L 308.80675 76.748152 
L 311.50375 77.167155 
L 315.36325 77.531927 
L 320.61775 77.791719 
L 328.75525 77.947936 
L 346.23925 78.010445 
L 429.28825 78.015984 
L 429.28825 78.015984 
" clip-path="url(#pd0b1c4110c)" style="fill: none; stroke: #cccccc; stroke-opacity: 0.9; stroke-width: 1.5; stroke-linecap: square"/>
   </g>
   <g id="patch_8">
    <path d="M 243.265 80.75537 
L 243.265 20.4945 
" style="fill: none; stroke: #000000; stroke-width: 0.8; stroke-linejoin: miter; stroke-linecap: square"/>
   </g>
   <g id="patch_9">
    <path d="M 429.265 80.75537 
L 429.265 20.4945 
" style="fill: none; stroke: #000000; stroke-width: 0.8; stroke-linejoin: miter; stroke-linecap: square"/>
   </g>
   <g id="patch_10">
    <path d="M 243.265 80.75537 
L 429.265 80.75537 
" style="fill: none; stroke: #000000; stroke-width: 0.8; stroke-linejoin: miter; stroke-linecap: square"/>
   </g>
   <g id="patch_11">
    <path d="M 243.265 20.4945 
L 429.265 20.4945 
" style="fill: none; stroke: #000000; stroke-width: 0.8; stroke-linejoin: miter; stroke-linecap: square"/>
   </g>
   <g id="text_6">
    <!-- Grandi-Li -->
    <g transform="translate(314.4685 14.4945) scale(0.096 -0.096)">
     <defs>
      <path id="DejaVuSans-47" d="M 3809 666 
L 3809 1919 
L 2778 1919 
L 2778 2438 
L 4434 2438 
L 4434 434 
Q 4069 175 3628 42 
Q 3188 -91 2688 -91 
Q 1594 -91 976 548 
Q 359 1188 359 2328 
Q 359 3472 976 4111 
Q 1594 4750 2688 4750 
Q 3144 4750 3555 4637 
Q 3966 4525 4313 4306 
L 4313 3634 
Q 3963 3931 3569 4081 
Q 3175 4231 2741 4231 
Q 1884 4231 1454 3753 
Q 1025 3275 1025 2328 
Q 1025 1384 1454 906 
Q 1884 428 2741 428 
Q 3075 428 3337 486 
Q 3600 544 3809 666 
z
" transform="scale(0.015625)"/>
      <path id="DejaVuSans-61" d="M 2194 1759 
Q 1497 1759 1228 1600 
Q 959 1441 959 1056 
Q 959 750 1161 570 
Q 1363 391 1709 391 
Q 2188 391 2477 730 
Q 2766 1069 2766 1631 
L 2766 1759 
L 2194 1759 
z
M 3341 1997 
L 3341 0 
L 2766 0 
L 2766 531 
Q 2569 213 2275 61 
Q 1981 -91 1556 -91 
Q 1019 -91 701 211 
Q 384 513 384 1019 
Q 384 1609 779 1909 
Q 1175 2209 1959 2209 
L 2766 2209 
L 2766 2266 
Q 2766 2663 2505 2880 
Q 2244 3097 1772 3097 
Q 1472 3097 1187 3025 
Q 903 2953 641 2809 
L 641 3341 
Q 956 3463 1253 3523 
Q 1550 3584 1831 3584 
Q 2591 3584 2966 3190 
Q 3341 2797 3341 1997 
z
" transform="scale(0.015625)"/>
     </defs>
     <use xlink:href="#DejaVuSans-47"/>
     <use xlink:href="#DejaVuSans-72" x="77.490234"/>
     <use xlink:href="#DejaVuSans-61" x="118.603516"/>
     <use xlink:href="#DejaVuSans-6e" x="179.882812"/>
     <use xlink:href="#DejaVuSans-64" x="243.261719"/>
     <use xlink:href="#DejaVuSans-69" x="306.738281"/>
     <use xlink:href="#DejaVuSans-2d" x="334.521484"/>
     <use xlink:href="#DejaVuSans-4c" x="370.605469"/>
     <use xlink:href="#DejaVuSans-69" x="426.318359"/>
    </g>
   </g>
   <g id="line2d_24">
    <path d="M 243.265 78.015718 
L 255.169 77.912492 
L 255.634 77.16595 
L 256.3315 76.27387 
L 257.28475 75.425544 
L 258.424 74.710406 
L 259.88875 74.070062 
L 262.49275 73.209959 
L 264.86425 72.677445 
L 268.2355 72.164866 
L 273.55975 71.604247 
L 284.62675 70.708641 
L 303.78475 69.364047 
L 306.412 69.441585 
L 308.365 69.711132 
L 309.946 70.14699 
L 311.27125 70.740611 
L 312.4105 71.492167 
L 313.50325 72.486254 
L 314.8285 74.028728 
L 316.52575 75.963679 
L 317.45575 76.669079 
L 318.409 77.107056 
L 319.59475 77.393095 
L 321.478 77.589864 
L 325.8025 77.763771 
L 335.9395 77.92749 
L 357.0505 78.004617 
L 429.28825 78.015696 
L 429.28825 78.015696 
" clip-path="url(#pd0b1c4110c)" style="fill: none; stroke: #000000; stroke-width: 1.5; stroke-linecap: square"/>
   </g>
  </g>
  <g id="axes_3">
   <g id="patch_12">
    <path d="M 38.665 159.0945 
L 224.665 159.0945 
L 224.665 98.83363 
L 38.665 98.83363 
z
" style="fill: #ffffff"/>
   </g>
   <g id="matplotlib.axis_5">
    <g id="xtick_11">
     <g id="line2d_25">
      <g>
       <use xlink:href="#m7f74cbb4a8" x="38.665" y="159.0945" style="stroke: #000000; stroke-width: 0.8"/>
      </g>
     </g>
     <g id="text_7">
      <!-- 0 -->
      <g transform="translate(36.12 172.17325) scale(0.08 -0.08)">
       <use xlink:href="#DejaVuSans-30"/>
      </g>
     </g>
    </g>
    <g id="xtick_12">
     <g id="line2d_26">
      <g>
       <use xlink:href="#m7f74cbb4a8" x="85.165" y="159.0945" style="stroke: #000000; stroke-width: 0.8"/>
      </g>
     </g>
     <g id="text_8">
      <!-- 200 -->
      <g transform="translate(77.53 172.17325) scale(0.08 -0.08)">
       <defs>
        <path id="DejaVuSans-32" d="M 1228 531 
L 3431 531 
L 3431 0 
L 469 0 
L 469 531 
Q 828 903 1448 1529 
Q 2069 2156 2228 2338 
Q 2531 2678 2651 2914 
Q 2772 3150 2772 3378 
Q 2772 3750 2511 3984 
Q 2250 4219 1831 4219 
Q 1534 4219 1204 4116 
Q 875 4013 500 3803 
L 500 4441 
Q 881 4594 1212 4672 
Q 1544 4750 1819 4750 
Q 2544 4750 2975 4387 
Q 3406 4025 3406 3419 
Q 3406 3131 3298 2873 
Q 3191 2616 2906 2266 
Q 2828 2175 2409 1742 
Q 1991 1309 1228 531 
z
" transform="scale(0.015625)"/>
       </defs>
       <use xlink:href="#DejaVuSans-32"/>
       <use xlink:href="#DejaVuSans-30" x="63.623047"/>
       <use xlink:href="#DejaVuSans-30" x="127.246094"/>
      </g>
     </g>
    </g>
    <g id="xtick_13">
     <g id="line2d_27">
      <g>
       <use xlink:href="#m7f74cbb4a8" x="131.665" y="159.0945" style="stroke: #000000; stroke-width: 0.8"/>
      </g>
     </g>
     <g id="text_9">
      <!-- 400 -->
      <g transform="translate(124.03 172.17325) scale(0.08 -0.08)">
       <defs>
        <path id="DejaVuSans-34" d="M 2419 4116 
L 825 1625 
L 2419 1625 
L 2419 4116 
z
M 2253 4666 
L 3047 4666 
L 3047 1625 
L 3713 1625 
L 3713 1100 
L 3047 1100 
L 3047 0 
L 2419 0 
L 2419 1100 
L 313 1100 
L 313 1709 
L 2253 4666 
z
" transform="scale(0.015625)"/>
       </defs>
       <use xlink:href="#DejaVuSans-34"/>
       <use xlink:href="#DejaVuSans-30" x="63.623047"/>
       <use xlink:href="#DejaVuSans-30" x="127.246094"/>
      </g>
     </g>
    </g>
    <g id="xtick_14">
     <g id="line2d_28">
      <g>
       <use xlink:href="#m7f74cbb4a8" x="178.165" y="159.0945" style="stroke: #000000; stroke-width: 0.8"/>
      </g>
     </g>
     <g id="text_10">
      <!-- 600 -->
      <g transform="translate(170.53 172.17325) scale(0.08 -0.08)">
       <defs>
        <path id="DejaVuSans-36" d="M 2113 2584 
Q 1688 2584 1439 2293 
Q 1191 2003 1191 1497 
Q 1191 994 1439 701 
Q 1688 409 2113 409 
Q 2538 409 2786 701 
Q 3034 994 3034 1497 
Q 3034 2003 2786 2293 
Q 2538 2584 2113 2584 
z
M 3366 4563 
L 3366 3988 
Q 3128 4100 2886 4159 
Q 2644 4219 2406 4219 
Q 1781 4219 1451 3797 
Q 1122 3375 1075 2522 
Q 1259 2794 1537 2939 
Q 1816 3084 2150 3084 
Q 2853 3084 3261 2657 
Q 3669 2231 3669 1497 
Q 3669 778 3244 343 
Q 2819 -91 2113 -91 
Q 1303 -91 875 529 
Q 447 1150 447 2328 
Q 447 3434 972 4092 
Q 1497 4750 2381 4750 
Q 2619 4750 2861 4703 
Q 3103 4656 3366 4563 
z
" transform="scale(0.015625)"/>
       </defs>
       <use xlink:href="#DejaVuSans-36"/>
       <use xlink:href="#DejaVuSans-30" x="63.623047"/>
       <use xlink:href="#DejaVuSans-30" x="127.246094"/>
      </g>
     </g>
    </g>
    <g id="xtick_15">
     <g id="line2d_29">
      <g>
       <use xlink:href="#m7f74cbb4a8" x="224.665" y="159.0945" style="stroke: #000000; stroke-width: 0.8"/>
      </g>
     </g>
     <g id="text_11">
      <!-- 800 -->
      <g transform="translate(217.03 172.17325) scale(0.08 -0.08)">
       <defs>
        <path id="DejaVuSans-38" d="M 2034 2216 
Q 1584 2216 1326 1975 
Q 1069 1734 1069 1313 
Q 1069 891 1326 650 
Q 1584 409 2034 409 
Q 2484 409 2743 651 
Q 3003 894 3003 1313 
Q 3003 1734 2745 1975 
Q 2488 2216 2034 2216 
z
M 1403 2484 
Q 997 2584 770 2862 
Q 544 3141 544 3541 
Q 544 4100 942 4425 
Q 1341 4750 2034 4750 
Q 2731 4750 3128 4425 
Q 3525 4100 3525 3541 
Q 3525 3141 3298 2862 
Q 3072 2584 2669 2484 
Q 3125 2378 3379 2068 
Q 3634 1759 3634 1313 
Q 3634 634 3220 271 
Q 2806 -91 2034 -91 
Q 1263 -91 848 271 
Q 434 634 434 1313 
Q 434 1759 690 2068 
Q 947 2378 1403 2484 
z
M 1172 3481 
Q 1172 3119 1398 2916 
Q 1625 2713 2034 2713 
Q 2441 2713 2670 2916 
Q 2900 3119 2900 3481 
Q 2900 3844 2670 4047 
Q 2441 4250 2034 4250 
Q 1625 4250 1398 4047 
Q 1172 3844 1172 3481 
z
" transform="scale(0.015625)"/>
       </defs>
       <use xlink:href="#DejaVuSans-38"/>
       <use xlink:href="#DejaVuSans-30" x="63.623047"/>
       <use xlink:href="#DejaVuSans-30" x="127.246094"/>
      </g>
     </g>
    </g>
    <g id="text_12">
     <!-- Time (ms) -->
     <g transform="translate(111.505625 183.91575) scale(0.08 -0.08)">
      <defs>
       <path id="DejaVuSans-54" d="M -19 4666 
L 3928 4666 
L 3928 4134 
L 2272 4134 
L 2272 0 
L 1638 0 
L 1638 4134 
L -19 4134 
L -19 4666 
z
" transform="scale(0.015625)"/>
       <path id="DejaVuSans-6d" d="M 3328 2828 
Q 3544 3216 3844 3400 
Q 4144 3584 4550 3584 
Q 5097 3584 5394 3201 
Q 5691 2819 5691 2113 
L 5691 0 
L 5113 0 
L 5113 2094 
Q 5113 2597 4934 2840 
Q 4756 3084 4391 3084 
Q 3944 3084 3684 2787 
Q 3425 2491 3425 1978 
L 3425 0 
L 2847 0 
L 2847 2094 
Q 2847 2600 2669 2842 
Q 2491 3084 2119 3084 
Q 1678 3084 1418 2786 
Q 1159 2488 1159 1978 
L 1159 0 
L 581 0 
L 581 3500 
L 1159 3500 
L 1159 2956 
Q 1356 3278 1631 3431 
Q 1906 3584 2284 3584 
Q 2666 3584 2933 3390 
Q 3200 3197 3328 2828 
z
" transform="scale(0.015625)"/>
       <path id="DejaVuSans-73" d="M 2834 3397 
L 2834 2853 
Q 2591 2978 2328 3040 
Q 2066 3103 1784 3103 
Q 1356 3103 1142 2972 
Q 928 2841 928 2578 
Q 928 2378 1081 2264 
Q 1234 2150 1697 2047 
L 1894 2003 
Q 2506 1872 2764 1633 
Q 3022 1394 3022 966 
Q 3022 478 2636 193 
Q 2250 -91 1575 -91 
Q 1294 -91 989 -36 
Q 684 19 347 128 
L 347 722 
Q 666 556 975 473 
Q 1284 391 1588 391 
Q 1994 391 2212 530 
Q 2431 669 2431 922 
Q 2431 1156 2273 1281 
Q 2116 1406 1581 1522 
L 1381 1569 
Q 847 1681 609 1914 
Q 372 2147 372 2553 
Q 372 3047 722 3315 
Q 1072 3584 1716 3584 
Q 2034 3584 2315 3537 
Q 2597 3491 2834 3397 
z
" transform="scale(0.015625)"/>
      </defs>
      <use xlink:href="#DejaVuSans-54"/>
      <use xlink:href="#DejaVuSans-69" x="57.958984"/>
      <use xlink:href="#DejaVuSans-6d" x="85.742188"/>
      <use xlink:href="#DejaVuSans-65" x="183.154297"/>
      <use xlink:href="#DejaVuSans-20" x="244.677734"/>
      <use xlink:href="#DejaVuSans-28" x="276.464844"/>
      <use xlink:href="#DejaVuSans-6d" x="315.478516"/>
      <use xlink:href="#DejaVuSans-73" x="412.890625"/>
      <use xlink:href="#DejaVuSans-29" x="464.990234"/>
     </g>
    </g>
   </g>
   <g id="matplotlib.axis_6">
    <g id="ytick_7">
     <g id="line2d_30">
      <g>
       <use xlink:href="#m3c51cfc6c5" x="38.665" y="156.355234" style="stroke: #000000; stroke-width: 0.8"/>
      </g>
     </g>
     <g id="text_13">
      <!-- 0.0 -->
      <g transform="translate(18.9425 159.394609) scale(0.08 -0.08)">
       <use xlink:href="#DejaVuSans-30"/>
       <use xlink:href="#DejaVuSans-2e" x="63.623047"/>
       <use xlink:href="#DejaVuSans-30" x="95.410156"/>
      </g>
     </g>
    </g>
    <g id="ytick_8">
     <g id="line2d_31">
      <g>
       <use xlink:href="#m3c51cfc6c5" x="38.665" y="135.223601" style="stroke: #000000; stroke-width: 0.8"/>
      </g>
     </g>
     <g id="text_14">
      <!-- 0.5 -->
      <g transform="translate(18.9425 138.262976) scale(0.08 -0.08)">
       <use xlink:href="#DejaVuSans-30"/>
       <use xlink:href="#DejaVuSans-2e" x="63.623047"/>
       <use xlink:href="#DejaVuSans-35" x="95.410156"/>
      </g>
     </g>
    </g>
    <g id="ytick_9">
     <g id="line2d_32">
      <g>
       <use xlink:href="#m3c51cfc6c5" x="38.665" y="114.091969" style="stroke: #000000; stroke-width: 0.8"/>
      </g>
     </g>
     <g id="text_15">
      <!-- 1.0 -->
      <g transform="translate(18.9425 117.131344) scale(0.08 -0.08)">
       <use xlink:href="#DejaVuSans-31"/>
       <use xlink:href="#DejaVuSans-2e" x="63.623047"/>
       <use xlink:href="#DejaVuSans-30" x="95.410156"/>
      </g>
     </g>
    </g>
    <g id="text_16">
     <!-- Current (A/F) -->
     <g transform="translate(13.27875 154.76219) rotate(-90) scale(0.08 -0.08)">
      <use xlink:href="#DejaVuSans-43"/>
      <use xlink:href="#DejaVuSans-75" x="69.824219"/>
      <use xlink:href="#DejaVuSans-72" x="133.203125"/>
      <use xlink:href="#DejaVuSans-72" x="172.566406"/>
      <use xlink:href="#DejaVuSans-65" x="211.429688"/>
      <use xlink:href="#DejaVuSans-6e" x="272.953125"/>
      <use xlink:href="#DejaVuSans-74" x="336.332031"/>
      <use xlink:href="#DejaVuSans-20" x="375.541016"/>
      <use xlink:href="#DejaVuSans-28" x="407.328125"/>
      <use xlink:href="#DejaVuSans-41" x="446.341797"/>
      <use xlink:href="#DejaVuSans-2f" x="514.75"/>
      <use xlink:href="#DejaVuSans-46" x="548.441406"/>
      <use xlink:href="#DejaVuSans-29" x="605.960938"/>
     </g>
    </g>
   </g>
   <g id="line2d_33">
    <path d="M 38.665 156.355301 
L 50.63875 156.245389 
L 50.755 155.741813 
L 51.05725 152.880264 
L 51.7315 146.768967 
L 52.3825 143.03432 
L 53.14975 139.881714 
L 53.94025 137.524951 
L 54.82375 135.578823 
L 55.84675 133.861183 
L 57.079 132.22969 
L 58.567 130.632935 
L 60.3805 129.019145 
L 62.7055 127.260329 
L 66.2395 124.896214 
L 73.88875 119.822048 
L 77.4925 117.128883 
L 80.67775 114.474223 
L 83.398 111.92222 
L 85.69975 109.460224 
L 88.90825 105.976081 
L 89.83825 105.339533 
L 90.6055 105.069858 
L 91.27975 105.060597 
L 91.9075 105.269798 
L 92.53525 105.715559 
L 93.18625 106.461837 
L 93.8605 107.588601 
L 94.558 109.204437 
L 95.27875 111.454419 
L 96.02275 114.527201 
L 96.79 118.663853 
L 97.60375 124.337505 
L 98.464 131.99496 
L 100.57975 152.023239 
L 101.068 153.993886 
L 101.533 154.990813 
L 101.998 155.497625 
L 102.57925 155.794214 
L 103.486 155.971571 
L 105.69475 156.107928 
L 112.5535 156.273271 
L 126.43375 156.347851 
L 212.017 156.355293 
L 224.68825 156.355295 
L 224.68825 156.355295 
" clip-path="url(#pb110dcd50b)" style="fill: none; stroke: #cccccc; stroke-opacity: 0.9; stroke-width: 1.5; stroke-linecap: square"/>
   </g>
   <g id="line2d_34">
    <path d="M 38.665 156.354849 
L 50.569 156.251622 
L 51.034 155.505081 
L 51.7315 154.613 
L 52.68475 153.764675 
L 53.824 153.049536 
L 55.28875 152.409193 
L 57.89275 151.54909 
L 60.26425 151.016576 
L 63.6355 150.503996 
L 68.95975 149.943378 
L 80.02675 149.047772 
L 99.18475 147.703178 
L 101.812 147.780715 
L 103.765 148.050263 
L 105.346 148.48612 
L 106.67125 149.079742 
L 107.8105 149.831297 
L 108.90325 150.825385 
L 110.2285 152.367858 
L 111.92575 154.302809 
L 112.85575 155.00821 
L 113.809 155.446186 
L 114.99475 155.732226 
L 116.878 155.928994 
L 121.2025 156.102902 
L 131.3395 156.266621 
L 152.4505 156.343747 
L 224.68825 156.354826 
L 224.68825 156.354826 
" clip-path="url(#pb110dcd50b)" style="fill: none; stroke: #cccccc; stroke-opacity: 0.9; stroke-width: 1.5; stroke-linecap: square"/>
   </g>
   <g id="line2d_35">
    <path d="M 38.665 156.355122 
L 50.54575 156.274524 
L 50.662 155.668142 
L 51.94075 146.898916 
L 53.08 141.688085 
L 54.3355 136.978266 
L 55.6375 132.923406 
L 56.91625 129.646468 
L 58.2415 126.846027 
L 59.6365 124.404569 
L 61.14775 122.202037 
L 62.82175 120.154255 
L 64.63525 118.284317 
L 66.937 116.252742 
L 70.58725 113.364381 
L 77.05075 108.250304 
L 80.21275 105.430244 
L 83.212 102.787116 
L 84.39775 102.045174 
L 85.3975 101.673989 
L 86.30425 101.573529 
L 87.14125 101.699768 
L 87.955 102.046163 
L 88.7455 102.6294 
L 89.51275 103.484569 
L 90.25675 104.667525 
L 90.9775 106.250969 
L 91.69825 108.390022 
L 92.44225 111.316242 
L 93.256 115.47394 
L 94.20925 121.610703 
L 95.60425 132.292352 
L 97.09225 143.217117 
L 97.906 147.60896 
L 98.6035 150.232569 
L 99.2545 151.872545 
L 99.9055 152.944358 
L 100.603 153.68034 
L 101.44 154.232311 
L 102.53275 154.673298 
L 104.20675 155.087282 
L 106.90375 155.506285 
L 110.76325 155.871057 
L 116.01775 156.130849 
L 124.15525 156.287066 
L 141.63925 156.349576 
L 224.68825 156.355114 
L 224.68825 156.355114 
" clip-path="url(#pb110dcd50b)" style="fill: none; stroke: #cccccc; stroke-opacity: 0.9; stroke-width: 1.5; stroke-linecap: square"/>
   </g>
   <g id="patch_13">
    <path d="M 38.665 159.0945 
L 38.665 98.83363 
" style="fill: none; stroke: #000000; stroke-width: 0.8; stroke-linejoin: miter; stroke-linecap: square"/>
   </g>
   <g id="patch_14">
    <path d="M 224.665 159.0945 
L 224.665 98.83363 
" style="fill: none; stroke: #000000; stroke-width: 0.8; stroke-linejoin: miter; stroke-linecap: square"/>
   </g>
   <g id="patch_15">
    <path d="M 38.665 159.0945 
L 224.665 159.0945 
" style="fill: none; stroke: #000000; stroke-width: 0.8; stroke-linejoin: miter; stroke-linecap: square"/>
   </g>
   <g id="patch_16">
    <path d="M 38.665 98.83363 
L 224.665 98.83363 
" style="fill: none; stroke: #000000; stroke-width: 0.8; stroke-linejoin: miter; stroke-linecap: square"/>
   </g>
   <g id="text_17">
    <!-- ten Tusscher-Li -->
    <g transform="translate(95.97175 92.83363) scale(0.096 -0.096)">
     <defs>
      <path id="DejaVuSans-63" d="M 3122 3366 
L 3122 2828 
Q 2878 2963 2633 3030 
Q 2388 3097 2138 3097 
Q 1578 3097 1268 2742 
Q 959 2388 959 1747 
Q 959 1106 1268 751 
Q 1578 397 2138 397 
Q 2388 397 2633 464 
Q 2878 531 3122 666 
L 3122 134 
Q 2881 22 2623 -34 
Q 2366 -91 2075 -91 
Q 1284 -91 818 406 
Q 353 903 353 1747 
Q 353 2603 823 3093 
Q 1294 3584 2113 3584 
Q 2378 3584 2631 3529 
Q 2884 3475 3122 3366 
z
" transform="scale(0.015625)"/>
      <path id="DejaVuSans-68" d="M 3513 2113 
L 3513 0 
L 2938 0 
L 2938 2094 
Q 2938 2591 2744 2837 
Q 2550 3084 2163 3084 
Q 1697 3084 1428 2787 
Q 1159 2491 1159 1978 
L 1159 0 
L 581 0 
L 581 4863 
L 1159 4863 
L 1159 2956 
Q 1366 3272 1645 3428 
Q 1925 3584 2291 3584 
Q 2894 3584 3203 3211 
Q 3513 2838 3513 2113 
z
" transform="scale(0.015625)"/>
     </defs>
     <use xlink:href="#DejaVuSans-74"/>
     <use xlink:href="#DejaVuSans-65" x="39.208984"/>
     <use xlink:href="#DejaVuSans-6e" x="100.732422"/>
     <use xlink:href="#DejaVuSans-20" x="164.111328"/>
     <use xlink:href="#DejaVuSans-54" x="195.898438"/>
     <use xlink:href="#DejaVuSans-75" x="241.857422"/>
     <use xlink:href="#DejaVuSans-73" x="305.236328"/>
     <use xlink:href="#DejaVuSans-73" x="357.335938"/>
     <use xlink:href="#DejaVuSans-63" x="409.435547"/>
     <use xlink:href="#DejaVuSans-68" x="464.416016"/>
     <use xlink:href="#DejaVuSans-65" x="527.794922"/>
     <use xlink:href="#DejaVuSans-72" x="589.318359"/>
     <use xlink:href="#DejaVuSans-2d" x="624.056641"/>
     <use xlink:href="#DejaVuSans-4c" x="660.140625"/>
     <use xlink:href="#DejaVuSans-69" x="715.853516"/>
    </g>
   </g>
   <g id="line2d_36">
    <path d="M 38.665 156.354945 
L 50.5225 156.25552 
L 50.68525 155.533394 
L 51.7315 150.053197 
L 52.6615 146.8482 
L 53.70775 144.018689 
L 54.77725 141.747515 
L 55.84675 139.986035 
L 56.91625 138.646586 
L 58.195 137.40963 
L 59.7295 136.236448 
L 61.45 135.199439 
L 63.3565 134.312625 
L 65.51875 133.556738 
L 68.21575 132.860285 
L 72.145 132.097727 
L 84.5605 129.815013 
L 88.792 128.751111 
L 92.326 127.638812 
L 95.46475 126.420142 
L 98.6035 124.95808 
L 104.95075 121.898367 
L 105.74125 121.853499 
L 106.39225 122.032254 
L 106.9735 122.419029 
L 107.55475 123.082138 
L 108.136 124.09332 
L 108.7405 125.612024 
L 109.36825 127.831226 
L 110.0425 131.111174 
L 110.8795 136.429835 
L 112.29775 145.471144 
L 113.0185 148.592085 
L 113.69275 150.573641 
L 114.367 151.902959 
L 115.08775 152.85086 
L 115.9015 153.557997 
L 116.90125 154.123754 
L 118.24975 154.613133 
L 120.226 155.072229 
L 123.13225 155.504689 
L 127.13125 155.864286 
L 132.6415 156.121728 
L 141.2905 156.279464 
L 159.8905 156.347119 
L 224.68825 156.354923 
L 224.68825 156.354923 
" clip-path="url(#pb110dcd50b)" style="fill: none; stroke: #000000; stroke-width: 1.5; stroke-linecap: square"/>
   </g>
  </g>
  <g id="axes_4">
   <g id="patch_17">
    <path d="M 243.265 159.0945 
L 429.265 159.0945 
L 429.265 98.83363 
L 243.265 98.83363 
z
" style="fill: #ffffff"/>
   </g>
   <g id="matplotlib.axis_7">
    <g id="xtick_16">
     <g id="line2d_37">
      <g>
       <use xlink:href="#m7f74cbb4a8" x="243.265" y="159.0945" style="stroke: #000000; stroke-width: 0.8"/>
      </g>
     </g>
     <g id="text_18">
      <!-- 0 -->
      <g transform="translate(240.72 172.17325) scale(0.08 -0.08)">
       <use xlink:href="#DejaVuSans-30"/>
      </g>
     </g>
    </g>
    <g id="xtick_17">
     <g id="line2d_38">
      <g>
       <use xlink:href="#m7f74cbb4a8" x="289.765" y="159.0945" style="stroke: #000000; stroke-width: 0.8"/>
      </g>
     </g>
     <g id="text_19">
      <!-- 200 -->
      <g transform="translate(282.13 172.17325) scale(0.08 -0.08)">
       <use xlink:href="#DejaVuSans-32"/>
       <use xlink:href="#DejaVuSans-30" x="63.623047"/>
       <use xlink:href="#DejaVuSans-30" x="127.246094"/>
      </g>
     </g>
    </g>
    <g id="xtick_18">
     <g id="line2d_39">
      <g>
       <use xlink:href="#m7f74cbb4a8" x="336.265" y="159.0945" style="stroke: #000000; stroke-width: 0.8"/>
      </g>
     </g>
     <g id="text_20">
      <!-- 400 -->
      <g transform="translate(328.63 172.17325) scale(0.08 -0.08)">
       <use xlink:href="#DejaVuSans-34"/>
       <use xlink:href="#DejaVuSans-30" x="63.623047"/>
       <use xlink:href="#DejaVuSans-30" x="127.246094"/>
      </g>
     </g>
    </g>
    <g id="xtick_19">
     <g id="line2d_40">
      <g>
       <use xlink:href="#m7f74cbb4a8" x="382.765" y="159.0945" style="stroke: #000000; stroke-width: 0.8"/>
      </g>
     </g>
     <g id="text_21">
      <!-- 600 -->
      <g transform="translate(375.13 172.17325) scale(0.08 -0.08)">
       <use xlink:href="#DejaVuSans-36"/>
       <use xlink:href="#DejaVuSans-30" x="63.623047"/>
       <use xlink:href="#DejaVuSans-30" x="127.246094"/>
      </g>
     </g>
    </g>
    <g id="xtick_20">
     <g id="line2d_41">
      <g>
       <use xlink:href="#m7f74cbb4a8" x="429.265" y="159.0945" style="stroke: #000000; stroke-width: 0.8"/>
      </g>
     </g>
     <g id="text_22">
      <!-- 800 -->
      <g transform="translate(421.63 172.17325) scale(0.08 -0.08)">
       <use xlink:href="#DejaVuSans-38"/>
       <use xlink:href="#DejaVuSans-30" x="63.623047"/>
       <use xlink:href="#DejaVuSans-30" x="127.246094"/>
      </g>
     </g>
    </g>
    <g id="text_23">
     <!-- Time (ms) -->
     <g transform="translate(316.105625 183.91575) scale(0.08 -0.08)">
      <use xlink:href="#DejaVuSans-54"/>
      <use xlink:href="#DejaVuSans-69" x="57.958984"/>
      <use xlink:href="#DejaVuSans-6d" x="85.742188"/>
      <use xlink:href="#DejaVuSans-65" x="183.154297"/>
      <use xlink:href="#DejaVuSans-20" x="244.677734"/>
      <use xlink:href="#DejaVuSans-28" x="276.464844"/>
      <use xlink:href="#DejaVuSans-6d" x="315.478516"/>
      <use xlink:href="#DejaVuSans-73" x="412.890625"/>
      <use xlink:href="#DejaVuSans-29" x="464.990234"/>
     </g>
    </g>
   </g>
   <g id="matplotlib.axis_8">
    <g id="ytick_10">
     <g id="line2d_42">
      <g>
       <use xlink:href="#m3c51cfc6c5" x="243.265" y="156.355234" style="stroke: #000000; stroke-width: 0.8"/>
      </g>
     </g>
    </g>
    <g id="ytick_11">
     <g id="line2d_43">
      <g>
       <use xlink:href="#m3c51cfc6c5" x="243.265" y="135.223601" style="stroke: #000000; stroke-width: 0.8"/>
      </g>
     </g>
    </g>
    <g id="ytick_12">
     <g id="line2d_44">
      <g>
       <use xlink:href="#m3c51cfc6c5" x="243.265" y="114.091969" style="stroke: #000000; stroke-width: 0.8"/>
      </g>
     </g>
    </g>
   </g>
   <g id="line2d_45">
    <path d="M 243.265 156.355301 
L 255.23875 156.245389 
L 255.355 155.741813 
L 255.65725 152.880264 
L 256.3315 146.768967 
L 256.9825 143.03432 
L 257.74975 139.881714 
L 258.54025 137.524951 
L 259.42375 135.578823 
L 260.44675 133.861183 
L 261.679 132.22969 
L 263.167 130.632935 
L 264.9805 129.019145 
L 267.3055 127.260329 
L 270.8395 124.896214 
L 278.48875 119.822048 
L 282.0925 117.128883 
L 285.27775 114.474223 
L 287.998 111.92222 
L 290.29975 109.460224 
L 293.50825 105.976081 
L 294.43825 105.339533 
L 295.2055 105.069858 
L 295.87975 105.060597 
L 296.5075 105.269798 
L 297.13525 105.715559 
L 297.78625 106.461837 
L 298.4605 107.588601 
L 299.158 109.204437 
L 299.87875 111.454419 
L 300.62275 114.527201 
L 301.39 118.663853 
L 302.20375 124.337505 
L 303.064 131.99496 
L 305.17975 152.023239 
L 305.668 153.993886 
L 306.133 154.990813 
L 306.598 155.497625 
L 307.17925 155.794214 
L 308.086 155.971571 
L 310.29475 156.107928 
L 317.1535 156.273271 
L 331.03375 156.347851 
L 416.617 156.355293 
L 429.28825 156.355295 
L 429.28825 156.355295 
" clip-path="url(#pc76e9c719c)" style="fill: none; stroke: #cccccc; stroke-opacity: 0.9; stroke-width: 1.5; stroke-linecap: square"/>
   </g>
   <g id="line2d_46">
    <path d="M 243.265 156.354849 
L 255.169 156.251622 
L 255.634 155.505081 
L 256.3315 154.613 
L 257.28475 153.764675 
L 258.424 153.049536 
L 259.88875 152.409193 
L 262.49275 151.54909 
L 264.86425 151.016576 
L 268.2355 150.503996 
L 273.55975 149.943378 
L 284.62675 149.047772 
L 303.78475 147.703178 
L 306.412 147.780715 
L 308.365 148.050263 
L 309.946 148.48612 
L 311.27125 149.079742 
L 312.4105 149.831297 
L 313.50325 150.825385 
L 314.8285 152.367858 
L 316.52575 154.302809 
L 317.45575 155.00821 
L 318.409 155.446186 
L 319.59475 155.732226 
L 321.478 155.928994 
L 325.8025 156.102902 
L 335.9395 156.266621 
L 357.0505 156.343747 
L 429.28825 156.354826 
L 429.28825 156.354826 
" clip-path="url(#pc76e9c719c)" style="fill: none; stroke: #cccccc; stroke-opacity: 0.9; stroke-width: 1.5; stroke-linecap: square"/>
   </g>
   <g id="line2d_47">
    <path d="M 243.265 156.354945 
L 255.1225 156.25552 
L 255.28525 155.533394 
L 256.3315 150.053197 
L 257.2615 146.8482 
L 258.30775 144.018689 
L 259.37725 141.747515 
L 260.44675 139.986035 
L 261.51625 138.646586 
L 262.795 137.40963 
L 264.3295 136.236448 
L 266.05 135.199439 
L 267.9565 134.312625 
L 270.11875 133.556738 
L 272.81575 132.860285 
L 276.745 132.097727 
L 289.1605 129.815013 
L 293.392 128.751111 
L 296.926 127.638812 
L 300.06475 126.420142 
L 303.2035 124.95808 
L 309.55075 121.898367 
L 310.34125 121.853499 
L 310.99225 122.032254 
L 311.5735 122.419029 
L 312.15475 123.082138 
L 312.736 124.09332 
L 313.3405 125.612024 
L 313.96825 127.831226 
L 314.6425 131.111174 
L 315.4795 136.429835 
L 316.89775 145.471144 
L 317.6185 148.592085 
L 318.29275 150.573641 
L 318.967 151.902959 
L 319.68775 152.85086 
L 320.5015 153.557997 
L 321.50125 154.123754 
L 322.84975 154.613133 
L 324.826 155.072229 
L 327.73225 155.504689 
L 331.73125 155.864286 
L 337.2415 156.121728 
L 345.8905 156.279464 
L 364.4905 156.347119 
L 429.28825 156.354923 
L 429.28825 156.354923 
" clip-path="url(#pc76e9c719c)" style="fill: none; stroke: #cccccc; stroke-opacity: 0.9; stroke-width: 1.5; stroke-linecap: square"/>
   </g>
   <g id="patch_18">
    <path d="M 243.265 159.0945 
L 243.265 98.83363 
" style="fill: none; stroke: #000000; stroke-width: 0.8; stroke-linejoin: miter; stroke-linecap: square"/>
   </g>
   <g id="patch_19">
    <path d="M 429.265 159.0945 
L 429.265 98.83363 
" style="fill: none; stroke: #000000; stroke-width: 0.8; stroke-linejoin: miter; stroke-linecap: square"/>
   </g>
   <g id="patch_20">
    <path d="M 243.265 159.0945 
L 429.265 159.0945 
" style="fill: none; stroke: #000000; stroke-width: 0.8; stroke-linejoin: miter; stroke-linecap: square"/>
   </g>
   <g id="patch_21">
    <path d="M 243.265 98.83363 
L 429.265 98.83363 
" style="fill: none; stroke: #000000; stroke-width: 0.8; stroke-linejoin: miter; stroke-linecap: square"/>
   </g>
   <g id="text_24">
    <!-- Tomek-Li -->
    <g transform="translate(315.064 92.83363) scale(0.096 -0.096)">
     <defs>
      <path id="DejaVuSans-6f" d="M 1959 3097 
Q 1497 3097 1228 2736 
Q 959 2375 959 1747 
Q 959 1119 1226 758 
Q 1494 397 1959 397 
Q 2419 397 2687 759 
Q 2956 1122 2956 1747 
Q 2956 2369 2687 2733 
Q 2419 3097 1959 3097 
z
M 1959 3584 
Q 2709 3584 3137 3096 
Q 3566 2609 3566 1747 
Q 3566 888 3137 398 
Q 2709 -91 1959 -91 
Q 1206 -91 779 398 
Q 353 888 353 1747 
Q 353 2609 779 3096 
Q 1206 3584 1959 3584 
z
" transform="scale(0.015625)"/>
      <path id="DejaVuSans-6b" d="M 581 4863 
L 1159 4863 
L 1159 1991 
L 2875 3500 
L 3609 3500 
L 1753 1863 
L 3688 0 
L 2938 0 
L 1159 1709 
L 1159 0 
L 581 0 
L 581 4863 
z
" transform="scale(0.015625)"/>
     </defs>
     <use xlink:href="#DejaVuSans-54"/>
     <use xlink:href="#DejaVuSans-6f" x="44.083984"/>
     <use xlink:href="#DejaVuSans-6d" x="105.265625"/>
     <use xlink:href="#DejaVuSans-65" x="202.677734"/>
     <use xlink:href="#DejaVuSans-6b" x="264.201172"/>
     <use xlink:href="#DejaVuSans-2d" x="322.111328"/>
     <use xlink:href="#DejaVuSans-4c" x="358.195312"/>
     <use xlink:href="#DejaVuSans-69" x="413.908203"/>
    </g>
   </g>
   <g id="line2d_48">
    <path d="M 243.265 156.355122 
L 255.14575 156.274524 
L 255.262 155.668142 
L 256.54075 146.898916 
L 257.68 141.688085 
L 258.9355 136.978266 
L 260.2375 132.923406 
L 261.51625 129.646468 
L 262.8415 126.846027 
L 264.2365 124.404569 
L 265.74775 122.202037 
L 267.42175 120.154255 
L 269.23525 118.284317 
L 271.537 116.252742 
L 275.18725 113.364381 
L 281.65075 108.250304 
L 284.81275 105.430244 
L 287.812 102.787116 
L 288.99775 102.045174 
L 289.9975 101.673989 
L 290.90425 101.573529 
L 291.74125 101.699768 
L 292.555 102.046163 
L 293.3455 102.6294 
L 294.11275 103.484569 
L 294.85675 104.667525 
L 295.5775 106.250969 
L 296.29825 108.390022 
L 297.04225 111.316242 
L 297.856 115.47394 
L 298.80925 121.610703 
L 300.20425 132.292352 
L 301.69225 143.217117 
L 302.506 147.60896 
L 303.2035 150.232569 
L 303.8545 151.872545 
L 304.5055 152.944358 
L 305.203 153.68034 
L 306.04 154.232311 
L 307.13275 154.673298 
L 308.80675 155.087282 
L 311.50375 155.506285 
L 315.36325 155.871057 
L 320.61775 156.130849 
L 328.75525 156.287066 
L 346.23925 156.349576 
L 429.28825 156.355114 
L 429.28825 156.355114 
" clip-path="url(#pc76e9c719c)" style="fill: none; stroke: #000000; stroke-width: 1.5; stroke-linecap: square"/>
   </g>
  </g>
 </g>
 <defs>
  <clipPath id="p06c2f6891c">
   <rect x="38.665" y="20.4945" width="186" height="60.26087"/>
  </clipPath>
  <clipPath id="pd0b1c4110c">
   <rect x="243.265" y="20.4945" width="186" height="60.26087"/>
  </clipPath>
  <clipPath id="pb110dcd50b">
   <rect x="38.665" y="98.83363" width="186" height="60.26087"/>
  </clipPath>
  <clipPath id="pc76e9c719c">
   <rect x="243.265" y="98.83363" width="186" height="60.26087"/>
  </clipPath>
 </defs>
</svg>
